<svg width="208" height="187" viewBox="0 0 208 187" fill="none" xmlns="http://www.w3.org/2000/svg">
<path d="M0 0C0 0 0 43.9225 40.5473 65.7013C72.1916 82.7001 108.502 67.6306 124.319 128.912C129.884 150.463 136.301 187.384 208 187.384H0V0Z" fill="#4883F7"/>
<path d="M18.343 117.728C18.343 116.761 18.561 115.894 18.997 115.126C19.433 114.349 20.0253 113.742 20.7741 113.306C21.5324 112.87 22.3712 112.652 23.2905 112.652C24.371 112.652 25.3141 112.913 26.1197 113.434C26.9254 113.955 27.513 114.695 27.8826 115.652H26.333C26.0581 115.055 25.66 114.595 25.1387 114.273C24.6269 113.951 24.0109 113.789 23.2905 113.789C22.5986 113.789 21.9778 113.951 21.4281 114.273C20.8784 114.595 20.4471 115.055 20.1343 115.652C19.8216 116.24 19.6652 116.931 19.6652 117.728C19.6652 118.514 19.8216 119.206 20.1343 119.803C20.4471 120.391 20.8784 120.846 21.4281 121.168C21.9778 121.49 22.5986 121.651 23.2905 121.651C24.0109 121.651 24.6269 121.495 25.1387 121.182C25.66 120.86 26.0581 120.4 26.333 119.803H27.8826C27.513 120.751 26.9254 121.486 26.1197 122.007C25.3141 122.519 24.371 122.775 23.2905 122.775C22.3712 122.775 21.5324 122.561 20.7741 122.135C20.0253 121.699 19.433 121.097 18.997 120.329C18.561 119.562 18.343 118.694 18.343 117.728ZM31.1022 116.164C31.3297 115.718 31.652 115.372 32.069 115.126C32.4955 114.879 33.0121 114.756 33.6187 114.756V116.093H33.2774C31.8273 116.093 31.1022 116.879 31.1022 118.453V122.689H29.8085V114.898H31.1022V116.164ZM42.2206 118.495C42.2206 118.742 42.2064 119.002 42.178 119.277H35.9509C35.9983 120.045 36.259 120.647 36.7329 121.083C37.2162 121.509 37.7991 121.723 38.4816 121.723C39.0408 121.723 39.5052 121.595 39.8748 121.339C40.2539 121.073 40.5193 120.723 40.671 120.287H42.0642C41.8557 121.035 41.4387 121.647 40.8131 122.121C40.1876 122.585 39.4104 122.817 38.4816 122.817C37.7423 122.817 37.0788 122.651 36.4912 122.32C35.913 121.988 35.4581 121.519 35.1263 120.912C34.7946 120.296 34.6287 119.585 34.6287 118.78C34.6287 117.974 34.7899 117.268 35.1121 116.661C35.4344 116.055 35.8846 115.59 36.4627 115.268C37.0504 114.936 37.7233 114.77 38.4816 114.77C39.2208 114.77 39.8748 114.932 40.4435 115.254C41.0122 115.576 41.4482 116.022 41.7515 116.59C42.0642 117.149 42.2206 117.784 42.2206 118.495ZM40.8842 118.225C40.8842 117.732 40.7752 117.311 40.5572 116.96C40.3392 116.6 40.0407 116.33 39.6616 116.149C39.2919 115.96 38.8796 115.865 38.4247 115.865C37.7707 115.865 37.2115 116.074 36.7471 116.491C36.2921 116.908 36.0315 117.486 35.9651 118.225H40.8842ZM43.445 118.765C43.445 117.969 43.6061 117.273 43.9283 116.676C44.2506 116.069 44.6913 115.6 45.2505 115.268C45.8192 114.936 46.4495 114.77 47.1414 114.77C47.8238 114.77 48.4162 114.917 48.9185 115.211C49.4209 115.505 49.7952 115.875 50.0417 116.32V114.898H51.3496V122.689H50.0417V121.239C49.7858 121.694 49.4019 122.073 48.8901 122.377C48.3878 122.67 47.8001 122.817 47.1272 122.817C46.4353 122.817 45.8097 122.647 45.2505 122.305C44.6913 121.964 44.2506 121.486 43.9283 120.87C43.6061 120.253 43.445 119.552 43.445 118.765ZM50.0417 118.78C50.0417 118.192 49.9232 117.68 49.6863 117.244C49.4493 116.808 49.127 116.476 48.7195 116.249C48.3214 116.012 47.8807 115.894 47.3973 115.894C46.9139 115.894 46.4732 116.007 46.0751 116.235C45.677 116.462 45.3595 116.794 45.1226 117.23C44.8856 117.666 44.7672 118.178 44.7672 118.765C44.7672 119.363 44.8856 119.884 45.1226 120.329C45.3595 120.765 45.677 121.102 46.0751 121.339C46.4732 121.566 46.9139 121.68 47.3973 121.68C47.8807 121.68 48.3214 121.566 48.7195 121.339C49.127 121.102 49.4493 120.765 49.6863 120.329C49.9232 119.884 50.0417 119.367 50.0417 118.78ZM53.0526 118.765C53.0526 117.969 53.2137 117.273 53.536 116.676C53.8582 116.069 54.2989 115.6 54.8581 115.268C55.4268 114.936 56.0619 114.77 56.7632 114.77C57.3698 114.77 57.9338 114.913 58.4551 115.197C58.9763 115.472 59.3744 115.837 59.6493 116.292V112.169H60.9573V122.689H59.6493V121.225C59.3934 121.689 59.0143 122.073 58.5119 122.377C58.0096 122.67 57.422 122.817 56.749 122.817C56.0571 122.817 55.4268 122.647 54.8581 122.305C54.2989 121.964 53.8582 121.486 53.536 120.87C53.2137 120.253 53.0526 119.552 53.0526 118.765ZM59.6493 118.78C59.6493 118.192 59.5308 117.68 59.2939 117.244C59.0569 116.808 58.7347 116.476 58.3271 116.249C57.929 116.012 57.4883 115.894 57.0049 115.894C56.5215 115.894 56.0808 116.007 55.6827 116.235C55.2847 116.462 54.9671 116.794 54.7302 117.23C54.4932 117.666 54.3748 118.178 54.3748 118.765C54.3748 119.363 54.4932 119.884 54.7302 120.329C54.9671 120.765 55.2847 121.102 55.6827 121.339C56.0808 121.566 56.5215 121.68 57.0049 121.68C57.4883 121.68 57.929 121.566 58.3271 121.339C58.7347 121.102 59.0569 120.765 59.2939 120.329C59.5308 119.884 59.6493 119.367 59.6493 118.78ZM66.5414 122.817C65.8116 122.817 65.1482 122.651 64.5511 122.32C63.9634 121.988 63.499 121.519 63.1578 120.912C62.8261 120.296 62.6602 119.585 62.6602 118.78C62.6602 117.983 62.8308 117.282 63.172 116.676C63.5227 116.059 63.9966 115.59 64.5937 115.268C65.1908 114.936 65.859 114.77 66.5983 114.77C67.3376 114.77 68.0058 114.936 68.6029 115.268C69.2 115.59 69.6692 116.055 70.0104 116.661C70.3611 117.268 70.5364 117.974 70.5364 118.78C70.5364 119.585 70.3564 120.296 69.9962 120.912C69.6455 121.519 69.1669 121.988 68.5603 122.32C67.9537 122.651 67.2807 122.817 66.5414 122.817ZM66.5414 121.68C67.0059 121.68 67.4419 121.571 67.8494 121.353C68.257 121.135 68.584 120.808 68.8304 120.372C69.0863 119.936 69.2142 119.405 69.2142 118.78C69.2142 118.154 69.091 117.623 68.8446 117.187C68.5982 116.751 68.2759 116.429 67.8778 116.221C67.4798 116.003 67.0485 115.894 66.5841 115.894C66.1102 115.894 65.6742 116.003 65.2761 116.221C64.8875 116.429 64.5748 116.751 64.3378 117.187C64.1009 117.623 63.9824 118.154 63.9824 118.78C63.9824 119.415 64.0961 119.95 64.3236 120.386C64.5605 120.822 64.8733 121.149 65.2619 121.367C65.6505 121.576 66.077 121.68 66.5414 121.68ZM75.5444 118.78C75.5444 117.974 75.7055 117.273 76.0278 116.676C76.35 116.069 76.7955 115.6 77.3642 115.268C77.9423 114.936 78.6011 114.77 79.3403 114.77C80.2976 114.77 81.0843 115.003 81.7004 115.467C82.3259 115.931 82.7382 116.576 82.9373 117.401H81.544C81.4113 116.927 81.1506 116.552 80.762 116.277C80.3829 116.003 79.909 115.865 79.3403 115.865C78.6011 115.865 78.0039 116.121 77.549 116.633C77.094 117.135 76.8666 117.851 76.8666 118.78C76.8666 119.718 77.094 120.443 77.549 120.955C78.0039 121.467 78.6011 121.723 79.3403 121.723C79.909 121.723 80.3829 121.59 80.762 121.324C81.1412 121.059 81.4018 120.68 81.544 120.187H82.9373C82.7287 120.983 82.3117 121.623 81.6862 122.106C81.0606 122.58 80.2787 122.817 79.3403 122.817C78.6011 122.817 77.9423 122.651 77.3642 122.32C76.7955 121.988 76.35 121.519 76.0278 120.912C75.7055 120.306 75.5444 119.595 75.5444 118.78ZM88.0614 122.817C87.3316 122.817 86.6681 122.651 86.071 122.32C85.4834 121.988 85.0189 121.519 84.6777 120.912C84.346 120.296 84.1801 119.585 84.1801 118.78C84.1801 117.983 84.3507 117.282 84.6919 116.676C85.0426 116.059 85.5165 115.59 86.1136 115.268C86.7108 114.936 87.379 114.77 88.1182 114.77C88.8575 114.77 89.5257 114.936 90.1229 115.268C90.72 115.59 91.1891 116.055 91.5303 116.661C91.881 117.268 92.0564 117.974 92.0564 118.78C92.0564 119.585 91.8763 120.296 91.5161 120.912C91.1654 121.519 90.6868 121.988 90.0802 122.32C89.4736 122.651 88.8007 122.817 88.0614 122.817ZM88.0614 121.68C88.5258 121.68 88.9618 121.571 89.3693 121.353C89.7769 121.135 90.1039 120.808 90.3503 120.372C90.6062 119.936 90.7342 119.405 90.7342 118.78C90.7342 118.154 90.611 117.623 90.3645 117.187C90.1181 116.751 89.7959 116.429 89.3978 116.221C88.9997 116.003 88.5685 115.894 88.104 115.894C87.6301 115.894 87.1941 116.003 86.7961 116.221C86.4075 116.429 86.0947 116.751 85.8577 117.187C85.6208 117.623 85.5023 118.154 85.5023 118.78C85.5023 119.415 85.616 119.95 85.8435 120.386C86.0805 120.822 86.3932 121.149 86.7818 121.367C87.1704 121.576 87.597 121.68 88.0614 121.68ZM97.5534 114.756C98.5012 114.756 99.2689 115.045 99.8565 115.623C100.444 116.192 100.738 117.017 100.738 118.097V122.689H99.4585V118.282C99.4585 117.505 99.2642 116.912 98.8756 116.505C98.487 116.088 97.9562 115.879 97.2832 115.879C96.6008 115.879 96.0558 116.093 95.6483 116.519C95.2502 116.946 95.0512 117.566 95.0512 118.382V122.689H93.7574V114.898H95.0512V116.007C95.3071 115.609 95.653 115.301 96.089 115.083C96.5345 114.865 97.0226 114.756 97.5534 114.756Z" fill="white"/>
<path d="M47.4737 143.115L47.4917 143.21L47.5008 143.267L47.5143 143.38L47.5368 143.598C47.5503 143.742 47.5639 143.89 47.5729 144.034C47.5909 144.321 47.6044 144.609 47.6044 144.896C47.6134 145.471 47.5864 146.042 47.5323 146.613C47.4241 147.75 47.2123 148.882 46.8563 149.98C46.7571 150.25 46.6715 150.525 46.5633 150.795C46.4507 151.061 46.3425 151.331 46.2253 151.592C45.982 152.115 45.7071 152.62 45.4006 153.113C45.0896 153.605 44.7426 154.084 44.3144 154.528C44.2108 154.642 44.0891 154.746 43.9764 154.851C43.8548 154.955 43.7241 155.056 43.5889 155.147C43.3139 155.334 42.9849 155.487 42.6154 155.574C42.5613 155.591 42.5027 155.596 42.4486 155.587L42.4126 155.583C42.354 155.574 42.3314 155.57 42.3044 155.561C42.2729 155.552 42.2503 155.548 42.2278 155.539C42.1782 155.526 42.1332 155.509 42.0926 155.491C42.0025 155.456 41.9303 155.413 41.8492 155.365C41.7005 155.269 41.5743 155.156 41.4661 155.034C41.2453 154.785 41.1191 154.515 41.029 154.25C40.8532 153.714 40.8262 153.2 40.8307 152.703C40.8532 152.206 40.9073 151.74 41.0019 151.252C41.1011 150.773 41.2318 150.316 41.385 149.867C42.007 148.077 42.8993 146.412 44.0125 144.866C44.5713 144.095 45.2023 143.363 45.9054 142.679C46.6039 141.995 47.3971 141.376 48.2849 140.858C49.1773 140.353 50.1733 139.943 51.2459 139.764C51.5163 139.708 51.7777 139.695 52.0436 139.669C52.1743 139.651 52.3095 139.651 52.4492 139.651L52.8548 139.647L53.2695 139.673C53.3371 139.677 53.4092 139.682 53.4768 139.69L53.6886 139.721C53.8283 139.743 53.968 139.76 54.1077 139.791L54.5224 139.886C55.0767 140.056 55.622 140.3 56.1088 140.636C56.591 140.976 57.0101 141.394 57.3436 141.851C58.0151 142.775 58.3441 143.816 58.4974 144.822C58.6416 145.833 58.6145 146.831 58.4793 147.793C58.3441 148.756 58.1053 149.693 57.7898 150.599C57.4698 151.501 57.0687 152.372 56.6 153.204C56.3702 153.631 56.1133 154.006 55.8699 154.406C55.622 154.798 55.3561 155.177 55.1037 155.565C54.0446 157.086 52.8729 158.519 51.629 159.882C50.3806 161.246 49.0691 162.549 47.654 163.76C46.9419 164.365 46.2118 164.945 45.3961 165.459L45.0761 165.642L44.9184 165.733C44.8643 165.764 44.8192 165.794 44.7336 165.829C44.4316 165.964 44.0846 166.003 43.7556 165.938C43.5934 165.907 43.4356 165.851 43.2914 165.772C43.2193 165.733 43.1517 165.69 43.0841 165.642C43.0525 165.615 43.021 165.589 42.9894 165.563L42.9218 165.502C42.7461 165.345 42.5748 165.189 42.4081 165.023C41.7366 164.37 41.0966 163.694 40.5062 162.971C40.353 162.797 40.2087 162.61 40.0645 162.427C39.9203 162.244 39.7761 162.061 39.6409 161.869L39.2308 161.298L38.8432 160.714C38.3474 159.922 37.8832 159.103 37.5137 158.24C37.3109 157.813 37.1531 157.373 36.9954 156.929C36.9098 156.707 36.8512 156.48 36.7881 156.254L36.5988 155.57L36.4591 154.873C36.4185 154.642 36.3599 154.411 36.3419 154.176L36.2608 153.47C36.2473 153.352 36.2292 153.235 36.2247 153.117L36.2067 152.768C36.1616 151.836 36.1751 150.895 36.2653 149.954C36.4546 148.081 36.9548 146.199 37.8787 144.487C38.1041 144.056 38.3655 143.642 38.6494 143.241C38.9333 142.84 39.2443 142.448 39.5868 142.086C39.9338 141.721 40.3079 141.376 40.727 141.067C41.1462 140.758 41.6059 140.475 42.1467 140.27C42.2774 140.218 42.4216 140.174 42.5703 140.135C42.6424 140.113 42.7235 140.1 42.8002 140.082L42.9173 140.061L43.0165 140.048C43.2779 140.008 43.5483 139.987 43.8322 139.982C44.3911 139.978 45.0175 140.069 45.5944 140.361C46.1713 140.658 46.6174 141.141 46.9014 141.625C46.9644 141.747 47.0366 141.869 47.0906 141.991C47.1402 142.113 47.1988 142.235 47.2439 142.357C47.2844 142.479 47.3295 142.601 47.3701 142.727L47.4737 143.115ZM45.8873 143.45L45.8017 143.193C45.7701 143.106 45.7341 143.014 45.698 142.927C45.662 142.84 45.6169 142.762 45.5809 142.675C45.5403 142.596 45.4907 142.522 45.4502 142.448C45.2609 142.165 45.0445 141.973 44.7967 141.856C44.5443 141.747 44.2243 141.694 43.8593 141.712C43.679 141.721 43.4852 141.738 43.2914 141.773L43.2193 141.781L43.1652 141.795C43.1292 141.803 43.0931 141.808 43.057 141.821C42.9804 141.842 42.9038 141.869 42.8227 141.903C42.5027 142.03 42.1692 142.235 41.8582 142.47C41.5473 142.709 41.2498 142.988 40.9749 143.289C40.7 143.589 40.4431 143.916 40.2133 144.256C39.9789 144.596 39.7626 144.953 39.5733 145.323C39.1857 146.06 38.8928 146.852 38.6539 147.658C38.4195 148.469 38.2708 149.301 38.1717 150.146C38.0725 150.991 38.041 151.845 38.0635 152.703L38.0725 153.025L38.0951 153.343L38.1401 153.975C38.1491 154.189 38.1897 154.398 38.2212 154.607C38.2528 154.816 38.2843 155.025 38.3114 155.238C38.6223 156.907 39.1632 158.562 39.9744 160.113C40.7811 161.664 41.8357 163.115 43.1021 164.365C43.2599 164.522 43.4221 164.674 43.5843 164.823L43.6429 164.875L43.679 164.905C43.706 164.927 43.7331 164.945 43.7601 164.958C43.8187 164.988 43.8818 165.01 43.9449 165.023C44.0756 165.045 44.2108 165.027 44.328 164.975C44.3505 164.966 44.4001 164.936 44.4497 164.91L44.5894 164.827L44.8688 164.661C45.6079 164.191 46.2839 163.603 46.9464 163.002C47.6089 162.4 48.2218 161.738 48.8258 161.08C49.4162 160.405 49.9975 159.726 50.5429 159.015L50.953 158.484L51.3541 157.944C51.6245 157.587 51.8724 157.221 52.1338 156.855C52.3906 156.493 52.634 156.118 52.8819 155.748C53.1253 155.378 53.3551 154.999 53.5985 154.624C53.8238 154.245 54.0582 153.871 54.2745 153.487C54.4818 153.104 54.7162 152.716 54.9009 152.341C55.284 151.583 55.6085 150.795 55.8564 149.993C56.0998 149.187 56.271 148.368 56.3521 147.554C56.4378 146.739 56.4107 145.924 56.28 145.162C56.1448 144.404 55.8744 143.698 55.4688 143.154C55.2615 142.884 55.0271 142.657 54.7612 142.465C54.4953 142.278 54.1889 142.143 53.8599 142.043C53.5309 141.938 53.1658 141.899 52.7918 141.869H52.5033C52.4087 141.869 52.314 141.864 52.2104 141.877C52.0121 141.895 51.8138 141.903 51.629 141.938C50.8673 142.039 50.1147 142.317 49.3981 142.696C49.0421 142.897 48.6906 143.106 48.3571 143.354C48.019 143.594 47.69 143.86 47.3746 144.138C46.7436 144.705 46.1532 145.328 45.6169 145.999C45.0716 146.665 44.5713 147.375 44.1207 148.116C43.67 148.856 43.2599 149.619 42.9218 150.403C42.7551 150.795 42.6019 151.191 42.4847 151.583C42.4261 151.775 42.381 151.98 42.336 152.185C42.3089 152.285 42.2909 152.389 42.2774 152.49L42.2278 152.79C42.1827 153.187 42.1737 153.579 42.2413 153.91C42.2774 154.071 42.3269 154.223 42.3991 154.328C42.4351 154.38 42.4712 154.428 42.5117 154.463C42.5297 154.476 42.5523 154.498 42.5703 154.507C42.5793 154.515 42.5883 154.52 42.5928 154.52C42.5974 154.524 42.5974 154.524 42.5974 154.524C42.5974 154.524 42.6019 154.528 42.5703 154.524L42.3675 154.533C42.5478 154.476 42.7371 154.389 42.9218 154.254C43.012 154.189 43.1021 154.11 43.1923 154.032C43.2779 153.945 43.368 153.866 43.4491 153.77C43.7826 153.4 44.0756 152.969 44.337 152.516C44.5984 152.063 44.8327 151.583 45.0355 151.1C45.1347 150.856 45.2203 150.608 45.315 150.364C45.4006 150.115 45.4727 149.863 45.5493 149.614C45.8332 148.608 45.9865 147.562 46.0451 146.517C46.0721 145.994 46.0766 145.467 46.0451 144.949C46.0315 144.687 46.0135 144.426 45.9865 144.169C45.973 144.038 45.9549 143.912 45.9414 143.785L45.9144 143.598L45.8873 143.45Z" fill="white"/>
<path d="M52.4305 135.656C52.4259 136.14 52.3268 136.628 52.1285 137.072C51.9347 137.521 51.6418 137.922 51.2812 138.257C50.5646 138.928 49.5641 139.29 48.5861 139.263C48.0994 139.25 47.6127 139.146 47.171 138.954C46.7293 138.762 46.3327 138.488 45.9992 138.157C45.3322 137.495 44.9491 136.576 44.9582 135.656C44.9491 134.737 45.3367 133.818 45.9992 133.156C46.3327 132.825 46.7293 132.546 47.171 132.359C47.6127 132.167 48.0994 132.062 48.5861 132.049C49.5596 132.019 50.5646 132.385 51.2812 133.056C51.6373 133.391 51.9302 133.796 52.1285 134.241C52.3223 134.685 52.4259 135.173 52.4305 135.656ZM50.3528 135.656C50.3573 135.208 50.177 134.768 49.8571 134.428C49.5371 134.088 49.0819 133.87 48.5861 133.844C48.0949 133.818 47.5901 133.984 47.2071 134.323C47.0223 134.493 46.8691 134.698 46.7654 134.924C46.6662 135.151 46.6122 135.399 46.6077 135.652C46.6122 135.905 46.6662 136.153 46.7654 136.38C46.8691 136.606 47.0223 136.811 47.2071 136.981C47.5856 137.316 48.0904 137.482 48.5861 137.46C49.0819 137.434 49.5371 137.216 49.8571 136.876C50.1816 136.545 50.3573 136.105 50.3528 135.656Z" fill="white"/>
<path d="M66.419 133.561C66.5047 133.718 66.5632 133.848 66.6218 133.992C66.6759 134.132 66.7165 134.275 66.7525 134.419C66.8246 134.707 66.8652 134.999 66.8787 135.286C66.9148 135.87 66.8291 136.449 66.721 137.02C66.6128 137.591 66.4596 138.157 66.2613 138.706C66.054 139.255 65.8016 139.782 65.5132 140.292C65.2292 140.801 64.8777 141.276 64.5036 141.725C64.1341 142.178 63.7104 142.583 63.2688 142.958C62.3764 143.703 61.3804 144.308 60.3303 144.748C60.1501 144.822 59.9427 144.744 59.8661 144.57C59.7985 144.421 59.8526 144.252 59.9833 144.16H59.9878C60.8711 143.541 61.6869 142.858 62.3854 142.095C63.0795 141.328 63.6609 140.488 64.0845 139.586C64.3008 139.137 64.4811 138.671 64.6208 138.192C64.765 137.717 64.8732 137.233 64.9408 136.741C65.0129 136.249 65.0309 135.757 65.076 135.264C65.103 135.016 65.1256 134.768 65.1661 134.519C65.1842 134.393 65.2022 134.267 65.2247 134.14C65.2518 134.018 65.2698 133.879 65.3104 133.774L65.3554 133.644C65.4591 133.352 65.7881 133.195 66.09 133.295C66.2388 133.339 66.3514 133.439 66.419 133.561Z" fill="white"/>
<path d="M32.6003 132.485C32.6814 132.681 32.74 132.912 32.8076 133.121C32.8662 133.339 32.9293 133.552 32.9789 133.77C33.0916 134.202 33.1862 134.633 33.2808 135.06C33.4837 135.918 33.7405 136.759 34.065 137.573C34.2183 137.983 34.403 138.384 34.6104 138.771C34.7095 138.967 34.8222 139.155 34.9348 139.346C35.0565 139.529 35.1692 139.721 35.3044 139.895C35.8182 140.623 36.4311 141.272 37.1026 141.943L37.1071 141.947C37.2018 142.039 37.1973 142.187 37.1026 142.278C37.0305 142.344 36.9314 142.361 36.8457 142.326C35.9038 141.973 35.052 141.377 34.349 140.653C33.6369 139.935 33.042 139.107 32.5643 138.227C32.0865 137.347 31.7485 136.402 31.5232 135.439C31.406 134.96 31.3339 134.472 31.3159 133.975C31.3069 133.74 31.3114 133.491 31.3339 133.243C31.3564 132.99 31.388 132.755 31.4601 132.485C31.5457 132.18 31.8657 132.002 32.1812 132.084C32.366 132.128 32.5057 132.259 32.5733 132.42L32.6003 132.485Z" fill="white"/>
<path d="M72.7155 157.922H72.6029C71.9899 157.922 71.5843 157.547 71.3229 156.972L68.0555 149.767C68.0014 149.605 67.9248 149.427 67.9248 149.231C67.9248 148.695 68.4251 148.194 69.038 148.194C69.6509 148.194 69.9664 148.534 70.1512 148.982L72.675 155.243L75.2348 148.948C75.4016 148.573 75.699 148.198 76.2939 148.198C76.9069 148.198 77.3891 148.647 77.3891 149.235C77.3891 149.431 77.317 149.645 77.2584 149.754L73.991 156.977C73.7386 157.525 73.3285 157.922 72.7155 157.922Z" fill="white"/>
<path d="M84.7405 157.957C81.9012 157.957 79.7109 155.97 79.7109 153.056V153.021C79.7109 150.32 81.6984 148.103 84.4972 148.103C87.6159 148.103 89.1527 150.568 89.1527 152.751C89.1527 153.361 88.6705 153.788 88.0936 153.788H81.9508C82.1942 155.326 83.3254 156.184 84.7721 156.184C85.7185 156.184 86.4621 155.861 87.0931 155.36C87.2598 155.234 87.4086 155.164 87.67 155.164C88.1702 155.164 88.5623 155.539 88.5623 156.04C88.5623 156.31 88.4316 156.541 88.2649 156.702C87.377 157.473 86.2638 157.957 84.7405 157.957ZM86.9669 152.359C86.8182 150.965 85.9664 149.871 84.4791 149.871C83.1046 149.871 82.1401 150.891 81.9373 152.359H86.9669Z" fill="white"/>
<path d="M92.1987 156.794C91.9553 156.667 91.7705 156.402 91.7705 156.044C91.7705 155.561 92.1581 155.169 92.6809 155.169C92.8657 155.169 93.0324 155.221 93.1631 155.295C94.1095 155.905 95.092 156.206 95.9844 156.206C96.9488 156.206 97.5077 155.814 97.5077 155.186V155.151C97.5077 154.419 96.4666 154.167 95.3174 153.827C93.8707 153.435 92.2572 152.86 92.2572 151.056V151.021C92.2572 149.235 93.7986 148.142 95.7455 148.142C96.7866 148.142 97.8772 148.429 98.8237 148.913C99.1391 149.074 99.36 149.362 99.36 149.736C99.36 150.237 98.9499 150.612 98.4316 150.612C98.2468 150.612 98.1341 150.577 97.9854 150.503C97.1877 150.111 96.372 149.858 95.6869 149.858C94.8171 149.858 94.3123 150.25 94.3123 150.786V150.821C94.3123 151.518 95.3715 151.806 96.5207 152.163C97.9493 152.594 99.5628 153.217 99.5628 154.916V154.951C99.5628 156.937 97.9674 157.918 95.9258 157.918C94.6864 157.922 93.3299 157.543 92.1987 156.794Z" fill="white"/>
<path d="M103.259 155.129V150.159H102.889C102.353 150.159 101.925 149.749 101.925 149.231C101.925 148.712 102.353 148.303 102.889 148.303H103.259V147.519C103.259 146.931 103.759 146.447 104.39 146.447C105.003 146.447 105.503 146.931 105.503 147.519V148.303H107.265C107.802 148.303 108.248 148.712 108.248 149.231C108.248 149.749 107.802 150.159 107.265 150.159H105.503V154.79C105.503 155.63 105.949 155.97 106.711 155.97C106.972 155.97 107.193 155.918 107.27 155.918C107.77 155.918 108.216 156.31 108.216 156.811C108.216 157.203 107.937 157.526 107.621 157.652C107.139 157.813 106.675 157.9 106.08 157.9C104.426 157.9 103.259 157.203 103.259 155.129Z" fill="white"/>
<path d="M110.885 155.025V154.99C110.885 152.952 112.534 151.95 114.927 151.95C116.023 151.95 116.802 152.111 117.564 152.342V152.111C117.564 150.769 116.712 150.054 115.135 150.054C114.283 150.054 113.575 150.198 112.962 150.429C112.832 150.464 112.719 150.481 112.611 150.481C112.093 150.481 111.664 150.089 111.664 149.588C111.664 149.196 111.944 148.856 112.277 148.73C113.206 148.39 114.152 148.177 115.432 148.177C116.897 148.177 117.992 148.552 118.677 149.231C119.403 149.911 119.736 150.913 119.736 152.146V156.794C119.736 157.382 119.254 157.831 118.641 157.831C117.992 157.831 117.546 157.399 117.546 156.92V156.563C116.879 157.334 115.856 157.94 114.355 157.94C112.516 157.94 110.885 156.92 110.885 155.025ZM117.6 154.346V153.701C117.023 153.487 116.266 153.326 115.374 153.326C113.927 153.326 113.075 153.914 113.075 154.899V154.934C113.075 155.844 113.909 156.363 114.986 156.363C116.469 156.363 117.6 155.544 117.6 154.346Z" fill="white"/>
<path d="M77.2549 141.611C77.2549 141.45 77.3856 141.324 77.5523 141.324H78.5844C79.3776 141.324 79.8688 141.755 79.8688 142.413V142.422C79.8688 143.153 79.2604 143.532 78.5168 143.532H77.8453V144.321C77.8453 144.478 77.7146 144.604 77.5523 144.604C77.3811 144.604 77.2549 144.478 77.2549 144.321V141.611ZM78.5393 143.018C78.99 143.018 79.2694 142.774 79.2694 142.435V142.426C79.2694 142.043 78.9855 141.842 78.5393 141.842H77.8498V143.014H78.5393V143.018Z" fill="white"/>
<path d="M81.2568 141.611C81.2568 141.45 81.3875 141.324 81.5543 141.324H82.7621C83.1858 141.324 83.5193 141.446 83.7401 141.65C83.9204 141.829 84.0195 142.069 84.0195 142.352V142.361C84.0195 142.883 83.704 143.197 83.2534 143.332L83.9023 144.121C83.9609 144.19 83.997 144.251 83.997 144.338C83.997 144.495 83.8573 144.604 83.713 144.604C83.5778 144.604 83.4922 144.543 83.4246 144.456L82.6044 143.445H81.8562V144.321C81.8562 144.478 81.7255 144.604 81.5633 144.604C81.392 144.604 81.2658 144.478 81.2658 144.321V141.611H81.2568ZM82.717 142.936C83.1407 142.936 83.4111 142.722 83.4111 142.391V142.382C83.4111 142.034 83.1497 141.842 82.7125 141.842H81.8472V142.936H82.717Z" fill="white"/>
<path d="M85.3711 142.962V142.953C85.3711 142.034 86.1057 141.267 87.1423 141.267C88.1788 141.267 88.9044 142.025 88.9044 142.945V142.953C88.9044 143.873 88.1698 144.639 87.1333 144.639C86.0967 144.639 85.3711 143.877 85.3711 142.962ZM88.2825 142.962V142.953C88.2825 142.322 87.8048 141.795 87.1333 141.795C86.4617 141.795 85.993 142.313 85.993 142.945V142.953C85.993 143.585 86.4708 144.108 87.1423 144.108C87.8138 144.108 88.2825 143.594 88.2825 142.962Z" fill="white"/>
<path d="M91.1444 143.315L89.9817 141.773C89.9411 141.716 89.9141 141.651 89.9141 141.572C89.9141 141.42 90.0448 141.298 90.2115 141.298C90.3422 141.298 90.4278 141.368 90.4999 141.472L91.4419 142.779L92.3973 141.468C92.4694 141.363 92.5551 141.293 92.6812 141.293C92.857 141.293 92.9697 141.42 92.9697 141.572C92.9697 141.651 92.9291 141.72 92.8886 141.777L91.7348 143.302V144.321C91.7348 144.478 91.6041 144.604 91.4374 144.604C91.2751 144.604 91.1444 144.478 91.1444 144.321V143.315Z" fill="white"/>
<path d="M94.3311 144.295V141.611C94.3311 141.45 94.4618 141.324 94.6285 141.324H96.5935C96.7377 141.324 96.8594 141.441 96.8594 141.581C96.8594 141.725 96.7377 141.838 96.5935 141.838H94.9214V142.687H96.3771C96.5214 142.687 96.643 142.805 96.643 142.949C96.643 143.088 96.5214 143.201 96.3771 143.201H94.9214V144.077H96.616C96.7602 144.077 96.8819 144.195 96.8819 144.334C96.8819 144.478 96.7602 144.591 96.616 144.591H94.624C94.4617 144.582 94.3311 144.456 94.3311 144.295Z" fill="white"/>
<path d="M98.1924 142.962V142.953C98.1924 142.025 98.9135 141.267 99.9365 141.267C100.459 141.267 100.802 141.416 101.095 141.633C101.158 141.681 101.212 141.76 101.212 141.86C101.212 142.017 101.081 142.139 100.919 142.139C100.838 142.139 100.779 142.113 100.739 142.082C100.509 141.899 100.257 141.79 99.932 141.79C99.2875 141.79 98.8143 142.304 98.8143 142.94V142.949C98.8143 143.585 99.283 144.103 99.932 144.103C100.288 144.103 100.531 143.99 100.779 143.79C100.824 143.751 100.887 143.724 100.96 143.724C101.108 143.724 101.239 143.846 101.239 143.99C101.239 144.077 101.194 144.147 101.144 144.195C100.824 144.465 100.464 144.631 99.9185 144.631C98.927 144.639 98.1924 143.899 98.1924 142.962Z" fill="white"/>
<path d="M103.511 141.851H102.691C102.538 141.851 102.416 141.729 102.416 141.585C102.416 141.441 102.538 141.319 102.691 141.319H104.935C105.084 141.319 105.206 141.441 105.206 141.585C105.206 141.729 105.084 141.851 104.935 141.851H104.111V144.321C104.111 144.477 103.975 144.604 103.813 144.604C103.651 144.604 103.516 144.477 103.516 144.321V141.851H103.511Z" fill="white"/>
<path d="M106.251 142.962V142.953C106.251 142.034 106.986 141.267 108.022 141.267C109.059 141.267 109.784 142.025 109.784 142.945V142.953C109.784 143.873 109.05 144.639 108.013 144.639C106.977 144.639 106.251 143.877 106.251 142.962ZM109.162 142.962V142.953C109.162 142.322 108.685 141.795 108.013 141.795C107.342 141.795 106.873 142.313 106.873 142.945V142.953C106.873 143.585 107.351 144.108 108.022 144.108C108.694 144.108 109.162 143.594 109.162 142.962Z" fill="white"/>
<path d="M47.0895 141.986C47.1391 142.108 47.1977 142.23 47.2427 142.352C47.2833 142.474 47.3284 142.596 47.3689 142.722L47.4771 143.11L47.4951 143.206L47.5041 143.263L47.5177 143.376L47.5357 143.598C47.5492 143.742 47.5627 143.89 47.5717 144.034C47.5807 144.177 47.5898 144.321 47.5943 144.465C47.5988 144.609 47.6033 144.752 47.6033 144.896C47.6078 145.184 47.5988 145.471 47.5943 145.754C47.5762 146.042 47.5672 146.325 47.5357 146.613C47.4275 147.75 47.2157 148.882 46.8597 149.98C46.7605 150.25 46.6749 150.525 46.5667 150.795C46.454 151.061 46.3459 151.331 46.2287 151.592C45.9853 152.115 45.7104 152.62 45.404 153.112C45.093 153.605 44.746 154.084 44.3178 154.528C44.1015 154.75 43.8671 154.964 43.5877 155.147C43.4525 155.243 43.2993 155.326 43.137 155.4C42.9748 155.474 42.799 155.53 42.6142 155.574C42.5602 155.591 42.5061 155.591 42.452 155.587L42.4114 155.583C42.3889 155.578 42.3528 155.569 42.3438 155.569L42.3033 155.561C42.2717 155.552 42.2492 155.548 42.2267 155.539C42.1771 155.526 42.132 155.508 42.0915 155.491C42.0013 155.456 41.9292 155.413 41.8481 155.365C41.776 155.317 41.7039 155.265 41.6408 155.208C41.5822 155.151 41.5146 155.095 41.465 155.034C41.2442 154.785 41.118 154.515 41.0278 154.249C40.8521 153.714 40.825 153.2 40.8295 152.703C40.8341 152.581 40.8431 152.459 40.8521 152.337L40.8656 152.154L40.8881 151.975C40.9197 151.736 40.9512 151.496 41.0008 151.257C41.1 150.777 41.2307 150.32 41.3839 149.871C42.0058 148.081 42.8982 146.417 44.0114 144.87C44.5702 144.099 45.2012 143.367 45.9042 142.683C46.6028 141.999 47.396 141.381 48.2838 140.862C49.1762 140.357 50.1722 139.947 51.2448 139.769C51.5152 139.712 51.7766 139.699 52.0425 139.673C52.1732 139.655 52.3084 139.655 52.4481 139.655C52.5833 139.651 52.7185 139.651 52.8537 139.651L53.2683 139.677C53.3359 139.682 53.4081 139.686 53.4757 139.695L53.6875 139.725C53.8272 139.747 53.9669 139.764 54.1066 139.795C54.2463 139.83 54.386 139.865 54.5257 139.904C55.0801 140.074 55.6254 140.318 56.1121 140.653C56.5944 140.993 57.0135 141.411 57.347 141.869L57.5859 142.217C57.658 142.335 57.7211 142.457 57.7887 142.579C57.8608 142.701 57.9104 142.823 57.9644 142.949C58.0185 143.071 58.0771 143.197 58.1177 143.324L58.2484 143.703L58.352 144.082C58.3881 144.208 58.4106 144.334 58.4376 144.461C58.4602 144.587 58.4917 144.713 58.5053 144.84C58.6495 145.85 58.6224 146.848 58.4872 147.811C58.352 148.773 58.1132 149.71 57.7977 150.616C57.4777 151.518 57.0766 152.389 56.6079 153.221L56.4321 153.531C56.3735 153.635 56.3104 153.731 56.2473 153.827L55.8778 154.419C55.6299 154.811 55.364 155.19 55.1116 155.578C54.8457 155.957 54.5708 156.332 54.2959 156.702L53.8723 157.251C53.7325 157.434 53.5928 157.617 53.4441 157.796C53.1512 158.153 52.8627 158.514 52.5563 158.859L52.1011 159.381L51.6369 159.895C50.3885 161.259 49.077 162.562 47.6619 163.773C46.9498 164.378 46.2197 164.958 45.404 165.472L45.084 165.655L44.9262 165.746L44.8451 165.79L44.8271 165.803L44.8 165.816L44.746 165.842C44.444 165.977 44.1421 165.925 44.0339 165.589C43.9392 165.28 44.2187 165.049 44.3358 164.997L44.3584 164.988L44.3674 164.984L44.3854 164.975L44.453 164.936L44.5927 164.853L44.8722 164.687C45.6113 164.217 46.2873 163.629 46.9498 163.028C47.112 162.875 47.2788 162.723 47.4365 162.566L47.9097 162.087C48.0675 161.93 48.2207 161.764 48.3739 161.599C48.5272 161.433 48.6804 161.272 48.8291 161.102C49.4195 160.427 50.0009 159.747 50.5462 159.037L50.9563 158.506L51.3575 157.966C51.6279 157.608 51.8757 157.242 52.1371 156.876C52.394 156.515 52.6374 156.14 52.8853 155.77C53.1286 155.4 53.3585 155.021 53.6018 154.646C53.8272 154.267 54.0615 153.892 54.2779 153.509L54.5978 152.934C54.6519 152.838 54.706 152.742 54.7556 152.646L54.8998 152.363C55.2829 151.605 55.6074 150.817 55.8552 150.015C56.0986 149.209 56.2699 148.39 56.351 147.575C56.4366 146.761 56.4096 145.946 56.2789 145.184C56.1437 144.426 55.8733 143.72 55.4677 143.175C55.2603 142.905 55.026 142.679 54.7601 142.487C54.4942 142.3 54.1877 142.165 53.8587 142.065C53.7731 142.043 53.692 142.021 53.6064 141.999C53.5207 141.977 53.4306 141.969 53.3404 141.951L53.2052 141.93C53.1602 141.925 53.1106 141.921 53.0655 141.916L52.7861 141.895H52.4977C52.403 141.895 52.3084 141.89 52.2047 141.903C52.0064 141.921 51.8081 141.93 51.6234 141.964C50.8617 142.065 50.1091 142.343 49.3925 142.722C49.0364 142.923 48.6849 143.132 48.3514 143.38C48.1802 143.498 48.0179 143.629 47.8512 143.755C47.6889 143.89 47.5267 144.021 47.3689 144.164C46.738 144.731 46.1476 145.354 45.6113 146.025C45.0659 146.691 44.5657 147.401 44.115 148.142C43.6643 148.882 43.2542 149.645 42.9162 150.429C42.7494 150.821 42.5962 151.217 42.479 151.609C42.4205 151.801 42.3754 152.006 42.3303 152.211L42.2943 152.363L42.2717 152.516L42.2222 152.816C42.1771 153.213 42.1681 153.605 42.2357 153.936C42.2717 154.097 42.3213 154.249 42.3934 154.354C42.4114 154.385 42.4295 154.402 42.4475 154.428C42.4655 154.45 42.4881 154.467 42.5061 154.489C42.5241 154.502 42.5466 154.524 42.5647 154.533C42.5737 154.541 42.5827 154.546 42.5872 154.546C42.5917 154.55 42.5917 154.55 42.5917 154.55C42.5962 154.55 42.5737 154.546 42.5692 154.546L42.3664 154.554C42.7314 154.467 43.119 154.158 43.4435 153.792C43.777 153.422 44.0654 152.986 44.3268 152.533C44.5882 152.08 44.8226 151.601 45.0254 151.117C45.1245 150.873 45.2102 150.625 45.3048 150.381C45.3904 150.133 45.4625 149.88 45.5392 149.632C45.8231 148.625 45.9763 147.58 46.0349 146.534C46.0529 146.273 46.0529 146.011 46.0574 145.75C46.0529 145.489 45.8772 143.476 45.8772 143.476" fill="white"/>
</svg>
