<svg width="29" height="28" viewBox="0 0 29 28" fill="none" xmlns="http://www.w3.org/2000/svg">
<path d="M18.1256 2.80005V7.00005C18.1256 7.77325 18.7748 8.40005 19.5756 8.40005H23.9256M10.1506 8.40005H13.0506M10.1506 12.6H18.8506M10.1506 16.8H18.8506M21.7506 4.90005C21.1053 4.34255 20.4356 3.68132 20.0129 3.25187C19.7316 2.96611 19.3429 2.80005 18.9345 2.80005H7.97531C6.37369 2.80005 5.07532 4.05364 5.07531 5.60003L5.0752 22.4C5.07518 23.9464 6.37355 25.2 7.97518 25.2L21.0252 25.2C22.6268 25.2 23.9252 23.9465 23.9252 22.4001L23.9256 7.55752C23.9256 7.19954 23.7842 6.85542 23.5269 6.5977C23.051 6.12114 22.2564 5.33699 21.7506 4.90005Z" stroke="#2B71FF" stroke-width="2" stroke-linecap="round" stroke-linejoin="round"/>
</svg>
