<svg width="28" height="28" viewBox="0 0 28 28" fill="none" xmlns="http://www.w3.org/2000/svg">
<path d="M22.8419 12.2315V8.51573C22.8419 7.96345 22.3942 7.51573 21.8419 7.51573H13.8245C13.5593 7.51573 13.305 7.41037 13.1174 7.22284L11.3453 5.45073C11.1578 5.26319 10.9034 5.15784 10.6382 5.15784H3.7998C3.24752 5.15784 2.7998 5.60555 2.7998 6.15784V21.842C2.7998 22.3943 3.24752 22.842 3.7998 22.842H5.33867C5.88984 22.842 6.33665 22.3952 6.33665 21.8441V21.8441C6.33665 21.7244 6.35817 21.6057 6.40019 21.4937L9.63016 12.8804C9.77652 12.4901 10.1496 12.2315 10.5665 12.2315H23.8124C24.4949 12.2315 24.9769 12.9002 24.7611 13.5477L21.8909 22.1583C21.7548 22.5666 21.3726 22.842 20.9422 22.842H5.1577" stroke="#004897" stroke-width="2" stroke-linecap="round" stroke-linejoin="round"/>
</svg>
