<svg width="26" height="26" viewBox="0 0 26 26" fill="none" xmlns="http://www.w3.org/2000/svg">
<path d="M12.6346 18.3566V17.3566C12.3694 17.3566 12.115 17.4619 11.9275 17.6495L12.6346 18.3566ZM6.79111 24.2H5.79111C5.79111 24.6045 6.03475 24.9691 6.40843 25.1239C6.7821 25.2787 7.21222 25.1932 7.49822 24.9072L6.79111 24.2ZM6.79111 18.3566H7.79111C7.79111 17.8043 7.34339 17.3566 6.79111 17.3566V18.3566ZM7.3998 6.40005C6.84752 6.40005 6.3998 6.84776 6.3998 7.40005C6.3998 7.95233 6.84752 8.40005 7.3998 8.40005V6.40005ZM17.1998 8.40005C17.7521 8.40005 18.1998 7.95233 18.1998 7.40005C18.1998 6.84776 17.7521 6.40005 17.1998 6.40005V8.40005ZM7.3998 12C6.84752 12 6.3998 12.4478 6.3998 13C6.3998 13.5523 6.84752 14 7.3998 14V12ZM12.9998 14C13.5521 14 13.9998 13.5523 13.9998 13C13.9998 12.4478 13.5521 12 12.9998 12V14ZM11.9275 17.6495L6.084 23.4929L7.49822 24.9072L13.3417 19.0637L11.9275 17.6495ZM7.79111 24.2V18.3566H5.79111V24.2H7.79111ZM6.79111 17.3566H4.59981V19.3566H6.79111V17.3566ZM2.7998 15.5566V4.60005H0.799805V15.5566H2.7998ZM4.5998 2.80005H21.3998V0.800049H4.5998V2.80005ZM23.1998 4.60005V15.5566H25.1998V4.60005H23.1998ZM21.3998 17.3566H12.6346V19.3566H21.3998V17.3566ZM23.1998 15.5566C23.1998 16.5507 22.3939 17.3566 21.3998 17.3566V19.3566C23.4985 19.3566 25.1998 17.6552 25.1998 15.5566H23.1998ZM21.3998 2.80005C22.3939 2.80005 23.1998 3.60594 23.1998 4.60005H25.1998C25.1998 2.50137 23.4985 0.800049 21.3998 0.800049V2.80005ZM2.7998 4.60005C2.7998 3.60594 3.60569 2.80005 4.5998 2.80005V0.800049C2.50112 0.800049 0.799805 2.50137 0.799805 4.60005H2.7998ZM4.59981 17.3566C3.60569 17.3566 2.7998 16.5507 2.7998 15.5566H0.799805C0.799805 17.6553 2.50112 19.3566 4.59981 19.3566V17.3566ZM7.3998 8.40005H17.1998V6.40005H7.3998V8.40005ZM7.3998 14H12.9998V12H7.3998V14Z" fill="#2B71FF"/>
</svg>
