<svg width="21" height="26" viewBox="0 0 21 26" fill="none" xmlns="http://www.w3.org/2000/svg">
<path d="M13.9999 1.80005V6.00005C13.9999 6.77325 14.6267 7.40005 15.3999 7.40005H19.5999M6.29985 7.40005H9.09985M6.29985 11.6H14.6999M6.29985 15.8H14.6999M17.4999 3.90005C16.8768 3.34255 16.2302 2.68132 15.822 2.25187C15.5504 1.96611 15.1751 1.80005 14.7809 1.80005H4.19952C2.65313 1.80005 1.39953 3.05364 1.39952 4.60003L1.39941 21.4C1.3994 22.9464 2.653 24.2 4.1994 24.2L16.7995 24.2C18.3458 24.2 19.5994 22.9465 19.5995 21.4001L19.5998 6.55752C19.5998 6.19954 19.4633 5.85542 19.2148 5.5977C18.7554 5.12114 17.9882 4.33699 17.4999 3.90005Z" stroke="#2B71FF" stroke-width="2" stroke-linecap="round" stroke-linejoin="round"/>
</svg>
