<svg width="26" height="20" viewBox="0 0 26 20" fill="none" xmlns="http://www.w3.org/2000/svg">
<path d="M22.6583 8.23152V4.51573C22.6583 3.96345 22.2106 3.51573 21.6583 3.51573H13.2938C13.0347 3.51573 12.7857 3.41513 12.5992 3.23513L10.7384 1.43844C10.552 1.25844 10.3029 1.15784 10.0438 1.15784H2.90039C2.34811 1.15784 1.90039 1.60555 1.90039 2.15784V17.842C1.90039 18.3943 2.34811 18.842 2.90039 18.842H4.57065C5.11901 18.842 5.56355 18.3975 5.56355 17.8491V17.8491C5.56355 17.7262 5.58639 17.6043 5.63091 17.4897L8.97893 8.86948C9.1283 8.48489 9.49852 8.23152 9.91109 8.23152H23.6972C24.3843 8.23152 24.8667 8.90842 24.6425 9.55786L21.6698 18.1684C21.5306 18.5715 21.1511 18.842 20.7246 18.842H4.3425" stroke="#2B71FF" stroke-width="2" stroke-linecap="round" stroke-linejoin="round"/>
</svg>
