<svg width="52" height="61" viewBox="0 0 52 61" fill="none" xmlns="http://www.w3.org/2000/svg">
<g clip-path="url(#clip0_668_366)">
<path d="M16.2617 9.95761C16.2617 4.46323 20.6478 0 26.0561 0C31.4643 0 35.858 4.45553 35.858 9.95761C35.858 15.4597 31.4719 19.9152 26.0561 19.9152C20.6402 19.9152 16.2617 15.4597 16.2617 9.95761ZM27.0858 2.51634C25.7509 3.75527 24.3779 4.0169 23.1879 5.40974C22.2573 6.70254 22.3336 6.81796 21.5479 7.20273C21.7615 8.14924 22.1734 8.79564 21.8302 10.1038C21.3572 11.9892 20.7012 11.6044 20.5563 12.2816C20.48 12.4893 20.5715 12.4893 20.7241 12.5278C20.8995 12.5817 21.6928 12.7818 22.2192 12.9511C23.6456 13.3358 24.683 14.3593 25.3543 15.1904C25.6213 15.5751 26.0255 15.6752 26.4298 15.6675C27.0019 15.729 27.0019 15.6675 27.574 15.7444C28.4894 16.1138 28.1232 16.1677 27.7418 17.1526C28.1843 17.1911 28.3902 17.3296 28.5046 17.5528C28.9471 16.2677 28.6038 14.5517 28.7182 13.6975C28.7716 11.7737 29.9234 12.22 30.9303 12.4432C30.6405 9.88836 29.9768 10.073 30.4727 7.64905C25.6975 7.91838 24.8432 5.76372 27.452 2.94727C27.6427 2.71641 27.4672 2.34704 27.0858 2.52403V2.51634ZM22.0819 2.16236C22.0285 2.07001 22.0056 1.95459 21.8683 2.03154C21.6776 2.12388 21.4869 2.27779 21.4869 2.43938C21.2809 2.49325 21.2581 2.70872 21.3496 2.80876C21.1589 2.84723 21.2886 3.13965 21.3877 3.2166C21.3267 3.50902 21.197 3.66292 21.2199 3.90917C21.2581 4.30932 21.5021 4.16311 21.5479 4.00151C21.7005 3.44746 21.8759 2.86262 21.792 2.7318C21.792 2.67024 21.792 2.60098 21.8454 2.55481C21.9217 2.35474 22.1734 2.247 22.0895 2.16236H22.0819ZM22.9515 2.17005L22.7379 2.07001C22.6463 2.17005 22.6006 2.27778 22.5701 2.36243C22.4328 2.32396 22.3794 2.36243 22.3412 2.4163C22.3183 2.47786 22.2802 2.59329 22.2878 2.70872C22.2268 2.77028 22.2726 2.92418 22.3031 3.03961C22.6463 3.00114 22.7836 2.84723 22.9362 2.64716C22.9133 2.54712 22.9362 2.50864 22.9515 2.47017C22.8904 2.30087 22.9286 2.23931 22.9515 2.17775V2.17005Z" fill="#4B86F8"/>
<path fill-rule="evenodd" clip-rule="evenodd" d="M23.6548 25.2017C23.6548 25.471 23.4489 25.6788 23.1972 25.6788C22.9454 25.6788 22.7242 25.471 22.7242 25.2017C22.7242 24.9478 22.9378 24.74 23.1972 24.74C23.4565 24.74 23.6548 24.9478 23.6548 25.2017ZM21.0003 22.4853C15.2946 18.7146 13.2732 17.114 12.6782 7.90286C12.6248 7.00252 12.312 7.36419 12.1976 7.42575C7.97933 10.7578 11.7399 17.9759 13.0367 20.4845C13.2274 20.7308 12.8689 21.2387 12.518 20.8462C9.84819 17.8451 9.54307 14.7747 8.6811 10.096C8.62771 9.74971 8.46752 9.41881 8.04798 9.9267C5.07306 15.4288 10.016 22.216 11.4424 23.4857C11.7094 23.932 11.2517 24.2321 11 24.0013C7.82677 21.154 7.62081 19.6535 6.15624 14.6593C6.02656 14.0975 5.64516 14.2745 5.546 14.6746C4.0738 20.777 7.99458 24.8477 10.1533 26.8408C10.4203 27.0563 10.2067 27.518 9.90921 27.3025C5.76721 24.6092 6.41559 23.4703 5.00441 21.154C4.85185 20.8077 4.63827 20.7693 4.58487 21.231C4.21873 27.5641 10.3898 32.5583 16.1336 32.5353C18.9179 32.5583 21.4809 30.6038 22.564 28.8954C23.2353 27.7027 23.2582 27.087 25.6534 27.1486C25.1042 22.6931 23.1133 23.5626 21.0003 22.493V22.4853Z" fill="#4B86F8"/>
<path fill-rule="evenodd" clip-rule="evenodd" d="M29.3981 25.2402C29.3981 25.4941 29.1845 25.7019 28.9251 25.7019C28.6658 25.7019 28.4522 25.4941 28.4522 25.2402C28.4522 24.9862 28.6658 24.7631 28.9251 24.7631C29.1845 24.7631 29.3981 24.9785 29.3981 25.2402ZM29.5583 28.9031C30.6414 30.6191 33.2044 32.566 35.9887 32.5429C41.7325 32.566 47.9036 27.5718 47.5222 21.2541C47.484 20.777 47.2705 20.8154 47.1026 21.1617C45.6915 23.4934 46.3551 24.6246 42.2131 27.3102C41.9232 27.5257 41.702 27.0793 41.969 26.8485C44.1277 24.8631 48.0561 20.7846 46.5839 14.6823C46.4848 14.2976 46.1034 14.1206 45.9737 14.6669C44.5168 19.6688 44.3108 21.1617 41.1376 24.0089C40.8858 24.2552 40.4129 23.9474 40.6799 23.5088C42.1139 22.2237 47.0569 15.4519 44.082 9.93439C43.6624 9.4265 43.4946 9.76509 43.4488 10.1037C42.5869 14.7978 42.2818 17.8605 39.612 20.8539C39.2534 21.2618 38.9026 20.7385 39.0933 20.5076C40.39 17.9836 44.1506 10.7809 39.9323 7.43344C39.8179 7.37958 39.4975 7.01021 39.4518 7.91055C38.8568 17.1371 36.8354 18.7377 31.1296 22.493C29.0167 23.5549 27.0258 22.6854 26.4766 27.1563C28.8641 27.0793 28.8794 27.695 29.5659 28.8877L29.5583 28.9031Z" fill="#4B86F8"/>
<path d="M51.9926 56.1519H0.0078125V56.5905H51.9926V56.1519Z" fill="#4B86F8"/>
<path d="M1.7016 43.478H0.0234375V35.8598C1.09136 35.8213 1.76262 35.8059 2.03723 35.8059C3.13566 35.8059 4.01288 36.1291 4.65363 36.7832C5.30201 37.4373 5.62238 38.2992 5.62238 39.3688C5.62238 42.1083 4.318 43.478 1.69397 43.478M1.36596 37.0448V42.2468C1.57955 42.2699 1.81602 42.2776 2.06774 42.2776C2.74663 42.2776 3.27296 42.0313 3.66199 41.5312C4.04339 41.031 4.23409 40.3384 4.23409 39.4457C4.23409 37.8144 3.48654 36.9987 1.98383 36.9987C1.8389 36.9987 1.63294 37.0141 1.36596 37.0371V37.0448Z" fill="#4B86F8"/>
<path d="M11.6641 41.0925H7.72046C7.74334 41.5388 7.8959 41.8851 8.17051 42.1314C8.45274 42.3776 8.82651 42.5007 9.29945 42.5007C9.8868 42.5007 10.3369 42.3468 10.642 42.039L11.1454 43.0317C10.6877 43.4011 10.0165 43.5857 9.10875 43.5857C8.26967 43.5857 7.59841 43.3395 7.11022 42.8393C6.62203 42.3391 6.37793 41.6466 6.37793 40.7539C6.37793 39.8613 6.64491 39.1687 7.1865 38.6223C7.72808 38.076 8.36884 37.8066 9.12401 37.8066C9.92494 37.8066 10.5657 38.0452 11.0539 38.53C11.5421 39.0148 11.7785 39.6227 11.7785 40.3691C11.7785 40.5307 11.7404 40.7693 11.6718 41.0925M7.76622 40.1152H10.4818C10.3903 39.2995 9.94783 38.8917 9.13926 38.8917C8.39935 38.8917 7.94167 39.2995 7.76622 40.1152Z" fill="#4B86F8"/>
<path d="M15.8818 36.814C15.5996 36.7216 15.386 36.6755 15.2335 36.6755C14.9894 36.6755 14.7834 36.7832 14.608 36.991C14.4402 37.2064 14.3562 37.4604 14.3562 37.7759C14.3562 37.822 14.3562 37.8682 14.3562 37.9144H15.5004V38.984H14.3791V43.4857H13.09V38.984H12.2891V37.9144H13.0976C13.1281 37.2295 13.3265 36.6832 13.7002 36.2599C14.074 35.8367 14.5546 35.6289 15.1496 35.6289C15.4547 35.6289 15.8284 35.6982 16.2709 35.829L15.8895 36.814H15.8818Z" fill="#4B86F8"/>
<path d="M21.6417 41.0925H17.698C17.7209 41.5388 17.8734 41.8851 18.148 42.1314C18.4227 42.3776 18.8041 42.5007 19.2694 42.5007C19.8567 42.5007 20.3068 42.3468 20.6119 42.039L21.1153 43.0317C20.6653 43.4011 19.9864 43.5857 19.0863 43.5857C18.2472 43.5857 17.5759 43.3395 17.0878 42.8393C16.5996 42.3391 16.3555 41.6466 16.3555 40.7539C16.3555 39.8613 16.6224 39.1687 17.164 38.6223C17.7056 38.076 18.3464 37.8066 19.1015 37.8066C19.9025 37.8066 20.5432 38.0452 21.0314 38.53C21.5196 39.0148 21.7561 39.6227 21.7561 40.3691C21.7561 40.5307 21.7179 40.7693 21.6493 41.0925M17.7438 40.1152H20.4593C20.3678 39.2995 19.9254 38.8917 19.1168 38.8917C18.3845 38.8917 17.9268 39.2995 17.7438 40.1152Z" fill="#4B86F8"/>
<path d="M26.34 43.4779V40.2536C26.34 39.7765 26.2484 39.4302 26.073 39.2147C25.8899 38.9993 25.6001 38.8839 25.1882 38.8839C24.9975 38.8839 24.7991 38.9377 24.5855 39.0455C24.372 39.1532 24.2041 39.284 24.0821 39.4456V43.4702H22.793V37.8989H23.7236L23.9601 38.4221C24.3109 38.0066 24.8296 37.7988 25.5162 37.7988C26.2027 37.7988 26.6909 37.9989 27.0723 38.3914C27.4537 38.7915 27.6444 39.3456 27.6444 40.0535V43.4702H26.3552L26.34 43.4779Z" fill="#4B86F8"/>
<path d="M28.6811 43.124L29.1388 42.0852C29.5278 42.393 29.9626 42.5469 30.4432 42.5469C30.9237 42.5469 31.1983 42.3699 31.1983 42.0082C31.1983 41.8005 31.122 41.6235 30.9695 41.485C30.8169 41.3464 30.5271 41.1925 30.0846 41.0079C29.1311 40.6077 28.6582 40.0536 28.6582 39.3303C28.6582 38.8455 28.8413 38.4761 29.2074 38.2068C29.5736 37.9375 30.0389 37.8066 30.6033 37.8066C31.1678 37.8066 31.717 37.9375 32.2205 38.1991L31.8467 39.2072C31.5645 38.9609 31.1754 38.8455 30.672 38.8455C30.2219 38.8455 29.9931 39.0225 29.9931 39.3842C29.9931 39.5304 30.0694 39.6535 30.2143 39.7689C30.3592 39.8843 30.6796 40.0383 31.1678 40.2306C31.656 40.423 31.9993 40.6539 32.2128 40.9309C32.4264 41.2079 32.5332 41.5388 32.5332 41.9236C32.5332 42.4392 32.3425 42.847 31.9611 43.1471C31.5797 43.4472 31.061 43.5934 30.4126 43.5934C30.0465 43.5934 29.749 43.5627 29.5278 43.5011C29.3066 43.4395 29.0243 43.3164 28.6735 43.1317" fill="#4B86F8"/>
<path d="M33.2127 40.6768C33.2127 39.8304 33.4568 39.1378 33.945 38.5991C34.4332 38.0682 35.0739 37.7988 35.8749 37.7988C36.714 37.7988 37.3623 38.0528 37.8276 38.5684C38.2929 39.0839 38.5218 39.7842 38.5218 40.6768C38.5218 41.5695 38.2853 42.2698 37.8124 42.793C37.3394 43.3163 36.6911 43.5779 35.8672 43.5779C35.0434 43.5779 34.3722 43.3163 33.9069 42.7853C33.4415 42.2544 33.2051 41.5541 33.2051 40.6768M34.5476 40.6768C34.5476 41.9081 34.9824 42.516 35.8596 42.516C36.2639 42.516 36.5843 42.3544 36.8131 42.0389C37.0496 41.7234 37.164 41.2617 37.164 40.6768C37.164 39.4687 36.7292 38.8608 35.852 38.8608C35.4477 38.8608 35.1273 39.0224 34.8909 39.3379C34.6544 39.6534 34.5323 40.0997 34.5323 40.6768H34.5476Z" fill="#4B86F8"/>
<path d="M42.7391 39.1147C42.5103 38.9608 42.2585 38.8839 41.9839 38.8839C41.6864 38.8839 41.4195 39.0224 41.183 39.2917C40.9541 39.5687 40.8321 39.8996 40.8321 40.2998V43.4779H39.543V37.9066H40.8321V38.4144C41.1906 38.0066 41.6712 37.7988 42.2738 37.7988C42.7162 37.7988 43.0518 37.8681 43.2883 37.9989L42.7391 39.1147Z" fill="#4B86F8"/>
<path d="M44.4321 43.478V38.9686H43.7227V37.899H45.7364V43.4703H44.4321V43.478ZM46.217 35.6289L45.0499 37.1526H44.0735L44.9431 35.6289H46.217Z" fill="#4B86F8"/>
<path d="M50.291 42.9238C50.1766 43.1162 49.9706 43.2778 49.6808 43.4009C49.3909 43.5241 49.0858 43.5856 48.773 43.5856C48.178 43.5856 47.7127 43.4317 47.3695 43.1316C47.0262 42.8315 46.8584 42.4083 46.8584 41.8542C46.8584 41.2078 47.0949 40.7076 47.5754 40.3382C48.056 39.9766 48.7349 39.7919 49.6197 39.7919C49.7723 39.7919 49.9477 39.815 50.1537 39.8688C50.1537 39.2148 49.7418 38.8839 48.918 38.8839C48.4298 38.8839 48.0255 38.9685 47.6975 39.1301L47.4152 38.122C47.8577 37.9066 48.384 37.7988 49.0019 37.7988C49.8409 37.7988 50.4588 37.9912 50.8555 38.376C51.2445 38.7607 51.4428 39.4918 51.4428 40.5768V41.7696C51.4428 42.516 51.5877 42.9777 51.8852 43.1701C51.7784 43.3548 51.6564 43.4702 51.5267 43.5164C51.3971 43.5625 51.2445 43.5779 51.0767 43.5779C50.8936 43.5779 50.7258 43.5087 50.5732 43.3702C50.4207 43.2317 50.3215 43.0777 50.2757 42.9162M50.1689 40.8538C49.9477 40.8077 49.7875 40.7846 49.6731 40.7846C48.651 40.7846 48.1475 41.1232 48.1475 41.7926C48.1475 42.2928 48.4374 42.5391 49.0095 42.5391C49.7799 42.5391 50.1689 42.1466 50.1689 41.3694V40.8461V40.8538Z" fill="#4B86F8"/>
<path d="M6.3246 58.422L6.1339 58.8145C6.02711 58.7067 5.85929 58.6529 5.63045 58.6529C5.40924 58.6529 5.22617 58.7452 5.08886 58.9299C4.94393 59.1146 4.87528 59.3531 4.87528 59.6378C4.87528 59.9226 4.94393 60.1534 5.07361 60.315C5.20328 60.4843 5.37873 60.569 5.59994 60.569C5.85166 60.569 6.04236 60.4766 6.18729 60.2996L6.4085 60.6844C6.2178 60.8922 5.93557 60.9922 5.56943 60.9922C5.20328 60.9922 4.91342 60.8691 4.70746 60.6228C4.50151 60.3766 4.40234 60.0457 4.40234 59.6148C4.40234 59.2223 4.51676 58.8914 4.7456 58.6221C4.97444 58.3604 5.26431 58.2219 5.61519 58.2219C5.92031 58.2219 6.16441 58.2835 6.34748 58.4066" fill="#4B86F8"/>
<path d="M10.2979 59.5917C10.2979 59.2146 10.4046 58.8914 10.6106 58.6298C10.8166 58.3681 11.0912 58.2373 11.4421 58.2373C11.8234 58.2373 12.1133 58.3527 12.3116 58.5913C12.51 58.8298 12.6168 59.1607 12.6168 59.5917C12.6168 60.0226 12.51 60.3612 12.304 60.6151C12.0904 60.8691 11.7929 60.9922 11.4115 60.9922C11.053 60.9922 10.786 60.8691 10.5953 60.6151C10.4046 60.3612 10.3131 60.0226 10.3131 59.584M10.786 59.5917C10.786 59.9072 10.8394 60.1457 10.9462 60.315C11.053 60.4843 11.2056 60.569 11.4039 60.569C11.6404 60.569 11.8158 60.4843 11.9379 60.315C12.0599 60.1457 12.1209 59.9072 12.1209 59.584C12.1209 58.9607 11.8921 58.6452 11.4344 58.6452C11.2285 58.6452 11.0607 58.7298 10.9539 58.8991C10.8394 59.0684 10.786 59.2992 10.786 59.584V59.5917Z" fill="#4B86F8"/>
<path d="M16.6748 60.9538V58.2759H17.1477V60.5306H18.3453V60.9538H16.6748Z" fill="#4B86F8"/>
<path d="M22.2432 59.5917C22.2432 59.2146 22.35 58.8914 22.5559 58.6298C22.7619 58.3681 23.0365 58.2373 23.3874 58.2373C23.7688 58.2373 24.0586 58.3527 24.257 58.5913C24.4629 58.8298 24.5621 59.1607 24.5621 59.5917C24.5621 60.0226 24.4553 60.3612 24.2493 60.6151C24.0357 60.8691 23.7383 60.9922 23.3569 60.9922C22.9983 60.9922 22.7314 60.8691 22.5407 60.6151C22.35 60.3612 22.2584 60.0226 22.2584 59.584M22.7314 59.5917C22.7314 59.9072 22.7848 60.1457 22.8915 60.315C22.9983 60.4843 23.1509 60.569 23.3492 60.569C23.5857 60.569 23.7611 60.4843 23.8908 60.315C24.0129 60.1457 24.0739 59.9072 24.0739 59.584C24.0739 58.9607 23.845 58.6452 23.3874 58.6452C23.1814 58.6452 23.0136 58.7298 22.9068 58.8991C22.7924 59.0684 22.739 59.2992 22.739 59.584L22.7314 59.5917Z" fill="#4B86F8"/>
<path d="M31.0917 60.9538H30.634L30.3594 59.5148L29.8255 60.9846H29.6577L29.1237 59.5148L28.8415 60.9538H28.3838L28.9177 58.2759H29.1695L29.7416 60.0766L30.306 58.2759H30.5501L31.0917 60.9538Z" fill="#4B86F8"/>
<path d="M35.8359 60.9538H35.0273V58.2836C35.3859 58.2682 35.6376 58.2605 35.7749 58.2605C36.0495 58.2605 36.2631 58.3221 36.4156 58.4375C36.5682 58.5529 36.6445 58.7222 36.6445 58.9454C36.6445 59.1685 36.5301 59.3224 36.3088 59.4456C36.6368 59.561 36.8047 59.7995 36.8047 60.1612C36.8047 60.4075 36.7131 60.5998 36.5301 60.7384C36.347 60.8846 36.1105 60.9538 35.8283 60.9538M35.5003 58.6607V59.2994C35.5689 59.2994 35.6452 59.2994 35.7291 59.2994C36.0342 59.2994 36.1868 59.1839 36.1868 58.9531C36.1868 58.7453 36.0495 58.6453 35.7673 58.6453C35.691 58.6453 35.6071 58.6453 35.5003 58.653V58.6607ZM35.5003 59.6687V60.5537C35.5918 60.5614 35.6757 60.5691 35.7291 60.5691C35.9427 60.5691 36.0876 60.5306 36.1868 60.4613C36.2783 60.3921 36.3317 60.269 36.3317 60.1074C36.3317 59.9534 36.286 59.8457 36.2021 59.7765C36.1105 59.7072 35.958 59.6687 35.7444 59.6687C35.6986 59.6687 35.6223 59.6687 35.5079 59.6687H35.5003Z" fill="#4B86F8"/>
<path d="M41.3665 58.2759H40.8936V60.9461H41.3665V58.2759Z" fill="#4B86F8"/>
<path d="M47.102 60.9538L46.9113 60.4152H46.0035L45.8205 60.9538H45.3018L46.3544 58.2451H46.5604L47.6283 60.9538H47.1096H47.102ZM46.4536 59.0608L46.1332 60.0458H46.7663L46.446 59.0608H46.4536Z" fill="#4B86F8"/>
<path d="M3.80637 54.3975V54.0589C3.69957 54.1744 3.5165 54.2821 3.26478 54.3668C3.01306 54.4514 2.74608 54.4976 2.4791 54.4976C1.70867 54.4976 1.10606 54.2513 0.663635 53.7588C0.221212 53.2663 0 52.5815 0 51.7042C0 50.827 0.251724 50.1113 0.762799 49.5572C1.26625 49.0032 1.907 48.7262 2.6698 48.7262C3.08934 48.7262 3.47074 48.8108 3.81399 48.9878V46.7562L5.10312 46.4407V54.3975H3.81399H3.80637ZM3.80637 50.1652C3.53176 49.942 3.2419 49.8343 2.9444 49.8343C2.4257 49.8343 2.02905 49.9959 1.75444 50.3114C1.47983 50.6269 1.3349 51.0809 1.3349 51.6734C1.3349 52.8277 1.89174 53.4125 2.9978 53.4125C3.11985 53.4125 3.27241 53.3741 3.45548 53.2971C3.63855 53.2202 3.75297 53.1509 3.80637 53.074V50.1652Z" fill="#4B86F8"/>
<path d="M11.3731 52.0121H7.42944C7.45232 52.4584 7.60488 52.797 7.87949 53.0432C8.1541 53.2895 8.5355 53.4126 9.00081 53.4126C9.58816 53.4126 10.0382 53.2587 10.3433 52.9509L10.8468 53.9436C10.3967 54.3129 9.71784 54.4976 8.81773 54.4976C7.97866 54.4976 7.30739 54.2514 6.8192 53.7512C6.33101 53.251 6.08691 52.5584 6.08691 51.6658C6.08691 50.7731 6.35389 50.0806 6.89548 49.5342C7.42944 48.9878 8.07782 48.7185 8.83299 48.7185C9.63393 48.7185 10.2747 48.9571 10.7629 49.4419C11.2511 49.9267 11.4875 50.5346 11.4875 51.281C11.4875 51.4426 11.4494 51.6812 11.3807 52.0044M7.47521 51.0348H10.1831C10.0916 50.2191 9.64918 49.8112 8.84062 49.8112C8.10833 49.8112 7.65065 50.2191 7.46758 51.0348H7.47521Z" fill="#4B86F8"/>
<path d="M12.7998 46.7562L14.0889 46.4407V52.6969C14.0889 53.3818 14.2949 53.7896 14.6992 53.9204C14.5008 54.3052 14.1576 54.4899 13.677 54.4899C13.0897 54.4899 12.7998 54.082 12.7998 53.2663V46.7485V46.7562Z" fill="#4B86F8"/>
<path d="M20.3513 51.5963V54.3974H19.0088V46.7868C19.9013 46.7483 20.4276 46.7329 20.5725 46.7329C21.7625 46.7329 22.6397 46.9176 23.1889 47.287C23.7381 47.6563 24.0127 48.2335 24.0127 49.0184C24.0127 50.7652 22.9906 51.6348 20.9539 51.6348C20.8014 51.6348 20.603 51.6194 20.3437 51.5963M20.3513 47.9565V50.3958C20.5802 50.4189 20.7556 50.4343 20.8853 50.4343C21.4955 50.4343 21.9456 50.3343 22.2278 50.1265C22.51 49.9187 22.6473 49.5878 22.6473 49.1184C22.6473 48.3258 22.0142 47.9334 20.7556 47.9334C20.6183 47.9334 20.481 47.9411 20.3513 47.9565Z" fill="#4B86F8"/>
<path d="M28.7498 54.4051V53.9357C28.5667 54.0896 28.315 54.2281 27.9946 54.3358C27.6742 54.4436 27.3844 54.5051 27.1098 54.5051C25.8283 54.5051 25.1875 53.8202 25.1875 52.4505V48.8337H26.4766V52.3505C26.4766 53.0661 26.797 53.4201 27.4301 53.4201C27.72 53.4201 27.9946 53.3431 28.2463 53.1892C28.498 53.0353 28.6659 52.8583 28.7498 52.6583V48.8337H30.0389V54.4051H28.7498Z" fill="#4B86F8"/>
<path d="M36.4171 52.0121H32.4734C32.4963 52.4584 32.6488 52.797 32.9234 53.0432C33.198 53.2895 33.5794 53.4126 34.0448 53.4126C34.6321 53.4126 35.0822 53.2587 35.3873 52.9509L35.8907 53.9436C35.433 54.3129 34.7618 54.4976 33.8617 54.4976C33.0226 54.4976 32.3513 54.2514 31.8631 53.7512C31.375 53.251 31.1309 52.5584 31.1309 51.6658C31.1309 50.7731 31.3978 50.0806 31.9394 49.5342C32.4734 48.9878 33.1218 48.7185 33.8769 48.7185C34.6779 48.7185 35.3186 48.9571 35.8068 49.4419C36.295 49.9267 36.5315 50.5346 36.5315 51.281C36.5315 51.4426 36.4933 51.6812 36.4247 52.0044M32.5268 51.0348H35.2347C35.1432 50.2191 34.7008 49.8112 33.8922 49.8112C33.1599 49.8112 32.7022 50.2191 32.5192 51.0348H32.5268Z" fill="#4B86F8"/>
<path d="M38.536 54.0896L38.2461 54.4975H37.5215V46.7484L38.8106 46.4329V49.0338C39.1539 48.8261 39.5276 48.7183 39.9319 48.7183C40.7405 48.7183 41.3889 48.9723 41.8847 49.4879C42.3805 50.0034 42.6246 50.6575 42.6246 51.4655C42.6246 52.3967 42.3729 53.1354 41.8771 53.6741C41.3812 54.2127 40.7024 54.4898 39.848 54.4898C39.3369 54.4898 38.8945 54.3512 38.5284 54.0819M38.803 50.1573V53.0661C38.9937 53.2893 39.2454 53.4047 39.5734 53.4047C40.1989 53.4047 40.6337 53.2585 40.8931 52.9584C41.1524 52.6583 41.2821 52.1812 41.2821 51.5271C41.2821 50.3959 40.7481 49.8341 39.6726 49.8341C39.2912 49.8341 39.0013 49.9419 38.803 50.165V50.1573Z" fill="#4B86F8"/>
<path d="M44.0449 46.7562L45.3341 46.4407V52.6969C45.3341 53.3818 45.54 53.7896 45.9443 53.9204C45.746 54.3052 45.4027 54.4899 44.9221 54.4899C44.3348 54.4899 44.0449 54.082 44.0449 53.2663V46.7485V46.7562Z" fill="#4B86F8"/>
<path d="M46.6377 51.6041C46.6377 50.7576 46.8818 50.065 47.37 49.5264C47.8582 48.9954 48.4989 48.7261 49.2922 48.7261C50.1313 48.7261 50.7797 48.98 51.245 49.4956C51.7103 50.0112 51.9391 50.7114 51.9391 51.6041C51.9391 52.4967 51.7027 53.197 51.2297 53.7203C50.7568 54.2435 50.1084 54.5052 49.2922 54.5052C48.476 54.5052 47.8048 54.2435 47.3395 53.7126C46.8742 53.1816 46.6453 52.4813 46.6453 51.6041M47.9802 51.6041C47.9802 52.8276 48.415 53.4432 49.2922 53.4432C49.6965 53.4432 50.0093 53.2816 50.2457 52.9661C50.4822 52.6506 50.5966 52.1966 50.5966 51.6041C50.5966 50.3959 50.1618 49.788 49.2846 49.788C48.8803 49.788 48.5599 49.9496 48.3235 50.2651C48.087 50.5806 47.965 51.0269 47.965 51.6041H47.9802Z" fill="#4B86F8"/>
</g>
<defs>
<clipPath id="clip0_668_366">
<rect width="52" height="61" fill="white"/>
</clipPath>
</defs>
</svg>
