<svg width="60" height="55" viewBox="0 0 60 55" fill="none" xmlns="http://www.w3.org/2000/svg">
<path fill-rule="evenodd" clip-rule="evenodd" d="M29.5891 54.3421C17.758 47.7593 -0.734441 30.6644 0.0225263 15.4816C0.804726 -0.205835 20.8882 -6.88397 29.5891 9.46092C38.2914 -6.88397 58.3749 -0.205835 59.1571 15.4816C59.9141 30.6644 41.423 47.7607 29.5905 54.3421H29.5891Z" fill="url(#paint0_radial_664_7308)"/>
<mask id="mask0_664_7308" style="mask-type:luminance" maskUnits="userSpaceOnUse" x="0" y="0" width="60" height="55">
<path d="M29.5905 54.3421C17.758 47.7593 -0.734441 30.6644 0.0225263 15.4816C0.806128 -0.205835 20.8882 -6.88397 29.5905 9.46092C38.2914 -6.88397 58.3749 -0.205835 59.1571 15.4816C59.9141 30.6644 41.423 47.7607 29.5905 54.3421Z" fill="white"/>
</mask>
<g mask="url(#mask0_664_7308)">
<path d="M28.6076 37.2865C28.4716 37.1911 28.2964 37.1813 28.131 37.1715C27.9655 37.1617 27.7875 37.1449 27.6599 37.0398C27.9571 36.9837 28.2487 36.8982 28.5305 36.7846C28.6552 36.7356 28.8024 36.6388 28.7758 36.5057C28.7519 36.3935 28.6216 36.3487 28.5094 36.329C28.1576 36.2688 27.7959 36.2814 27.4497 36.3655C27.6824 36.2043 27.9081 36.0319 28.1253 35.8496C28.2207 35.7697 28.3244 35.6548 28.2809 35.5384C28.2347 35.4123 28.0623 35.4025 27.9291 35.4207C27.4553 35.488 26.9955 35.6534 26.5862 35.9029C26.6507 35.6015 26.6521 35.2875 26.5904 34.9875C26.5651 34.8642 26.4923 34.7156 26.3675 34.7268C26.2694 34.7338 26.2119 34.8389 26.1755 34.9286C25.9918 35.3772 25.8699 35.8496 25.8068 36.329L25.0106 36.3038C25.3414 36.2491 25.6344 36.0697 25.8068 35.7809C25.9624 35.5202 25.9918 35.216 25.9161 34.9272C26.2105 34.553 26.5287 34.1717 26.7628 33.8759C26.8035 33.8395 26.8455 33.8044 26.8848 33.7666C26.8974 33.754 26.91 33.7399 26.9226 33.7273C26.9871 33.6712 27.0516 33.6152 27.1118 33.5563C27.8422 32.8386 28.4057 31.8433 28.48 30.9812C28.48 30.9798 28.48 30.9784 28.48 30.9756C28.48 30.977 28.48 30.9784 28.4814 30.9812C28.5375 30.3574 28.3398 29.8037 27.7679 29.4715C28.0539 28.0725 27.039 26.5151 25.8208 25.803C24.604 25.0923 23.0509 25.039 21.7374 25.6123C21.2818 25.8114 20.8543 26.1086 20.4688 26.4618C20.4323 26.4955 20.3987 26.5305 20.3622 26.5656C20.323 26.5992 20.2837 26.6328 20.2459 26.6693C19.9445 26.9454 19.6781 27.2651 19.4483 27.6015C19.3165 27.7431 19.1875 27.8776 19.0614 28.0052C18.6899 27.8398 18.2722 27.8496 17.9399 28.0725C17.5404 28.3416 17.3778 28.8435 17.4843 29.3383C17.4577 29.3551 17.4325 29.3734 17.4072 29.3902C17.0876 29.599 16.7694 29.8233 16.5578 30.1429C16.3461 30.4625 16.262 30.8971 16.4386 31.2616C16.5536 31.0373 16.7694 30.8733 17.0189 30.8242C16.4807 31.3232 16.8045 32.2723 17.375 33.1974C17.3344 33.2073 17.2951 33.2185 17.2545 33.2325L16.6937 33.1414L15.2807 32.9115L10.6142 32.1503C10.5693 32.1223 10.5245 32.0928 10.4768 32.062L10.5427 31.7606L10.7628 31.8545L11.2085 30.9532L10.9898 30.8733L12.536 24.6661C12.536 24.6661 12.4926 23.4143 12.2823 22.7162L12.3552 22.6265L11.9234 21.9523L11.88 22.0027C11.8548 21.9228 11.8239 21.8457 11.7847 21.7714C11.8127 21.7462 11.8393 21.7224 11.8632 21.6985C12.6271 22.0378 13.3645 22.2298 14.0373 22.199C13.9434 22.8522 14.1214 23.5699 14.5518 24.1461C14.9121 24.6283 15.4181 24.9984 15.8022 25.4638C16.1863 25.9291 16.4428 26.574 16.1779 27.0478C17.0091 26.7436 17.4843 25.8198 17.2601 24.9451C17.5488 25.0362 17.7955 25.2829 17.8754 25.5619C18.0296 25.0194 17.6554 24.4026 17.1844 23.9877C16.7148 23.5727 16.1414 23.2784 15.6774 22.8564C15.3999 22.6041 15.1602 22.2803 15.0508 21.9453C15.0719 21.9354 15.0929 21.9242 15.1139 21.913C15.2667 22.0294 15.4475 22.1191 15.6508 22.1681C16.3475 22.3364 17.0316 21.9789 17.1788 21.3691C17.2699 20.992 17.1339 20.608 16.8535 20.329C17.1101 20.0556 17.3428 19.7487 17.5432 19.4206C17.5432 19.4192 17.5446 19.4178 17.546 19.415C17.546 19.4164 17.5446 19.4192 17.5432 19.4206C18.4586 17.9263 18.7207 16.0213 17.6974 15.2391C17.5516 15.1269 17.3792 15.0386 17.1802 14.977C16.8563 14.2634 16.3966 13.6999 15.8569 13.2892C14.828 12.507 13.5103 12.2869 12.2823 12.6528C12.0594 12.7187 11.8393 12.807 11.6249 12.9121L11.7104 12.4607L11.9333 12.4285L12.0608 11.5089L11.5029 11.5692L11.5365 10.9258C11.5478 10.9202 11.559 10.9132 11.5674 10.9076C12.0132 10.6006 12.4169 10.2291 12.7603 9.81135C12.8248 9.73285 12.8907 9.62912 12.85 9.5366C12.7982 9.41745 12.6271 9.42446 12.5038 9.46231C12.1996 9.55342 11.915 9.70902 11.6725 9.91509C11.6978 9.42025 11.6235 8.92121 11.4524 8.45722C11.4048 8.32686 11.3109 8.17546 11.1721 8.19509C11.0445 8.21331 10.9898 8.3647 10.9646 8.48946C10.9057 8.77683 10.8595 9.067 10.8272 9.35857C10.7333 9.00252 10.5665 8.66609 10.3394 8.37592C10.2679 8.2834 10.1614 8.18668 10.0478 8.22032C9.91467 8.26097 9.89785 8.4418 9.91467 8.57918C9.95112 8.89038 10.0156 9.19737 10.1095 9.49595C9.95112 9.43147 9.84879 9.27867 9.75907 9.13148C9.66936 8.9857 9.57404 8.8301 9.42124 8.7544C9.26845 8.6773 9.03996 8.72496 8.99089 8.88897C8.95725 8.99691 9.00912 9.10905 9.06098 9.20998C9.19555 9.47492 9.33013 9.73706 9.4661 10.0006C9.30209 9.95153 9.20396 9.79173 9.08762 9.66416C8.97267 9.538 8.78202 9.43287 8.63764 9.52539C8.54092 9.58707 8.50868 9.72164 8.53251 9.83518C8.55774 9.94873 8.62502 10.0469 8.69091 10.1422C8.85912 10.3819 9.74506 11.2958 9.74506 11.2958C9.74506 11.2958 9.74646 11.2958 9.75066 11.2958L9.68338 11.7654L8.79464 11.8608L8.72315 12.9009L8.81567 12.8869L8.16804 16.3101C8.04889 16.3731 7.93955 16.4586 7.85124 16.568C7.81339 16.6156 7.78115 16.6647 7.75311 16.7166C7.70405 16.6843 7.65639 16.6521 7.60732 16.6199C7.11389 16.2834 6.61486 15.9176 6.03031 15.8054C5.44436 15.6947 4.74206 15.9274 4.53179 16.4853C4.6944 16.3227 4.97896 16.2974 5.1654 16.432C4.66777 16.6283 4.27106 17.0628 4.12387 17.5773C3.97668 18.0917 4.08322 18.6707 4.40143 19.0996C4.52899 18.5403 5.12896 18.2025 5.70089 18.1534C6.27282 18.1044 6.83774 18.2698 7.40406 18.3553C7.52462 18.3735 7.64797 18.3875 7.77133 18.3945L7.26949 21.0439L6.16488 21.7182L5.96863 21.721L5.2383 22.2466L4.64814 22.2214L2.31416 19.4893C2.31416 19.4893 2.20482 19.5538 2.09828 19.708C2.08286 19.7304 2.06744 19.7543 2.05203 19.7809C1.89362 20.0542 1.77727 20.5379 2.07866 21.3187L2.09128 21.3341L2.08427 21.3271C2.08427 21.3271 -1.34452 22.6448 -1.03752 24.2526C-0.907156 24.9297 0.0460615 25.2297 0.804431 25.3628C0.922181 25.3839 1.03292 25.3993 1.13666 25.4119L1.11563 25.6418L2.07025 25.8689L2.07866 25.7693L3.2842 26.1296L2.40948 26.5333L2.35341 26.4492L1.52495 26.8866L1.72541 27.1908L1.45767 27.3085L1.27403 27.3898L-2.54445 29.0776L-3.18226 28.7201L-3.45842 28.5659L-4.80273 32.4783C-4.80273 32.4783 -4.65695 32.5582 -4.41864 32.5568C-4.10464 32.5554 -3.62663 32.411 -3.10517 31.755L-3.06311 31.6457L-3.07853 31.7242L3.31924 29.7911L3.35709 29.7799L3.43139 29.7574L3.78464 30.2901L4.56684 29.7995L4.49815 29.6958L6.71719 28.8449C7.36762 28.5954 7.94796 28.1916 8.40775 27.6688L8.49886 27.565L8.50727 27.5777L8.80025 27.2566C8.85211 27.2034 8.96286 27.0884 9.11425 26.9202L8.82548 30.0841L8.46101 29.9509L8.44139 30.8621L8.85632 31.0401L8.81847 31.3499C8.80445 31.3499 8.79184 31.3471 8.77782 31.3471C8.64325 31.3443 8.50027 31.3513 8.38532 31.4312C8.27037 31.5111 8.19467 31.6835 8.25355 31.8209C8.07692 31.748 7.85824 31.8321 7.75872 32.0129C7.65779 32.1938 7.68723 32.4517 7.8218 32.6003C7.62975 32.6255 7.46154 32.7979 7.42089 33.0124C7.38023 33.2269 7.46995 33.4638 7.63396 33.5773C7.47556 33.6993 7.46995 33.988 7.5891 34.1577C7.70825 34.3287 7.91432 34.3946 8.10776 34.3904C8.12318 34.3904 8.1372 34.3876 8.15262 34.3862C8.20449 34.4591 8.27037 34.5053 8.34467 34.5067C8.39093 34.5067 8.43578 34.4913 8.47784 34.4619C8.51849 34.6665 8.62783 34.8123 8.7638 34.8151C8.84651 34.8165 8.9222 34.7646 8.98388 34.6791C9.03575 34.8291 9.13107 34.9301 9.24181 34.9315C9.35956 34.9343 9.4661 34.8277 9.53058 34.6679C9.58525 34.7702 9.66375 34.8347 9.75347 34.8375C9.9343 34.8417 10.0913 34.5908 10.1053 34.2768C10.1067 34.2362 10.1053 34.1969 10.1039 34.1591C10.1151 34.1549 10.1263 34.1493 10.1376 34.1451L13.5075 35.394L13.806 35.5048H13.8088L14.092 35.6113C14.0864 35.6422 14.0808 35.6744 14.078 35.7066C13.0743 36.0417 11.6613 37.0383 10.4403 38.0084C10.2707 38.143 10.1067 38.2761 9.94551 38.4079C9.9385 38.4135 9.9329 38.4177 9.92729 38.4233C9.83337 38.5018 9.73945 38.5803 9.64833 38.6574C9.53198 38.7541 9.41844 38.8481 9.3105 38.942C9.21658 39.0233 9.12687 39.1018 9.03855 39.1775C8.96005 39.2448 8.88716 39.3092 8.81567 39.3737C8.604 39.5616 8.42176 39.727 8.27878 39.8588L9.14789 40.6185L8.26617 41.6783L6.53776 43.7557C6.20413 43.5595 5.90134 43.4585 5.64061 43.4193C5.29437 43.3674 5.02382 43.4193 4.8528 43.4964C4.60609 43.6057 4.49395 43.7557 4.49395 43.7557L7.70405 47.1621L7.91712 46.8733L8.4484 45.9762L8.56615 45.7771L10.9352 43.488L11.6473 42.7997L11.9655 43.0773L11.6249 43.9548L10.3072 47.3597H10.3086L10.1768 47.5504L9.58245 48.4069L9.40863 48.7209L13.8411 50.2208C13.8411 50.2208 13.9308 50.0554 13.9266 49.7862C13.9252 49.597 13.8593 49.3293 13.6687 49.0363C13.5243 48.8176 13.307 48.5835 12.9902 48.362L14.3429 45.7995L14.5756 45.358L15.3018 45.9916C15.4055 45.843 15.519 45.6706 15.6382 45.4771C15.7069 45.3664 15.7784 45.2514 15.8513 45.1295C15.8947 45.0566 15.9382 44.9837 15.9802 44.908C16.0685 44.7538 16.1597 44.594 16.2508 44.4272C16.2774 44.3767 16.3054 44.3263 16.3335 44.2744C16.3489 44.2478 16.3629 44.2211 16.3769 44.1945C16.4022 44.1496 16.4274 44.1006 16.4526 44.0543C16.5311 43.9057 16.6124 43.7543 16.6895 43.6015C17.34 42.3469 17.9652 40.962 18.2665 40.0129C18.6885 39.9401 19.0614 39.6975 19.2955 39.3373L19.5842 38.7625L20.044 38.7219L26.2525 38.1808C26.2525 38.1808 27.4777 38.5102 27.7595 38.5439C27.8702 38.5579 27.9852 38.5691 28.0931 38.5383C28.201 38.5074 28.3006 38.4177 28.309 38.307C28.3216 38.1416 28.145 38.028 27.9852 37.9888C27.824 37.9495 27.6431 37.9383 27.5254 37.8219C27.8113 37.8163 28.0973 37.8107 28.3847 37.8037C28.494 37.8009 28.6132 37.7939 28.6903 37.7168C28.8066 37.5991 28.7421 37.3832 28.6076 37.2893V37.2865Z" fill="#ACC8FF"/>
<path d="M59.9466 24.9551C60.0602 24.0341 59.449 23.1846 58.5378 22.9982L57.1655 22.715L56.9272 22.666L56.9482 22.3898L53.0512 21.6861L52.9096 21.6609L52.9166 21.6525C52.9166 21.6525 52.7989 21.6188 52.5942 21.5375C52.5087 21.5053 52.4106 21.4646 52.2985 21.4142C52.1653 21.3581 52.0167 21.2866 51.8527 21.2053C51.7868 21.1731 51.7181 21.1366 51.6466 21.1002C51.4672 21.0049 51.2765 20.8955 51.0747 20.7722C50.9569 20.6993 50.835 20.6208 50.7102 20.5367C50.5939 20.4582 50.4747 20.3741 50.3542 20.2843C50.2813 20.2311 50.2084 20.1736 50.1341 20.1161L50.6654 16.3803L50.3163 16.2668C50.5112 15.8252 50.4705 15.3248 50.1635 14.9772C49.9631 14.7501 49.6855 14.6281 49.3869 14.6071L48.4309 8.09716C48.4309 8.09716 48.4337 8.09716 48.4351 8.09716C48.8332 7.36262 49.0813 6.53697 49.1528 5.69589C49.1697 5.50805 49.1598 5.28236 48.9692 5.20106C48.8823 5.16461 48.7814 5.17723 48.6987 5.22209C48.5234 5.31741 48.4477 5.50104 48.386 5.67767C48.337 5.82065 48.2907 5.96924 48.1954 6.08699C48.2262 5.61599 48.2571 5.17863 48.2403 4.73847C48.2375 4.64175 48.1926 4.54642 48.1113 4.49316C47.9669 4.39924 47.8281 4.50016 47.7286 4.6039C47.4468 4.89547 47.259 5.27536 47.1945 5.67487C47.1469 5.30199 47.1357 4.97818 47.0866 4.65997C47.0572 4.47213 46.9716 4.24504 46.7544 4.27167C46.645 4.28429 46.5539 4.36139 46.509 4.45951C46.3338 4.85201 46.2147 5.26975 46.1614 5.69449C46.0324 5.32302 45.9119 5.00481 45.7605 4.70342C45.6988 4.58007 45.6007 4.43989 45.4619 4.4483C45.3666 4.45391 45.2881 4.53381 45.2558 4.62492C45.2236 4.71464 45.2278 4.81417 45.2348 4.90809C45.2713 5.40432 45.3666 5.89495 45.5166 6.37015C45.204 6.23698 44.9194 6.1725 44.6306 6.15148C44.5395 6.14587 44.4372 6.14727 44.3713 6.20895C44.3012 6.27483 44.297 6.38698 44.3363 6.47389C44.3741 6.5608 44.447 6.62668 44.5185 6.68836C45.0232 7.12993 45.5699 7.52523 46.1474 7.86587C46.2609 7.93175 46.3745 7.98221 46.488 8.02147L46.5357 10.6793C46.2385 10.5839 45.9259 10.5237 45.6582 10.3625C45.4633 10.2461 45.2881 10.0779 45.089 9.97977C45.0007 9.93631 44.9096 9.90687 44.8101 9.90127C44.3755 9.87744 44.0671 10.3232 43.6564 10.4676C43.1602 10.6442 42.5784 10.3625 42.0962 10.5755C41.6126 10.79 41.4542 11.3914 41.0939 11.7783C40.6454 12.2605 39.9038 12.3866 39.4721 12.8829C39.3263 13.0497 39.2281 13.2445 39.1609 13.4534C39.0487 13.7996 39.0207 14.1865 39.0011 14.5552C38.9828 14.9029 38.966 15.2659 39.1076 15.5855C39.1833 15.7551 39.3207 15.9079 39.4819 15.9977C39.4819 15.9963 39.4819 15.9949 39.4805 15.9935C39.4805 15.9935 39.4819 15.9935 39.4833 15.9949C39.6235 16.0734 39.7833 16.1056 39.9389 16.0621C40.0244 16.8401 40.2234 17.5887 40.5206 18.291C39.8561 18.4732 39.4146 19.062 39.5141 19.6718C39.622 20.3306 40.3215 20.7637 41.0743 20.6404C41.3869 20.5885 41.6589 20.4483 41.8635 20.2563C42.5574 20.7834 43.4265 20.8927 44.3867 20.7203L43.7952 23.6711L44.2704 23.758L44.2564 24.0271L42.6822 24.4196C42.6906 24.264 42.6864 24.1098 42.6681 23.9626C42.6541 23.8505 42.6023 23.7383 42.528 23.6458C42.5027 23.2786 42.4565 23.0403 42.1831 22.8314C41.8565 22.5819 41.4121 22.8076 41.314 23.0347C41.2649 23.0136 41.2145 22.994 41.164 22.973C41.0995 22.9015 41.0028 22.8454 40.8949 22.8258C40.7211 22.7164 40.4603 22.6562 40.1758 22.6758C39.6837 22.7094 39.3052 22.9646 39.3305 23.2477C39.3375 23.3206 39.3697 23.3879 39.4244 23.4482C39.1118 23.5477 38.9043 23.744 38.9226 23.9556C38.9338 24.0846 39.0277 24.1953 39.1721 24.2766C38.9478 24.3846 38.809 24.5486 38.8244 24.7238C38.8385 24.8878 38.987 25.0238 39.2029 25.1037C39.2155 25.1233 39.2281 25.1443 39.2422 25.1626C39.1188 25.2607 39.0501 25.3812 39.0613 25.506C39.081 25.7177 39.3221 25.8845 39.6487 25.9406C39.723 26.0667 39.8337 26.1747 39.9613 26.2335C40.0047 26.2546 40.051 26.2728 40.0973 26.291C40.1561 27.9213 40.0594 29.6357 39.9823 30.659C39.8772 30.3099 39.6417 30.0128 39.2688 29.8375C39.751 28.9222 38.6857 27.7881 37.7072 28.1232C37.6511 27.5975 37.2544 27.2232 36.7848 27.0788C36.3461 26.9456 35.8428 27.0115 35.4924 27.3382C35.4419 27.3844 35.3956 27.4363 35.3522 27.4937C34.8013 26.9078 33.9784 27.0424 33.4317 27.5204C33.1836 27.7363 32.993 28.0236 32.9103 28.346C32.4365 28.2535 31.887 28.4105 31.5393 28.7484C31.2674 29.0105 31.1188 29.3834 31.2211 29.8333C30.9982 29.8432 30.8188 29.9202 30.6828 30.0436C30.1922 30.481 30.2399 31.4945 30.7207 32.0089C30.3394 32.3846 30.4235 32.9804 30.7487 33.4093C30.795 33.471 30.8468 33.5285 30.9015 33.5817C31.0094 33.6841 31.1328 33.771 31.2674 33.8312C31.1398 34.1985 31.3206 34.5798 31.6094 34.8433C31.3613 35.1531 31.2702 35.5484 31.4047 35.9073C31.622 36.4904 32.3453 36.7582 33.021 36.5073C33.2032 36.44 33.3616 36.3405 33.4948 36.2213C34.1452 36.5844 34.9162 36.6362 35.7279 36.426C35.6928 36.454 35.6592 36.4834 35.6255 36.5129C34.5602 37.1465 32.3776 40.2641 32.3776 40.2641L32.5949 40.536L32.379 40.8136L29.8586 44.0657C29.3147 44.3629 28.597 44.7708 28.3054 45.2811C28.2381 45.3988 28.1764 45.5264 28.1918 45.6666C28.2073 45.8054 28.3222 45.9539 28.4708 45.9694C28.3222 46.0899 28.2914 46.3212 28.4035 46.4964C28.5143 46.6703 28.7554 46.7698 28.9502 46.7207C28.8815 46.9016 28.953 47.1314 29.1212 47.2702C29.2894 47.409 29.5404 47.4426 29.7198 47.3515C29.752 47.5492 30.0016 47.6922 30.209 47.6683C30.4165 47.6445 30.5721 47.4959 30.6604 47.3235C30.7487 47.1525 30.7795 46.9562 30.8258 46.7684C30.8973 46.4796 31.0122 46.1936 31.2435 46.003C31.4019 45.8726 31.4286 45.3386 31.43 45.0133L33.7976 43.0929L34.2896 42.6625L34.5728 43.0172L36.0713 41.7261C36.1148 41.9084 36.1554 42.085 36.1947 42.2518C36.2507 42.4915 36.3026 42.713 36.3475 42.9064C36.4764 43.4588 36.5563 43.8092 36.5563 43.8092L36.583 43.7994L36.5661 44.6573L36.5241 46.816L36.29 46.7838L36.4021 47.8534L36.9082 47.8842L37.0624 53.1185C36.0643 53.6456 35.7741 54.3282 35.7433 54.7123C35.7209 55.0053 35.8064 55.1889 35.8064 55.1889L40.7197 53.8741L40.5528 53.5208L39.8898 52.4218L40.0874 48.8963L40.1337 48.0791L40.7939 48.1197L40.815 47.3978L40.7603 47.3908V47.2969L40.7715 45.6904L41.6476 47.1188L41.5761 47.1777L41.9252 47.8141L42.6051 47.3389L43.0957 48.1309L44.9559 51.1336L44.8998 52.4148L44.9222 52.8045L49.8663 51.6074C49.8663 51.6074 49.8523 51.4055 49.6925 51.1588C49.4823 50.835 48.9005 50.3752 47.7721 50.3906L45.3946 45.7086L45.2769 45.4787L45.6217 45.239L45.1171 44.2914L45.026 44.3657L43.3704 41.3406L43.5807 41.2649C43.4475 40.9594 43.313 40.6636 43.1756 40.379C43.0438 40.1043 42.9135 39.8407 42.7817 39.5842C42.6892 39.4034 42.5967 39.2267 42.5027 39.0557C42.3555 38.7838 42.2112 38.5244 42.0668 38.2777C41.9743 38.1179 41.8817 37.9637 41.7906 37.8151L43.1377 33.2495L42.3682 32.8528C42.4186 32.543 42.4537 32.2122 42.4761 31.8687C42.6135 29.8137 42.3219 27.3199 42.1761 26.2602L45.054 26.2097C45.7044 26.1985 46.2469 25.7611 46.4025 25.1233L46.5203 24.6467C46.5385 24.6761 46.5553 24.7056 46.5735 24.7336C46.7263 24.9705 46.8875 25.2032 47.0614 25.4247C47.081 25.4499 47.0992 25.4738 47.1188 25.499C47.2941 25.7233 47.4805 25.9392 47.6781 26.1382C47.6824 26.1424 47.688 26.148 47.6922 26.1522C47.8884 26.3527 48.0959 26.5377 48.3132 26.7031L48.3258 26.6891V26.7144L48.5683 27.6157L49.4879 30.9982L50.0626 30.8665L50.1916 31.2954L51.5541 35.8358C50.6962 36.0853 50.3556 36.4989 50.2224 36.8115C50.1201 37.0512 50.1397 37.2306 50.1397 37.2306L54.6493 37.5222L54.61 37.1787L54.5161 36.3545L54.3296 35.9031H54.2834L53.4311 31.2772L53.2222 30.1417L53.7914 30.0114L53.0835 26.7536L55.1455 26.8615C55.4833 27.1195 55.9964 27.4853 56.4435 27.6956C57.45 28.168 58.8266 28.5451 59.7265 27.6998C59.7265 27.6998 59.7321 26.9625 59.3228 26.106C59.6579 25.8214 59.8891 25.4177 59.9452 24.9565L59.9466 24.9551Z" fill="#ACC8FF"/>
</g>
<g clip-path="url(#clip0_664_7308)">
<path d="M27.5391 14.6765C27.5391 13.581 28.4213 12.6912 29.5091 12.6912C30.5969 12.6912 31.4806 13.5795 31.4806 14.6765C31.4806 15.7735 30.5984 16.6619 29.5091 16.6619C28.4197 16.6619 27.5391 15.7735 27.5391 14.6765ZM29.7162 13.1929C29.4477 13.4399 29.1715 13.4921 28.9322 13.7698C28.745 14.0275 28.7604 14.0505 28.6023 14.1273C28.6453 14.316 28.7281 14.4449 28.6591 14.7057C28.564 15.0816 28.432 15.0049 28.4029 15.1399C28.3875 15.1813 28.4059 15.1813 28.4366 15.189C28.4719 15.1997 28.6315 15.2396 28.7373 15.2734C29.0243 15.3501 29.2329 15.5541 29.3679 15.7198C29.4216 15.7966 29.5029 15.8165 29.5843 15.815C29.6993 15.8272 29.6993 15.815 29.8144 15.8303C29.9985 15.904 29.9249 15.9147 29.8482 16.1111C29.9372 16.1188 29.9786 16.1464 30.0016 16.1909C30.0906 15.9346 30.0215 15.5925 30.0446 15.4222C30.0553 15.0386 30.287 15.1276 30.4895 15.1721C30.4312 14.6627 30.2977 14.6995 30.3974 14.2162C29.437 14.2699 29.2651 13.8403 29.7899 13.2788C29.8282 13.2328 29.7929 13.1591 29.7162 13.1944V13.1929ZM28.7097 13.1223C28.699 13.1039 28.6944 13.0809 28.6668 13.0962C28.6284 13.1146 28.59 13.1453 28.59 13.1775C28.5486 13.1883 28.544 13.2312 28.5624 13.2512C28.5241 13.2588 28.5502 13.3172 28.5701 13.3325C28.5578 13.3908 28.5317 13.4215 28.5363 13.4706C28.544 13.5504 28.5931 13.5212 28.6023 13.489C28.633 13.3785 28.6683 13.2619 28.6514 13.2358C28.6514 13.2236 28.6514 13.2098 28.6622 13.2005C28.6775 13.1607 28.7281 13.1392 28.7113 13.1223H28.7097ZM28.8846 13.1238L28.8417 13.1039C28.8233 13.1238 28.8141 13.1453 28.8079 13.1622C28.7803 13.1545 28.7696 13.1622 28.7619 13.1729C28.7573 13.1852 28.7496 13.2082 28.7511 13.2312C28.7389 13.2435 28.7481 13.2742 28.7542 13.2972C28.8233 13.2895 28.8509 13.2588 28.8816 13.219C28.877 13.199 28.8816 13.1913 28.8846 13.1837C28.8724 13.1499 28.88 13.1376 28.8846 13.1254V13.1238Z" fill="white"/>
<path fill-rule="evenodd" clip-rule="evenodd" d="M29.0254 17.716C29.0254 17.7697 28.9839 17.8112 28.9333 17.8112C28.8827 17.8112 28.8382 17.7697 28.8382 17.716C28.8382 17.6654 28.8811 17.624 28.9333 17.624C28.9855 17.624 29.0254 17.6654 29.0254 17.716ZM28.4914 17.1744C27.3438 16.4226 26.9372 16.1035 26.8175 14.267C26.8068 14.0875 26.7439 14.1596 26.7209 14.1718C25.8724 14.8362 26.6288 16.2753 26.8896 16.7755C26.928 16.8246 26.8559 16.9259 26.7853 16.8476C26.2483 16.2493 26.1869 15.6371 26.0136 14.7042C26.0028 14.6352 25.9706 14.5692 25.8862 14.6705C25.2878 15.7675 26.2821 17.1207 26.569 17.3739C26.6227 17.4629 26.5306 17.5227 26.48 17.4767C25.8417 16.909 25.8003 16.6098 25.5057 15.6141C25.4796 15.5021 25.4029 15.5374 25.383 15.6171C25.0869 16.8338 25.8755 17.6455 26.3097 18.0428C26.3634 18.0858 26.3204 18.1779 26.2606 18.1349C25.4275 17.5979 25.5579 17.3708 25.274 16.909C25.2433 16.84 25.2004 16.8323 25.1896 16.9244C25.116 18.1871 26.3572 19.1828 27.5126 19.1782C28.0726 19.1828 28.5881 18.7931 28.806 18.4525C28.941 18.2147 28.9456 18.0919 29.4273 18.1042C29.3169 17.2159 28.9164 17.3892 28.4914 17.176V17.1744Z" fill="white"/>
<path fill-rule="evenodd" clip-rule="evenodd" d="M30.1804 17.7235C30.1804 17.7742 30.1374 17.8156 30.0853 17.8156C30.0331 17.8156 29.9902 17.7742 29.9902 17.7235C29.9902 17.6729 30.0331 17.6284 30.0853 17.6284C30.1374 17.6284 30.1804 17.6714 30.1804 17.7235ZM30.2126 18.4538C30.4305 18.796 30.946 19.1842 31.506 19.1796C32.6613 19.1842 33.9026 18.1884 33.8259 16.9288C33.8182 16.8336 33.7752 16.8413 33.7415 16.9104C33.4576 17.3752 33.5911 17.6008 32.758 18.1362C32.6997 18.1792 32.6552 18.0902 32.7089 18.0442C33.1431 17.6483 33.9333 16.8352 33.6372 15.6185C33.6172 15.5418 33.5405 15.5065 33.5144 15.6154C33.2214 16.6127 33.1799 16.9104 32.5417 17.478C32.491 17.5271 32.3959 17.4658 32.4496 17.3783C32.7381 17.1221 33.7323 15.7719 33.1339 14.6718C33.0495 14.5706 33.0158 14.6381 33.0066 14.7056C32.8332 15.6415 32.7718 16.2521 32.2348 16.849C32.1627 16.9303 32.0921 16.826 32.1305 16.7799C32.3913 16.2767 33.1477 14.8406 32.2993 14.1732C32.2762 14.1624 32.2118 14.0888 32.2026 14.2683C32.0829 16.1079 31.6763 16.4271 30.5287 17.1758C30.1037 17.3875 29.7032 17.2141 29.5928 18.1056C30.073 18.0902 30.0761 18.213 30.2142 18.4508L30.2126 18.4538Z" fill="white"/>
<path d="M34.7257 23.887H24.2695V23.9744H34.7257V23.887Z" fill="white"/>
<path d="M24.61 21.3598H24.2725V19.8408C24.4873 19.8331 24.6223 19.8301 24.6775 19.8301C24.8984 19.8301 25.0749 19.8945 25.2038 20.0249C25.3342 20.1553 25.3986 20.3272 25.3986 20.5405C25.3986 21.0867 25.1363 21.3598 24.6085 21.3598M24.5425 20.0771V21.1143C24.5855 21.1189 24.633 21.1204 24.6836 21.1204C24.8202 21.1204 24.9261 21.0713 25.0043 20.9716C25.081 20.8719 25.1194 20.7338 25.1194 20.5558C25.1194 20.2305 24.969 20.0679 24.6668 20.0679C24.6376 20.0679 24.5962 20.071 24.5425 20.0756V20.0771Z" fill="white"/>
<path d="M26.614 20.8841H25.8208C25.8254 20.9731 25.8561 21.0422 25.9113 21.0913C25.9681 21.1404 26.0433 21.1649 26.1384 21.1649C26.2566 21.1649 26.3471 21.1342 26.4084 21.0729L26.5097 21.2708C26.4177 21.3444 26.2826 21.3813 26.1001 21.3813C25.9313 21.3813 25.7963 21.3322 25.6981 21.2324C25.5999 21.1327 25.5508 20.9946 25.5508 20.8166C25.5508 20.6387 25.6045 20.5006 25.7134 20.3916C25.8223 20.2827 25.9512 20.229 26.1031 20.229C26.2642 20.229 26.3931 20.2766 26.4913 20.3732C26.5895 20.4699 26.6371 20.5911 26.6371 20.7399C26.6371 20.7721 26.6294 20.8197 26.6156 20.8841M25.83 20.6893H26.3762C26.3578 20.5267 26.2688 20.4453 26.1062 20.4453C25.9574 20.4453 25.8653 20.5267 25.83 20.6893Z" fill="white"/>
<path d="M27.4619 20.0312C27.4051 20.0128 27.3622 20.0036 27.3315 20.0036C27.2824 20.0036 27.241 20.0251 27.2057 20.0665C27.1719 20.1095 27.155 20.1601 27.155 20.223C27.155 20.2322 27.155 20.2414 27.155 20.2506H27.3852V20.4639H27.1597V21.3614H26.9004V20.4639H26.7393V20.2506H26.9019C26.908 20.1141 26.9479 20.0051 27.0231 19.9207C27.0983 19.8363 27.1949 19.7949 27.3146 19.7949C27.376 19.7949 27.4512 19.8087 27.5402 19.8348L27.4634 20.0312H27.4619Z" fill="white"/>
<path d="M28.6209 20.8841H27.8277C27.8323 20.9731 27.8629 21.0422 27.9182 21.0913C27.9734 21.1404 28.0501 21.1649 28.1437 21.1649C28.2619 21.1649 28.3524 21.1342 28.4137 21.0729L28.515 21.2708C28.4245 21.3444 28.2879 21.3813 28.1069 21.3813C27.9381 21.3813 27.8031 21.3322 27.7049 21.2324C27.6067 21.1327 27.5576 20.9946 27.5576 20.8166C27.5576 20.6387 27.6113 20.5006 27.7203 20.3916C27.8292 20.2827 27.9581 20.229 28.11 20.229C28.2711 20.229 28.3999 20.2766 28.4981 20.3732C28.5963 20.4699 28.6439 20.5911 28.6439 20.7399C28.6439 20.7721 28.6362 20.8197 28.6224 20.8841M27.8369 20.6893H28.3831C28.3647 20.5267 28.2757 20.4453 28.113 20.4453C27.9657 20.4453 27.8737 20.5267 27.8369 20.6893Z" fill="white"/>
<path d="M29.566 21.3598V20.717C29.566 20.6219 29.5476 20.5528 29.5123 20.5098C29.4755 20.4669 29.4172 20.4439 29.3343 20.4439C29.2959 20.4439 29.2561 20.4546 29.2131 20.4761C29.1701 20.4976 29.1364 20.5237 29.1118 20.5559V21.3583H28.8525V20.2475H29.0397L29.0873 20.3518C29.1579 20.269 29.2622 20.2275 29.4003 20.2275C29.5384 20.2275 29.6366 20.2674 29.7133 20.3457C29.79 20.4255 29.8283 20.5359 29.8283 20.6771V21.3583H29.5691L29.566 21.3598Z" fill="white"/>
<path d="M30.0368 21.2892L30.1289 21.0821C30.2071 21.1434 30.2946 21.1741 30.3912 21.1741C30.4879 21.1741 30.5431 21.1388 30.5431 21.0667C30.5431 21.0253 30.5278 20.99 30.4971 20.9624C30.4664 20.9348 30.4081 20.9041 30.3191 20.8673C30.1274 20.7875 30.0322 20.677 30.0322 20.5328C30.0322 20.4361 30.069 20.3625 30.1427 20.3088C30.2163 20.2551 30.3099 20.229 30.4235 20.229C30.537 20.229 30.6475 20.2551 30.7487 20.3073L30.6736 20.5082C30.6168 20.4591 30.5385 20.4361 30.4373 20.4361C30.3468 20.4361 30.3007 20.4714 30.3007 20.5435C30.3007 20.5727 30.3161 20.5972 30.3452 20.6202C30.3744 20.6433 30.4388 20.6739 30.537 20.7123C30.6352 20.7507 30.7042 20.7967 30.7472 20.8519C30.7902 20.9072 30.8116 20.9731 30.8116 21.0498C30.8116 21.1526 30.7733 21.234 30.6966 21.2938C30.6199 21.3536 30.5155 21.3828 30.3851 21.3828C30.3115 21.3828 30.2516 21.3766 30.2071 21.3644C30.1626 21.3521 30.1059 21.3276 30.0353 21.2907" fill="white"/>
<path d="M30.9478 20.8014C30.9478 20.6326 30.9969 20.4945 31.0951 20.3871C31.1933 20.2812 31.3222 20.2275 31.4833 20.2275C31.6521 20.2275 31.7825 20.2782 31.8761 20.381C31.9697 20.4838 32.0157 20.6234 32.0157 20.8014C32.0157 20.9793 31.9681 21.119 31.873 21.2233C31.7779 21.3276 31.6475 21.3798 31.4818 21.3798C31.3161 21.3798 31.181 21.3276 31.0874 21.2218C30.9939 21.1159 30.9463 20.9763 30.9463 20.8014M31.2163 20.8014C31.2163 21.0468 31.3038 21.1681 31.4802 21.1681C31.5615 21.1681 31.626 21.1358 31.672 21.0729C31.7196 21.01 31.7426 20.918 31.7426 20.8014C31.7426 20.5605 31.6551 20.4393 31.4787 20.4393C31.3974 20.4393 31.3329 20.4715 31.2854 20.5344C31.2378 20.5973 31.2133 20.6863 31.2133 20.8014H31.2163Z" fill="white"/>
<path d="M32.8645 20.4899C32.8185 20.4592 32.7679 20.4439 32.7127 20.4439C32.6528 20.4439 32.5991 20.4715 32.5516 20.5252C32.5055 20.5804 32.481 20.6464 32.481 20.7262V21.3598H32.2217V20.249H32.481V20.3503C32.5531 20.269 32.6497 20.2275 32.771 20.2275C32.8599 20.2275 32.9275 20.2413 32.975 20.2674L32.8645 20.4899Z" fill="white"/>
<path d="M33.2052 21.3599V20.4608H33.0625V20.2475H33.4676V21.3584H33.2052V21.3599ZM33.5642 19.7949L33.3295 20.0987H33.1331L33.308 19.7949H33.5642Z" fill="white"/>
<path d="M34.3828 21.2494C34.3598 21.2877 34.3184 21.32 34.2601 21.3445C34.2018 21.369 34.1404 21.3813 34.0775 21.3813C33.9578 21.3813 33.8642 21.3506 33.7952 21.2908C33.7261 21.231 33.6924 21.1466 33.6924 21.0361C33.6924 20.9072 33.7399 20.8075 33.8366 20.7339C33.9333 20.6617 34.0698 20.6249 34.2478 20.6249C34.2785 20.6249 34.3138 20.6295 34.3552 20.6403C34.3552 20.5098 34.2723 20.4439 34.1066 20.4439C34.0084 20.4439 33.9271 20.4608 33.8612 20.493L33.8044 20.292C33.8934 20.249 33.9992 20.2275 34.1235 20.2275C34.2923 20.2275 34.4166 20.2659 34.4963 20.3426C34.5746 20.4193 34.6145 20.5651 34.6145 20.7814V21.0192C34.6145 21.1681 34.6436 21.2601 34.7035 21.2985C34.682 21.3353 34.6574 21.3583 34.6314 21.3675C34.6053 21.3767 34.5746 21.3798 34.5408 21.3798C34.504 21.3798 34.4703 21.366 34.4396 21.3384C34.4089 21.3107 34.3889 21.2801 34.3797 21.2478M34.3583 20.8367C34.3138 20.8274 34.2815 20.8228 34.2585 20.8228C34.0529 20.8228 33.9517 20.8904 33.9517 21.0238C33.9517 21.1236 34.01 21.1727 34.1251 21.1727C34.28 21.1727 34.3583 21.0944 34.3583 20.9394V20.8351V20.8367Z" fill="white"/>
<path d="M25.54 24.3395L25.5016 24.4177C25.4801 24.3962 25.4464 24.3855 25.4003 24.3855C25.3558 24.3855 25.319 24.4039 25.2914 24.4407C25.2623 24.4775 25.2484 24.5251 25.2484 24.5819C25.2484 24.6386 25.2623 24.6847 25.2883 24.7169C25.3144 24.7506 25.3497 24.7675 25.3942 24.7675C25.4448 24.7675 25.4832 24.7491 25.5123 24.7138L25.5568 24.7905C25.5185 24.832 25.4617 24.8519 25.3881 24.8519C25.3144 24.8519 25.2561 24.8274 25.2147 24.7783C25.1733 24.7292 25.1533 24.6632 25.1533 24.5773C25.1533 24.499 25.1763 24.433 25.2224 24.3793C25.2684 24.3272 25.3267 24.2996 25.3973 24.2996C25.4586 24.2996 25.5077 24.3118 25.5446 24.3364" fill="white"/>
<path d="M26.3389 24.5728C26.3389 24.4976 26.3603 24.4331 26.4018 24.381C26.4432 24.3288 26.4984 24.3027 26.569 24.3027C26.6457 24.3027 26.704 24.3257 26.7439 24.3733C26.7838 24.4209 26.8053 24.4868 26.8053 24.5728C26.8053 24.6587 26.7838 24.7262 26.7424 24.7768C26.6994 24.8275 26.6396 24.852 26.5629 24.852C26.4908 24.852 26.4371 24.8275 26.3987 24.7768C26.3603 24.7262 26.3419 24.6587 26.3419 24.5712M26.4371 24.5728C26.4371 24.6357 26.4478 24.6832 26.4693 24.717C26.4908 24.7507 26.5214 24.7676 26.5613 24.7676C26.6089 24.7676 26.6442 24.7507 26.6687 24.717C26.6933 24.6832 26.7056 24.6357 26.7056 24.5712C26.7056 24.447 26.6595 24.3841 26.5675 24.3841C26.5261 24.3841 26.4923 24.4009 26.4708 24.4347C26.4478 24.4684 26.4371 24.5145 26.4371 24.5712V24.5728Z" fill="white"/>
<path d="M27.6221 24.8442V24.3103H27.7172V24.7598H27.9581V24.8442H27.6221Z" fill="white"/>
<path d="M28.7422 24.5728C28.7422 24.4976 28.7637 24.4331 28.8051 24.381C28.8465 24.3288 28.9018 24.3027 28.9723 24.3027C29.049 24.3027 29.1073 24.3257 29.1472 24.3733C29.1887 24.4209 29.2086 24.4868 29.2086 24.5728C29.2086 24.6587 29.1871 24.7262 29.1457 24.7768C29.1027 24.8275 29.0429 24.852 28.9662 24.852C28.8941 24.852 28.8404 24.8275 28.802 24.7768C28.7637 24.7262 28.7453 24.6587 28.7453 24.5712M28.8404 24.5728C28.8404 24.6357 28.8511 24.6832 28.8726 24.717C28.8941 24.7507 28.9248 24.7676 28.9647 24.7676C29.0122 24.7676 29.0475 24.7507 29.0736 24.717C29.0981 24.6832 29.1104 24.6357 29.1104 24.5712C29.1104 24.447 29.0644 24.3841 28.9723 24.3841C28.9309 24.3841 28.8972 24.4009 28.8757 24.4347C28.8527 24.4684 28.8419 24.5145 28.8419 24.5712L28.8404 24.5728Z" fill="white"/>
<path d="M30.5212 24.8442H30.4292L30.3739 24.5573L30.2665 24.8504H30.2328L30.1254 24.5573L30.0686 24.8442H29.9766L30.084 24.3103H30.1346L30.2497 24.6693L30.3632 24.3103H30.4123L30.5212 24.8442Z" fill="white"/>
<path d="M31.4761 24.8441H31.3135V24.3117C31.3856 24.3087 31.4362 24.3071 31.4638 24.3071C31.5191 24.3071 31.562 24.3194 31.5927 24.3424C31.6234 24.3654 31.6387 24.3992 31.6387 24.4437C31.6387 24.4882 31.6157 24.5189 31.5712 24.5434C31.6372 24.5664 31.671 24.614 31.671 24.6861C31.671 24.7352 31.6526 24.7736 31.6157 24.8012C31.5789 24.8303 31.5313 24.8441 31.4746 24.8441M31.4086 24.3869V24.5143C31.4224 24.5143 31.4378 24.5143 31.4546 24.5143C31.516 24.5143 31.5467 24.4912 31.5467 24.4452C31.5467 24.4038 31.5191 24.3838 31.4623 24.3838C31.447 24.3838 31.4301 24.3838 31.4086 24.3854V24.3869ZM31.4086 24.5879V24.7643C31.427 24.7659 31.4439 24.7674 31.4546 24.7674C31.4976 24.7674 31.5267 24.7597 31.5467 24.7459C31.5651 24.7321 31.5758 24.7076 31.5758 24.6754C31.5758 24.6447 31.5666 24.6232 31.5498 24.6094C31.5313 24.5956 31.5007 24.5879 31.4577 24.5879C31.4485 24.5879 31.4332 24.5879 31.4101 24.5879H31.4086Z" fill="white"/>
<path d="M32.5883 24.3103H32.4932V24.8427H32.5883V24.3103Z" fill="white"/>
<path d="M33.742 24.8443L33.7036 24.7369H33.521L33.4842 24.8443H33.3799L33.5916 24.3042H33.633L33.8478 24.8443H33.7435H33.742ZM33.6116 24.4668L33.5471 24.6632H33.6745L33.61 24.4668H33.6116Z" fill="white"/>
<path d="M25.0332 23.5371V23.4696C25.0117 23.4926 24.9749 23.5141 24.9243 23.531C24.8736 23.5479 24.8199 23.5571 24.7662 23.5571C24.6113 23.5571 24.49 23.508 24.4011 23.4098C24.3121 23.3116 24.2676 23.175 24.2676 23.0001C24.2676 22.8252 24.3182 22.6825 24.421 22.5721C24.5223 22.4616 24.6511 22.4064 24.8046 22.4064C24.889 22.4064 24.9657 22.4232 25.0347 22.4585V22.0136L25.294 21.9507V23.5371H25.0347H25.0332ZM25.0332 22.6933C24.978 22.6488 24.9196 22.6273 24.8598 22.6273C24.7555 22.6273 24.6757 22.6595 24.6205 22.7224C24.5652 22.7853 24.5361 22.8759 24.5361 22.994C24.5361 23.2241 24.6481 23.3407 24.8706 23.3407C24.8951 23.3407 24.9258 23.3331 24.9626 23.3177C24.9994 23.3024 25.0224 23.2886 25.0332 23.2732V22.6933Z" fill="white"/>
<path d="M26.5554 23.0615H25.7622C25.7668 23.1504 25.7975 23.218 25.8527 23.2671C25.908 23.3162 25.9847 23.3407 26.0783 23.3407C26.1964 23.3407 26.2869 23.31 26.3483 23.2486L26.4496 23.4466C26.3591 23.5202 26.2225 23.557 26.0415 23.557C25.8727 23.557 25.7377 23.5079 25.6395 23.4082C25.5413 23.3085 25.4922 23.1704 25.4922 22.9924C25.4922 22.8144 25.5459 22.6764 25.6548 22.5674C25.7622 22.4585 25.8926 22.4048 26.0445 22.4048C26.2056 22.4048 26.3345 22.4523 26.4327 22.549C26.5309 22.6457 26.5785 22.7669 26.5785 22.9157C26.5785 22.9479 26.5708 22.9955 26.557 23.0599M25.7714 22.8666H26.3161C26.2977 22.704 26.2087 22.6227 26.0461 22.6227C25.8988 22.6227 25.8067 22.704 25.7699 22.8666H25.7714Z" fill="white"/>
<path d="M26.8418 22.0136L27.1011 21.9507V23.1981C27.1011 23.3346 27.1425 23.4159 27.2238 23.442C27.1839 23.5187 27.1149 23.5555 27.0182 23.5555C26.9001 23.5555 26.8418 23.4742 26.8418 23.3116V22.0121V22.0136Z" fill="white"/>
<path d="M28.3609 22.9785V23.5369H28.0908V22.0195C28.2703 22.0119 28.3762 22.0088 28.4053 22.0088C28.6447 22.0088 28.8211 22.0456 28.9316 22.1193C29.0421 22.1929 29.0973 22.308 29.0973 22.4645C29.0973 22.8128 28.8917 22.9861 28.4821 22.9861C28.4514 22.9861 28.4115 22.9831 28.3593 22.9785M28.3609 22.2527V22.7391C28.4069 22.7437 28.4422 22.7468 28.4683 22.7468C28.591 22.7468 28.6815 22.7268 28.7383 22.6854C28.7951 22.644 28.8227 22.578 28.8227 22.4844C28.8227 22.3264 28.6953 22.2481 28.4422 22.2481C28.4146 22.2481 28.3869 22.2497 28.3609 22.2527Z" fill="white"/>
<path d="M30.0505 23.5386V23.445C30.0137 23.4757 29.963 23.5033 29.8986 23.5247C29.8342 23.5462 29.7759 23.5585 29.7206 23.5585C29.4629 23.5585 29.334 23.422 29.334 23.1488V22.4277H29.5933V23.1289C29.5933 23.2716 29.6577 23.3422 29.7851 23.3422C29.8434 23.3422 29.8986 23.3268 29.9492 23.2961C29.9999 23.2655 30.0336 23.2302 30.0505 23.1903V22.4277H30.3098V23.5386H30.0505Z" fill="white"/>
<path d="M31.5926 23.0615H30.7993C30.8039 23.1504 30.8346 23.218 30.8899 23.2671C30.9451 23.3162 31.0218 23.3407 31.1154 23.3407C31.2335 23.3407 31.3241 23.31 31.3854 23.2486L31.4867 23.4466C31.3946 23.5202 31.2596 23.557 31.0786 23.557C30.9098 23.557 30.7748 23.5079 30.6766 23.4082C30.5784 23.3085 30.5293 23.1704 30.5293 22.9924C30.5293 22.8144 30.583 22.6764 30.6919 22.5674C30.7993 22.4585 30.9297 22.4048 31.0816 22.4048C31.2427 22.4048 31.3716 22.4523 31.4698 22.549C31.568 22.6457 31.6156 22.7669 31.6156 22.9157C31.6156 22.9479 31.6079 22.9955 31.5941 23.0599M30.8101 22.8666H31.3547C31.3363 22.704 31.2473 22.6227 31.0847 22.6227C30.9374 22.6227 30.8454 22.704 30.8085 22.8666H30.8101Z" fill="white"/>
<path d="M32.0195 23.4756L31.9612 23.5569H31.8154V22.0119L32.0747 21.949V22.4676C32.1438 22.4261 32.2189 22.4047 32.3003 22.4047C32.4629 22.4047 32.5933 22.4553 32.693 22.5581C32.7928 22.6609 32.8419 22.7913 32.8419 22.9524C32.8419 23.138 32.7912 23.2853 32.6915 23.3927C32.5918 23.5001 32.4552 23.5554 32.2834 23.5554C32.1806 23.5554 32.0916 23.5278 32.018 23.4741M32.0732 22.6916V23.2715C32.1115 23.316 32.1622 23.339 32.2282 23.339C32.354 23.339 32.4414 23.3099 32.4936 23.25C32.5457 23.1902 32.5718 23.0951 32.5718 22.9647C32.5718 22.7391 32.4644 22.6271 32.2481 22.6271C32.1714 22.6271 32.1131 22.6486 32.0732 22.6931V22.6916Z" fill="white"/>
<path d="M33.127 22.0136L33.3862 21.9507V23.1981C33.3862 23.3346 33.4277 23.4159 33.509 23.442C33.4691 23.5187 33.4001 23.5555 33.3034 23.5555C33.1853 23.5555 33.127 23.4742 33.127 23.3116V22.0121V22.0136Z" fill="white"/>
<path d="M33.6484 22.9801C33.6484 22.8113 33.6975 22.6732 33.7957 22.5658C33.8939 22.46 34.0228 22.4062 34.1824 22.4062C34.3511 22.4062 34.4816 22.4569 34.5751 22.5597C34.6687 22.6625 34.7148 22.8021 34.7148 22.9801C34.7148 23.158 34.6672 23.2977 34.5721 23.402C34.477 23.5063 34.3465 23.5585 34.1824 23.5585C34.0182 23.5585 33.8832 23.5063 33.7896 23.4005C33.696 23.2946 33.65 23.155 33.65 22.9801M33.9185 22.9801C33.9185 23.224 34.0059 23.3468 34.1824 23.3468C34.2637 23.3468 34.3266 23.3145 34.3742 23.2516C34.4217 23.1887 34.4447 23.0982 34.4447 22.9801C34.4447 22.7392 34.3573 22.618 34.1808 22.618C34.0995 22.618 34.0351 22.6502 33.9875 22.7131C33.94 22.776 33.9154 22.865 33.9154 22.9801H33.9185Z" fill="white"/>
</g>
<defs>
<radialGradient id="paint0_radial_664_7308" cx="0" cy="0" r="1" gradientUnits="userSpaceOnUse" gradientTransform="translate(29.5891 27.1712) scale(28.4059 28.4059)">
<stop offset="0.035" stop-color="#6599FE"/>
<stop offset="1" stop-color="#4581F5"/>
</radialGradient>
<clipPath id="clip0_664_7308">
<rect width="10.4592" height="12.1623" fill="white" transform="translate(24.2676 12.6912)"/>
</clipPath>
</defs>
</svg>
