<svg width="386" height="117" viewBox="0 0 386 117" fill="none" xmlns="http://www.w3.org/2000/svg">
<path fill-rule="evenodd" clip-rule="evenodd" d="M63.4087 116.671C38.0549 102.564 -1.57389 65.9301 0.0482733 33.3937C1.72451 -0.224057 44.7628 -14.5351 63.4087 20.4915C82.0575 -14.5351 125.096 -0.224057 126.772 33.3937C128.394 65.9301 88.7685 102.567 63.4117 116.671H63.4087Z" fill="url(#paint0_radial_642_1561)"/>
<mask id="mask0_642_1561" style="mask-type:luminance" maskUnits="userSpaceOnUse" x="0" y="0" width="127" height="117">
<path d="M63.4117 116.671C38.0549 102.564 -1.57389 65.9301 0.0482733 33.3937C1.72751 -0.224057 44.7628 -14.5351 63.4117 20.4915C82.0575 -14.5351 125.096 -0.224057 126.772 33.3937C128.394 65.9301 88.7685 102.567 63.4117 116.671Z" fill="white"/>
</mask>
<g mask="url(#mask0_642_1561)">
<path d="M61.3054 80.1209C61.014 79.9166 60.6385 79.8956 60.284 79.8746C59.9296 79.8535 59.548 79.8175 59.2747 79.5922C59.9115 79.472 60.5364 79.2888 61.1402 79.0455C61.4075 78.9403 61.7229 78.7331 61.6659 78.4477C61.6148 78.2074 61.3354 78.1112 61.0951 78.0692C60.3411 77.94 59.5661 77.967 58.8241 78.1473C59.3227 77.8018 59.8064 77.4323 60.272 77.0418C60.4763 76.8706 60.6986 76.6242 60.6055 76.3749C60.5063 76.1046 60.1368 76.0835 59.8514 76.1226C58.8361 76.2668 57.8508 76.6212 56.9736 77.1559C57.1118 76.5101 57.1148 75.8372 56.9826 75.1943C56.9286 74.93 56.7723 74.6116 56.505 74.6356C56.2947 74.6506 56.1715 74.8759 56.0934 75.0682C55.6999 76.0294 55.4386 77.0418 55.3034 78.0692L53.5971 78.0151C54.3061 77.8979 54.9339 77.5134 55.3034 76.8946C55.6368 76.3359 55.6999 75.684 55.5377 75.0652C56.1685 74.2631 56.8504 73.446 57.3521 72.8122C57.4392 72.7341 57.5294 72.659 57.6135 72.5779C57.6405 72.5508 57.6675 72.5208 57.6946 72.4937C57.8328 72.3736 57.9709 72.2534 58.1001 72.1273C59.6652 70.5892 60.8728 68.4564 61.032 66.6089C61.032 66.6059 61.032 66.6029 61.032 66.5969C61.032 66.5999 61.032 66.6029 61.035 66.6089C61.1552 65.2721 60.7316 64.0855 59.506 63.3736C60.1188 60.3756 57.9439 57.0382 55.3334 55.5121C52.726 53.9891 49.3975 53.8749 46.5828 55.1036C45.6065 55.5301 44.6903 56.167 43.8642 56.924C43.786 56.9961 43.714 57.0712 43.6358 57.1463C43.5517 57.2184 43.4676 57.2905 43.3865 57.3686C42.7407 57.9604 42.1699 58.6453 41.6772 59.3662C41.3949 59.6697 41.1185 59.958 40.8481 60.2314C40.0521 59.8769 39.1569 59.898 38.4449 60.3756C37.5888 60.9524 37.2403 62.0278 37.4686 63.0882C37.4116 63.1243 37.3575 63.1633 37.3034 63.1994C36.6185 63.647 35.9366 64.1276 35.483 64.8125C35.0294 65.4974 34.8491 66.4287 35.2276 67.2097C35.474 66.7291 35.9366 66.3776 36.4713 66.2725C35.3178 67.3419 36.0117 69.3756 37.2343 71.3582C37.1472 71.3793 37.0631 71.4033 36.976 71.4333L35.7744 71.2381L32.7463 70.7454L22.746 69.1142C22.6499 69.0542 22.5538 68.9911 22.4516 68.925L22.5928 68.2791L23.0644 68.4804L24.0197 66.5488L23.5511 66.3776L26.8645 53.0759C26.8645 53.0759 26.7714 50.3933 26.3208 48.8973L26.477 48.705L25.5518 47.2601L25.4586 47.3683C25.4046 47.197 25.3385 47.0318 25.2544 46.8726C25.3144 46.8185 25.3715 46.7675 25.4226 46.7164C27.0598 47.4434 28.6399 47.8549 30.0818 47.7888C29.8805 49.1887 30.262 50.7267 31.1843 51.9614C31.9563 52.9948 33.0407 53.7878 33.8638 54.7851C34.6869 55.7825 35.2367 57.1643 34.6689 58.1797C36.4503 57.5278 37.4686 55.5482 36.988 53.6737C37.6068 53.8689 38.1355 54.3976 38.3067 54.9954C38.6372 53.8329 37.8351 52.5111 36.8258 51.6219C35.8194 50.7327 34.5908 50.1019 33.5965 49.1977C33.0017 48.657 32.488 47.9631 32.2537 47.2451C32.2987 47.2241 32.3438 47.2 32.3889 47.176C32.7163 47.4253 33.1038 47.6176 33.5394 47.7227C35.0324 48.0832 36.4983 47.3172 36.8138 46.0105C37.009 45.2024 36.7176 44.3793 36.1168 43.7815C36.6666 43.1957 37.1652 42.5378 37.5948 41.8349C37.5948 41.8319 37.5978 41.8289 37.6008 41.8229C37.6008 41.8259 37.5978 41.8319 37.5948 41.8349C39.5564 38.6326 40.1182 34.5502 37.9252 32.874C37.6128 32.6336 37.2433 32.4444 36.8168 32.3122C36.1228 30.7832 35.1375 29.5756 33.981 28.6954C31.7761 27.0192 28.9523 26.5475 26.3208 27.3316C25.8431 27.4728 25.3715 27.662 24.9119 27.8873L25.0951 26.92L25.5728 26.8509L25.8461 24.8803L24.6506 25.0095L24.7227 23.6306C24.7467 23.6186 24.7707 23.6036 24.7887 23.5916C25.744 22.9337 26.6092 22.1377 27.3451 21.2425C27.4833 21.0742 27.6245 20.8519 27.5374 20.6537C27.4263 20.3983 27.0598 20.4134 26.7954 20.4945C26.1435 20.6897 25.5337 21.0232 25.014 21.4648C25.0681 20.4043 24.9089 19.3349 24.5424 18.3406C24.4403 18.0612 24.239 17.7368 23.9416 17.7788C23.6682 17.8179 23.5511 18.1423 23.497 18.4097C23.3709 19.0255 23.2717 19.6473 23.2026 20.2722C23.0014 19.5092 22.6439 18.7882 22.1572 18.1664C22.004 17.9681 21.7757 17.7608 21.5324 17.8329C21.247 17.92 21.211 18.3076 21.247 18.6019C21.3251 19.2688 21.4633 19.9267 21.6646 20.5666C21.3251 20.4284 21.1058 20.1009 20.9136 19.7855C20.7213 19.4731 20.517 19.1397 20.1896 18.9774C19.8622 18.8122 19.3725 18.9144 19.2674 19.2658C19.1953 19.4971 19.3064 19.7375 19.4176 19.9537C19.706 20.5215 19.9944 21.0832 20.2857 21.648C19.9343 21.5429 19.724 21.2004 19.4747 20.927C19.2283 20.6567 18.8198 20.4314 18.5104 20.6296C18.3031 20.7618 18.234 21.0502 18.2851 21.2935C18.3391 21.5369 18.4833 21.7471 18.6245 21.9514C18.985 22.4651 20.8835 24.4237 20.8835 24.4237C20.8835 24.4237 20.8865 24.4237 20.8956 24.4237L20.7514 25.43L18.8468 25.6343L18.6936 27.8633L18.8919 27.8332L17.504 35.169C17.2487 35.3042 17.0144 35.4874 16.8251 35.7218C16.744 35.8239 16.6749 35.929 16.6149 36.0402C16.5097 35.9711 16.4076 35.902 16.3024 35.8329C15.245 35.1119 14.1756 34.3279 12.9229 34.0876C11.6673 33.8503 10.1623 34.3489 9.71165 35.5445C10.0601 35.1961 10.6699 35.142 11.0695 35.4304C10.003 35.8509 9.15291 36.7822 8.83749 37.8846C8.52207 38.9871 8.75038 40.2278 9.43228 41.147C9.70565 39.9484 10.9914 39.2244 12.217 39.1193C13.4426 39.0141 14.6532 39.3686 15.8669 39.5519C16.1252 39.5909 16.3895 39.6209 16.6539 39.636L15.5785 45.3135L13.2113 46.7585L12.7908 46.7645L11.2257 47.891L9.96099 47.8369L4.95932 41.9821C4.95932 41.9821 4.72501 42.1203 4.49671 42.4507C4.46366 42.4988 4.43062 42.5498 4.39758 42.6069C4.05812 43.1927 3.80879 44.2291 4.45465 45.9023L4.48169 45.9354L4.46667 45.9203C4.46667 45.9203 -2.88112 48.7441 -2.22324 52.1897C-1.94387 53.6406 0.0988493 54.2835 1.72401 54.5689C1.97635 54.6139 2.21367 54.647 2.43596 54.674L2.3909 55.1667L4.43663 55.6533L4.45465 55.44L7.03809 56.212L5.1636 57.0772L5.04344 56.897L3.26807 57.8342L3.69764 58.4861L3.12388 58.7384L2.73035 58.9126L-5.45255 62.5295L-6.81937 61.7634L-7.41115 61.433L-10.292 69.8172C-10.292 69.8172 -9.97958 69.9884 -9.4689 69.9854C-8.796 69.9824 -7.77163 69.673 -6.65415 68.2671L-6.56403 68.0328L-6.59707 68.201L7.11319 64.0585L7.1943 64.0345L7.35351 63.9864L8.11052 65.1279L9.78675 64.0765L9.63956 63.8542L14.3949 62.0308C15.7887 61.4961 17.0324 60.6309 18.0177 59.5104L18.213 59.2881L18.231 59.3152L18.8588 58.6273C18.97 58.5131 19.2073 58.2668 19.5317 57.9063L18.9129 64.6863L18.1319 64.401L18.0898 66.3536L18.979 66.7351L18.8979 67.399C18.8679 67.399 18.8408 67.3929 18.8108 67.3929C18.5224 67.3869 18.216 67.402 17.9697 67.5732C17.7233 67.7444 17.5611 68.1139 17.6873 68.4083C17.3088 68.2521 16.8402 68.4323 16.6269 68.8198C16.4106 69.2074 16.4737 69.7601 16.762 70.0785C16.3505 70.1326 15.99 70.5021 15.9029 70.9617C15.8158 71.4213 16.008 71.929 16.3595 72.1723C16.0201 72.4337 16.008 73.0525 16.2634 73.416C16.5187 73.7825 16.9603 73.9236 17.3749 73.9146C17.4079 73.9146 17.4379 73.9086 17.471 73.9056C17.5821 74.0618 17.7233 74.161 17.8825 74.164C17.9817 74.164 18.0778 74.1309 18.1679 74.0678C18.255 74.5064 18.4893 74.8188 18.7807 74.8248C18.958 74.8279 19.1202 74.7167 19.2524 74.5335C19.3635 74.8549 19.5678 75.0712 19.8051 75.0742C20.0574 75.0802 20.2857 74.8519 20.4239 74.5094C20.5411 74.7287 20.7093 74.8669 20.9016 74.8729C21.2891 74.8819 21.6255 74.3442 21.6556 73.6713C21.6586 73.5842 21.6556 73.5001 21.6526 73.419C21.6766 73.41 21.7006 73.3979 21.7247 73.3889L28.9463 76.0655L29.5861 76.3028H29.5921L30.1989 76.5311C30.1869 76.5972 30.1749 76.6663 30.1689 76.7354C28.018 77.4533 24.99 79.5892 22.3735 81.668C22.01 81.9564 21.6586 82.2417 21.3131 82.5241C21.2981 82.5361 21.2861 82.5451 21.2741 82.5572C21.0728 82.7254 20.8715 82.8936 20.6763 83.0588C20.4269 83.2661 20.1836 83.4674 19.9523 83.6686C19.751 83.8429 19.5588 84.0111 19.3695 84.1733C19.2013 84.3175 19.0451 84.4557 18.8919 84.5939C18.4383 84.9964 18.0478 85.3509 17.7414 85.6332L19.6038 87.2614L17.7143 89.5324L14.0104 93.9844C13.2954 93.5638 12.6466 93.3475 12.0878 93.2634C11.3458 93.1523 10.7661 93.2634 10.3996 93.4286C9.87087 93.6629 9.63055 93.9844 9.63055 93.9844L16.5097 101.284L16.9663 100.665L18.1048 98.7427L18.3572 98.3161L23.4339 93.4106L24.96 91.9356L25.6419 92.5304L24.9119 94.4109L22.0881 101.708H22.0911L21.8088 102.116L20.5351 103.952L20.1626 104.625L29.6612 107.839C29.6612 107.839 29.8535 107.484 29.8445 106.908C29.8415 106.502 29.7003 105.928 29.2917 105.3C28.9823 104.832 28.5167 104.33 27.8378 103.856L30.7367 98.3642L31.2353 97.4179L32.7914 98.7757C33.0137 98.4573 33.257 98.0878 33.5124 97.6733C33.6596 97.436 33.8128 97.1896 33.969 96.9283C34.0621 96.7721 34.1552 96.6159 34.2453 96.4537C34.4346 96.1232 34.6298 95.7808 34.8251 95.4233C34.8822 95.3151 34.9423 95.207 35.0023 95.0958C35.0354 95.0388 35.0654 94.9817 35.0955 94.9246C35.1495 94.8285 35.2036 94.7234 35.2577 94.6242C35.4259 94.3058 35.6001 93.9814 35.7654 93.6539C37.1592 90.9653 38.499 87.9974 39.1449 85.9637C40.0491 85.8075 40.8481 85.2878 41.3498 84.5158L41.9686 83.2841L42.9539 83.197L56.2587 82.0375C56.2587 82.0375 58.8842 82.7434 59.488 82.8155C59.7253 82.8455 59.9716 82.8696 60.2029 82.8035C60.4342 82.7374 60.6475 82.5451 60.6655 82.3078C60.6926 81.9533 60.3141 81.71 59.9716 81.6259C59.6261 81.5418 59.2386 81.5178 58.9863 81.2684C59.5991 81.2564 60.2119 81.2444 60.8278 81.2294C61.0621 81.2234 61.3174 81.2083 61.4826 81.0431C61.7319 80.7908 61.5938 80.3282 61.3054 80.1269V80.1209Z" fill="#ACC8FF"/>
<path d="M128.464 53.6949C128.707 51.7212 127.398 49.9008 125.445 49.5013L122.504 48.8945L121.993 48.7893L122.038 48.1975L113.687 46.6895L113.384 46.6354L113.399 46.6174C113.399 46.6174 113.147 46.5453 112.708 46.3711C112.525 46.302 112.314 46.2149 112.074 46.1067C111.789 45.9866 111.47 45.8334 111.119 45.6591C110.978 45.5901 110.83 45.5119 110.677 45.4338C110.293 45.2296 109.884 44.9953 109.452 44.7309C109.199 44.5747 108.938 44.4065 108.671 44.2262C108.421 44.058 108.166 43.8778 107.908 43.6855C107.751 43.5714 107.595 43.4482 107.436 43.325L108.574 35.3194L107.826 35.076C108.244 34.1298 108.157 33.0574 107.499 32.3124C107.069 31.8257 106.475 31.5644 105.835 31.5193L103.786 17.5687C103.786 17.5687 103.792 17.5687 103.795 17.5687C104.648 15.9946 105.18 14.2253 105.333 12.4229C105.369 12.0203 105.348 11.5367 104.94 11.3625C104.753 11.2843 104.537 11.3114 104.36 11.4075C103.984 11.6118 103.822 12.0053 103.69 12.3838C103.585 12.6902 103.486 13.0086 103.281 13.261C103.347 12.2516 103.414 11.3144 103.378 10.3711C103.372 10.1639 103.275 9.95958 103.101 9.84543C102.792 9.64416 102.494 9.86045 102.281 10.0827C101.677 10.7076 101.275 11.5217 101.137 12.3778C101.034 11.5787 101.01 10.8848 100.905 10.2029C100.842 9.80037 100.659 9.31372 100.193 9.3708C99.959 9.39784 99.7637 9.56306 99.6676 9.77334C99.2921 10.6145 99.0368 11.5096 98.9226 12.4199C98.6462 11.6238 98.3879 10.9419 98.0635 10.296C97.9313 10.0317 97.721 9.73128 97.4236 9.7493C97.2193 9.76132 97.0511 9.93255 96.982 10.1278C96.9129 10.3201 96.9219 10.5333 96.937 10.7346C97.0151 11.798 97.2193 12.8494 97.5408 13.8678C96.8709 13.5824 96.2611 13.4442 95.6422 13.3992C95.447 13.3872 95.2277 13.3902 95.0865 13.5223C94.9363 13.6635 94.9273 13.9038 95.0114 14.0901C95.0925 14.2763 95.2487 14.4175 95.4019 14.5497C96.4834 15.496 97.6549 16.3431 98.8926 17.0731C99.1359 17.2142 99.3792 17.3224 99.6225 17.4065L99.7247 23.1021C99.0878 22.8978 98.4179 22.7686 97.8442 22.4232C97.4266 22.1739 97.0511 21.8134 96.6245 21.6031C96.4353 21.51 96.24 21.4469 96.0267 21.4349C95.0955 21.3838 94.4346 22.3391 93.5545 22.6485C92.491 23.027 91.2444 22.4232 90.211 22.8798C89.1746 23.3394 88.8352 24.6281 88.0631 25.4572C87.1019 26.4906 85.5127 26.761 84.5875 27.8244C84.2751 28.1819 84.0648 28.5994 83.9206 29.047C83.6803 29.789 83.6202 30.6181 83.5782 31.4082C83.5391 32.1532 83.5031 32.9312 83.8065 33.6161C83.9687 33.9796 84.2631 34.307 84.6085 34.4993C84.6085 34.4963 84.6085 34.4933 84.6055 34.4903C84.6055 34.4903 84.6085 34.4903 84.6115 34.4933C84.9119 34.6615 85.2544 34.7306 85.5878 34.6375C85.7711 36.3047 86.1976 37.9088 86.8345 39.4138C85.4106 39.8043 84.4643 41.066 84.6776 42.3728C84.9089 43.7846 86.4079 44.7129 88.0211 44.4485C88.691 44.3374 89.2737 44.037 89.7123 43.6254C91.1993 44.7549 93.0618 44.9893 95.1195 44.6198L93.8518 50.9432L94.8702 51.1294L94.8402 51.7062L91.4667 52.5473C91.4847 52.2139 91.4757 51.8834 91.4366 51.568C91.4066 51.3277 91.2954 51.0874 91.1362 50.8891C91.0822 50.1021 90.983 49.5914 90.3972 49.1438C89.6973 48.6091 88.745 49.0927 88.5348 49.5794C88.4296 49.5343 88.3215 49.4923 88.2133 49.4472C88.0752 49.294 87.8679 49.1738 87.6366 49.1318C87.2641 48.8975 86.7053 48.7683 86.0955 48.8103C85.0411 48.8824 84.23 49.4292 84.2841 50.036C84.2991 50.1922 84.3682 50.3364 84.4854 50.4655C83.8155 50.6788 83.3709 51.0994 83.4099 51.553C83.434 51.8294 83.6352 52.0667 83.9446 52.2409C83.464 52.4722 83.1666 52.8237 83.1997 53.1992C83.2297 53.5507 83.5481 53.842 84.0107 54.0133C84.0378 54.0553 84.0648 54.1004 84.0948 54.1394C83.8305 54.3497 83.6833 54.6081 83.7073 54.8754C83.7494 55.329 84.2661 55.6865 84.966 55.8067C85.1252 56.077 85.3625 56.3083 85.6359 56.4345C85.729 56.4796 85.8282 56.5186 85.9273 56.5577C86.0535 60.0513 85.8462 63.7252 85.681 65.9181C85.4557 65.1701 84.951 64.5333 84.1519 64.1578C85.1853 62.1962 82.9023 59.7659 80.8055 60.4839C80.6853 59.3574 79.8352 58.5553 78.8288 58.2459C77.8886 57.9605 76.8101 58.1017 76.0591 58.8017C75.951 58.9008 75.8519 59.0119 75.7587 59.1351C74.5782 57.8794 72.8148 58.1678 71.6433 59.1922C71.1116 59.6548 70.703 60.2706 70.5258 60.9615C69.5104 60.7633 68.3329 61.0997 67.5879 61.8237C67.0051 62.3854 66.6867 63.1845 66.9059 64.1488C66.4283 64.1698 66.0438 64.335 65.7524 64.5994C64.701 65.5366 64.8031 67.7085 65.8335 68.811C65.0164 69.6161 65.1967 70.8928 65.8936 71.812C65.9927 71.9442 66.1039 72.0673 66.221 72.1815C66.4523 72.4008 66.7167 72.587 67.0051 72.7162C66.7317 73.5032 67.1192 74.3203 67.7381 74.8851C67.2064 75.549 67.0111 76.3961 67.2995 77.1651C67.7651 78.4148 69.3152 78.9885 70.7631 78.4508C71.1536 78.3066 71.4931 78.0934 71.7784 77.838C73.1723 78.6161 74.8245 78.7272 76.5638 78.2766C76.4887 78.3367 76.4166 78.3998 76.3445 78.4628C74.0615 79.8207 69.3842 86.5016 69.3842 86.5016L69.8499 87.0843L69.3873 87.6791L63.9861 94.6484C62.8205 95.2853 61.2825 96.1594 60.6576 97.2529C60.5134 97.5052 60.3813 97.7786 60.4143 98.079C60.4473 98.3764 60.6937 98.6948 61.0121 98.7278C60.6937 98.9862 60.6276 99.4818 60.8679 99.8574C61.1052 100.23 61.6219 100.443 62.0395 100.338C61.8923 100.726 62.0455 101.218 62.406 101.516C62.7664 101.813 63.3041 101.885 63.6887 101.69C63.7578 102.113 64.2925 102.42 64.7371 102.369C65.1817 102.318 65.5151 101.999 65.7043 101.63C65.8936 101.263 65.9597 100.843 66.0588 100.44C66.212 99.8213 66.4584 99.2085 66.954 98.7999C67.2935 98.5206 67.3505 97.376 67.3535 96.6791L72.4273 92.5636L73.4817 91.6414L74.0885 92.4014L77.2998 89.6347C77.3929 90.0253 77.48 90.4038 77.5641 90.7612C77.6843 91.2749 77.7955 91.7495 77.8916 92.1641C78.1679 93.3477 78.3392 94.0987 78.3392 94.0987L78.3963 94.0777L78.3602 95.9161L78.2701 100.542L77.7684 100.473L78.0087 102.765L79.0932 102.831L79.4236 114.048C77.2848 115.178 76.6629 116.641 76.5969 117.464C76.5488 118.092 76.732 118.485 76.732 118.485L87.2611 115.667L86.9036 114.91L85.4827 112.555L85.9063 105L86.0054 103.249L87.4203 103.336L87.4653 101.789L87.3482 101.774V101.573L87.3722 98.1301L89.2497 101.191L89.0965 101.317L89.8445 102.681L91.3015 101.663L92.3529 103.36L96.3392 109.795L96.219 112.54L96.2671 113.375L106.862 110.81C106.862 110.81 106.832 110.377 106.49 109.849C106.039 109.155 104.792 108.169 102.374 108.202L97.2794 98.1691L97.0271 97.6764L97.7661 97.1628L96.6846 95.132L96.4894 95.2913L92.9416 88.8086L93.3922 88.6464C93.1069 87.9915 92.8185 87.3577 92.5241 86.7479C92.2417 86.1591 91.9623 85.5943 91.68 85.0446C91.4817 84.6571 91.2834 84.2786 91.0822 83.9121C90.7667 83.3293 90.4573 82.7736 90.1479 82.2449C89.9496 81.9024 89.7514 81.572 89.5561 81.2536L92.443 71.4695L90.7938 70.6194C90.9019 69.9555 90.977 69.2466 91.0251 68.5106C91.3195 64.1067 90.6946 58.7626 90.3822 56.4916L96.5494 56.3834C97.9433 56.3594 99.1058 55.4221 99.4393 54.0553L99.6916 53.034C99.7307 53.0971 99.7667 53.1601 99.8058 53.2202C100.133 53.7279 100.479 54.2266 100.851 54.7012C100.893 54.7553 100.932 54.8063 100.974 54.8604C101.35 55.341 101.749 55.8037 102.173 56.2302C102.182 56.2392 102.194 56.2513 102.203 56.2603C102.624 56.6898 103.068 57.0864 103.534 57.4408L103.561 57.4108V57.4649L104.08 59.3964L106.051 66.6451L107.283 66.3627L107.559 67.2819L110.479 77.0119C108.641 77.5466 107.911 78.4328 107.625 79.1027C107.406 79.6164 107.448 80.0009 107.448 80.0009L117.112 80.6257L117.028 79.8897L116.826 78.1234L116.427 77.1561H116.328L114.501 67.2429L114.054 64.8097L115.273 64.5303L113.756 57.549L118.175 57.7803C118.899 58.333 119.999 59.1171 120.957 59.5677C123.114 60.58 126.064 61.3881 127.992 59.5767C127.992 59.5767 128.004 57.9966 127.127 56.1611C127.845 55.5513 128.341 54.6862 128.461 53.6979L128.464 53.6949Z" fill="#ACC8FF"/>
</g>
<g clip-path="url(#clip0_642_1561)">
<path d="M59.0156 31.6684C59.0156 29.3208 60.9062 27.4138 63.2373 27.4138C65.5685 27.4138 67.4623 29.3175 67.4623 31.6684C67.4623 34.0193 65.5718 35.923 63.2373 35.923C60.9029 35.923 59.0156 34.0193 59.0156 31.6684ZM63.6812 28.489C63.1058 29.0183 62.514 29.1301 62.0011 29.7252C61.5999 30.2776 61.6328 30.3269 61.2942 30.4913C61.3862 30.8957 61.5638 31.1719 61.4158 31.7309C61.212 32.5364 60.9292 32.372 60.8667 32.6614C60.8339 32.7501 60.8733 32.7501 60.9391 32.7666C61.0147 32.7896 61.3566 32.8751 61.5835 32.9474C62.1983 33.1118 62.6455 33.5491 62.9348 33.9042C63.0499 34.0686 63.2242 34.1113 63.3984 34.1081C63.645 34.1344 63.645 34.108 63.8916 34.1409C64.2862 34.2987 64.1284 34.3218 63.964 34.7426C64.1547 34.7591 64.2434 34.8182 64.2928 34.9136C64.4835 34.3645 64.3355 33.6313 64.3848 33.2663C64.4078 32.4444 64.9043 32.6351 65.3383 32.7304C65.2134 31.6388 64.9273 31.7177 65.141 30.682C63.0828 30.7971 62.7146 29.8765 63.839 28.6731C63.9212 28.5745 63.8456 28.4166 63.6812 28.4923V28.489ZM61.5243 28.3377C61.5013 28.2983 61.4914 28.249 61.4323 28.2818C61.3501 28.3213 61.2679 28.387 61.2679 28.4561C61.1791 28.4791 61.1692 28.5712 61.2087 28.6139C61.1265 28.6304 61.1824 28.7553 61.2251 28.7882C61.1988 28.9131 61.1429 28.9789 61.1528 29.0841C61.1692 29.2551 61.2744 29.1926 61.2942 29.1235C61.3599 28.8868 61.4355 28.6369 61.3994 28.581C61.3994 28.5547 61.3994 28.5251 61.4224 28.5054C61.4553 28.4199 61.5638 28.3739 61.5276 28.3377H61.5243ZM61.8991 28.341L61.8071 28.2983C61.7676 28.341 61.7479 28.387 61.7347 28.4232C61.6756 28.4068 61.6525 28.4232 61.6361 28.4462C61.6262 28.4725 61.6098 28.5219 61.6131 28.5712C61.5868 28.5975 61.6065 28.6632 61.6197 28.7126C61.7676 28.6961 61.8268 28.6304 61.8926 28.5449C61.8827 28.5021 61.8926 28.4857 61.8991 28.4692C61.8728 28.3969 61.8893 28.3706 61.8991 28.3443V28.341Z" fill="white"/>
<path fill-rule="evenodd" clip-rule="evenodd" d="M62.2011 38.1818C62.2011 38.2969 62.1124 38.3857 62.0039 38.3857C61.8954 38.3857 61.8 38.2969 61.8 38.1818C61.8 38.0733 61.8921 37.9846 62.0039 37.9846C62.1157 37.9846 62.2011 38.0733 62.2011 38.1818ZM61.0569 37.0212C58.5976 35.4101 57.7263 34.7262 57.4698 30.7906C57.4468 30.4059 57.312 30.5604 57.2627 30.5867C55.4444 32.0104 57.0654 35.0945 57.6243 36.1663C57.7065 36.2715 57.552 36.4885 57.4008 36.3209C56.25 35.0386 56.1185 33.7267 55.7469 31.7276C55.7239 31.5797 55.6549 31.4383 55.474 31.6553C54.1917 34.0062 56.3223 36.9061 56.9372 37.4486C57.0522 37.6393 56.855 37.7676 56.7465 37.6689C55.3787 36.4524 55.2899 35.8112 54.6586 33.6774C54.6027 33.4373 54.4383 33.513 54.3956 33.6839C53.761 36.2913 55.451 38.0306 56.3815 38.8822C56.4966 38.9742 56.4045 39.1715 56.2763 39.0794C54.4909 37.9287 54.7704 37.442 54.1621 36.4524C54.0964 36.3044 54.0043 36.288 53.9813 36.4853C53.8235 39.1912 56.4834 41.3251 58.9592 41.3152C60.1593 41.3251 61.2641 40.49 61.731 39.76C62.0203 39.2504 62.0302 38.9874 63.0626 39.0137C62.8258 37.11 61.9677 37.4815 61.0569 37.0245V37.0212Z" fill="white"/>
<path fill-rule="evenodd" clip-rule="evenodd" d="M64.6772 38.1983C64.6772 38.3068 64.5852 38.3956 64.4734 38.3956C64.3616 38.3956 64.2695 38.3068 64.2695 38.1983C64.2695 38.0898 64.3616 37.9945 64.4734 37.9945C64.5852 37.9945 64.6772 38.0865 64.6772 38.1983ZM64.7463 39.7634C65.2132 40.4966 66.3179 41.3284 67.518 41.3186C69.9938 41.3284 72.6538 39.1946 72.4894 36.4952C72.4729 36.2913 72.3809 36.3078 72.3085 36.4557C71.7003 37.452 71.9863 37.9353 70.201 39.0828C70.076 39.1748 69.9807 38.9841 70.0958 38.8855C71.0262 38.0372 72.7195 36.2946 72.085 33.6873C72.0422 33.5229 71.8778 33.4473 71.8219 33.6807C71.1939 35.8179 71.1052 36.4557 69.7374 37.6722C69.6289 37.7775 69.425 37.6459 69.5401 37.4585C70.1582 36.9094 72.2888 34.0161 71.0065 31.6586C70.8257 31.4416 70.7533 31.5863 70.7336 31.731C70.3621 33.7366 70.2306 35.0452 69.0798 36.3242C68.9253 36.4985 68.774 36.2749 68.8562 36.1762C69.4152 35.0978 71.0361 32.0203 69.2179 30.59C69.1686 30.567 69.0305 30.4092 69.0107 30.7939C68.7543 34.7361 67.883 35.42 65.4236 37.0245C64.5129 37.4783 63.6547 37.1067 63.418 39.017C64.4471 38.9841 64.4537 39.2472 64.7496 39.7568L64.7463 39.7634Z" fill="white"/>
<path d="M74.4161 51.4058H52.0088V51.5932H74.4161V51.4058Z" fill="white"/>
<path d="M52.738 45.9907H52.0146V42.7357C52.475 42.7192 52.7643 42.7126 52.8827 42.7126C53.3561 42.7126 53.7342 42.8507 54.0104 43.1302C54.2899 43.4097 54.428 43.7779 54.428 44.235C54.428 45.4055 53.8658 45.9907 52.7347 45.9907M52.5933 43.242V45.4646C52.6854 45.4745 52.7873 45.4778 52.8958 45.4778C53.1884 45.4778 53.4153 45.3726 53.583 45.1589C53.7474 44.9452 53.8296 44.6492 53.8296 44.2678C53.8296 43.5708 53.5074 43.2223 52.8596 43.2223C52.7972 43.2223 52.7084 43.2289 52.5933 43.2387V43.242Z" fill="white"/>
<path d="M57.0324 44.9713H55.3326C55.3424 45.162 55.4082 45.31 55.5266 45.4152C55.6482 45.5204 55.8093 45.573 56.0132 45.573C56.2664 45.573 56.4603 45.5073 56.5919 45.3757L56.8089 45.7999C56.6116 45.9577 56.3223 46.0366 55.931 46.0366C55.5693 46.0366 55.28 45.9314 55.0695 45.7177C54.8591 45.504 54.7539 45.2081 54.7539 44.8267C54.7539 44.4453 54.869 44.1493 55.1024 43.9159C55.3359 43.6825 55.6121 43.5674 55.9376 43.5674C56.2828 43.5674 56.559 43.6693 56.7694 43.8764C56.9798 44.0836 57.0818 44.3433 57.0818 44.6623C57.0818 44.7313 57.0653 44.8332 57.0357 44.9713M55.3523 44.5538H56.5228C56.4834 44.2052 56.2927 44.031 55.9441 44.031C55.6252 44.031 55.4279 44.2052 55.3523 44.5538Z" fill="white"/>
<path d="M58.8504 43.1433C58.7287 43.1038 58.6367 43.0841 58.5709 43.0841C58.4657 43.0841 58.3769 43.1302 58.3013 43.2189C58.229 43.311 58.1928 43.4195 58.1928 43.5543C58.1928 43.574 58.1928 43.5938 58.1928 43.6135H58.686V44.0705H58.2027V45.9939H57.647V44.0705H57.3018V43.6135H57.6503C57.6634 43.3209 57.7489 43.0874 57.91 42.9066C58.0711 42.7257 58.2783 42.637 58.5347 42.637C58.6663 42.637 58.8274 42.6666 59.0181 42.7224L58.8537 43.1433H58.8504Z" fill="white"/>
<path d="M61.3332 44.9713H59.6334C59.6432 45.162 59.709 45.31 59.8274 45.4152C59.9457 45.5204 60.1101 45.573 60.3107 45.573C60.5638 45.573 60.7578 45.5073 60.8894 45.3757L61.1064 45.7999C60.9124 45.9577 60.6197 46.0366 60.2318 46.0366C59.8701 46.0366 59.5808 45.9314 59.3703 45.7177C59.1599 45.504 59.0547 45.2081 59.0547 44.8267C59.0547 44.4453 59.1698 44.1493 59.4032 43.9159C59.6367 43.6825 59.9128 43.5674 60.2383 43.5674C60.5836 43.5674 60.8598 43.6693 61.0702 43.8764C61.2806 44.0836 61.3825 44.3433 61.3825 44.6623C61.3825 44.7313 61.3661 44.8332 61.3365 44.9713M59.6531 44.5538H60.8236C60.7841 44.2052 60.5934 44.031 60.2449 44.031C59.9293 44.031 59.732 44.2052 59.6531 44.5538Z" fill="white"/>
<path d="M63.359 45.9907V44.6131C63.359 44.4092 63.3195 44.2613 63.2439 44.1692C63.165 44.0771 63.04 44.0278 62.8625 44.0278C62.7803 44.0278 62.6948 44.0508 62.6027 44.0969C62.5107 44.1429 62.4383 44.1988 62.3857 44.2678V45.9874H61.8301V43.607H62.2312L62.3331 43.8305C62.4844 43.653 62.708 43.5642 63.0039 43.5642C63.2998 43.5642 63.5102 43.6497 63.6746 43.8174C63.839 43.9884 63.9212 44.2251 63.9212 44.5276V45.9874H63.3655L63.359 45.9907Z" fill="white"/>
<path d="M64.3683 45.8393L64.5655 45.3955C64.7332 45.527 64.9206 45.5927 65.1278 45.5927C65.3349 45.5927 65.4533 45.5171 65.4533 45.3626C65.4533 45.2738 65.4204 45.1982 65.3546 45.139C65.2889 45.0798 65.1639 45.0141 64.9732 44.9352C64.5622 44.7642 64.3584 44.5275 64.3584 44.2184C64.3584 44.0113 64.4373 43.8534 64.5951 43.7384C64.753 43.6233 64.9535 43.5674 65.1968 43.5674C65.4401 43.5674 65.6769 43.6233 65.8939 43.7351L65.7328 44.1658C65.6111 44.0606 65.4434 44.0113 65.2264 44.0113C65.0324 44.0113 64.9338 44.0869 64.9338 44.2414C64.9338 44.3039 64.9667 44.3565 65.0291 44.4058C65.0916 44.4551 65.2297 44.5209 65.4401 44.6031C65.6506 44.6853 65.7985 44.7839 65.8906 44.9023C65.9826 45.0206 66.0287 45.162 66.0287 45.3264C66.0287 45.5467 65.9465 45.721 65.7821 45.8492C65.6177 45.9774 65.3941 46.0399 65.1146 46.0399C64.9568 46.0399 64.8286 46.0268 64.7332 46.0005C64.6379 45.9741 64.5162 45.9215 64.365 45.8426" fill="white"/>
<path d="M66.3207 44.7939C66.3207 44.4322 66.4259 44.1363 66.6363 43.9062C66.8467 43.6793 67.1229 43.5642 67.4682 43.5642C67.8298 43.5642 68.1093 43.6727 68.3099 43.893C68.5104 44.1133 68.6091 44.4125 68.6091 44.7939C68.6091 45.1753 68.5071 45.4745 68.3033 45.6981C68.0994 45.9217 67.82 46.0334 67.4649 46.0334C67.1098 46.0334 66.8204 45.9217 66.6199 45.6948C66.4193 45.4679 66.3174 45.1687 66.3174 44.7939M66.8961 44.7939C66.8961 45.32 67.0835 45.5797 67.4616 45.5797C67.6358 45.5797 67.7739 45.5107 67.8726 45.3759C67.9745 45.2411 68.0238 45.0438 68.0238 44.7939C68.0238 44.2777 67.8364 44.0179 67.4583 44.0179C67.284 44.0179 67.1459 44.087 67.044 44.2218C66.9421 44.3566 66.8895 44.5473 66.8895 44.7939H66.8961Z" fill="white"/>
<path d="M70.4274 44.1264C70.3288 44.0607 70.2203 44.0278 70.1019 44.0278C69.9737 44.0278 69.8586 44.087 69.7567 44.2021C69.6581 44.3204 69.6055 44.4618 69.6055 44.6328V45.9907H69.0498V43.6102H69.6055V43.8272C69.76 43.653 69.9671 43.5642 70.2269 43.5642C70.4176 43.5642 70.5623 43.5938 70.6642 43.6497L70.4274 44.1264Z" fill="white"/>
<path d="M71.1573 45.9907V44.0639H70.8516V43.6069H71.7196V45.9874H71.1573V45.9907ZM71.9267 42.637L71.4237 43.288H71.0028L71.3776 42.637H71.9267Z" fill="white"/>
<path d="M73.6827 45.754C73.6334 45.8362 73.5446 45.9052 73.4197 45.9578C73.2947 46.0104 73.1632 46.0367 73.0284 46.0367C72.7719 46.0367 72.5714 45.971 72.4234 45.8427C72.2755 45.7145 72.2031 45.5337 72.2031 45.297C72.2031 45.0208 72.3051 44.807 72.5122 44.6492C72.7193 44.4947 73.012 44.4158 73.3934 44.4158C73.4591 44.4158 73.5347 44.4256 73.6235 44.4487C73.6235 44.1692 73.446 44.0278 73.0909 44.0278C72.8804 44.0278 72.7062 44.064 72.5648 44.133L72.4431 43.7023C72.6338 43.6102 72.8607 43.5642 73.127 43.5642C73.4887 43.5642 73.755 43.6464 73.926 43.8108C74.0937 43.9752 74.1792 44.2876 74.1792 44.7512V45.2608C74.1792 45.5797 74.2416 45.777 74.3699 45.8592C74.3238 45.9381 74.2712 45.9874 74.2153 46.0071C74.1594 46.0269 74.0937 46.0334 74.0214 46.0334C73.9424 46.0334 73.8701 46.0039 73.8043 45.9447C73.7386 45.8855 73.6958 45.8197 73.6761 45.7507M73.6301 44.8695C73.5347 44.8498 73.4657 44.8399 73.4164 44.8399C72.9758 44.8399 72.7588 44.9846 72.7588 45.2706C72.7588 45.4844 72.8837 45.5896 73.1303 45.5896C73.4624 45.5896 73.6301 45.4219 73.6301 45.0898V44.8662V44.8695Z" fill="white"/>
<path d="M54.7309 52.3758L54.6487 52.5435C54.6027 52.4974 54.5303 52.4744 54.4317 52.4744C54.3364 52.4744 54.2574 52.5139 54.1983 52.5928C54.1358 52.6717 54.1062 52.7736 54.1062 52.8953C54.1062 53.0169 54.1358 53.1156 54.1917 53.1846C54.2476 53.2569 54.3232 53.2931 54.4185 53.2931C54.5271 53.2931 54.6092 53.2536 54.6717 53.178L54.7671 53.3424C54.6849 53.4312 54.5632 53.4739 54.4054 53.4739C54.2476 53.4739 54.1226 53.4213 54.0339 53.3161C53.9451 53.2109 53.9023 53.0695 53.9023 52.8854C53.9023 52.7177 53.9517 52.5763 54.0503 52.4613C54.1489 52.3495 54.2739 52.2903 54.4251 52.2903C54.5566 52.2903 54.6619 52.3166 54.7408 52.3692" fill="white"/>
<path d="M56.4434 52.8756C56.4434 52.7144 56.4894 52.5764 56.5782 52.4646C56.6669 52.3528 56.7853 52.2969 56.9365 52.2969C57.1009 52.2969 57.2259 52.3462 57.3114 52.4481C57.3969 52.55 57.4429 52.6914 57.4429 52.8756C57.4429 53.0597 57.3969 53.2043 57.3081 53.3128C57.216 53.4213 57.0878 53.474 56.9234 53.474C56.7689 53.474 56.6538 53.4213 56.5716 53.3128C56.4894 53.2043 56.4499 53.0597 56.4499 52.8723M56.6538 52.8756C56.6538 53.0104 56.6768 53.1123 56.7228 53.1846C56.7689 53.257 56.8346 53.2931 56.9201 53.2931C57.022 53.2931 57.0977 53.257 57.1503 53.1846C57.2029 53.1123 57.2292 53.0104 57.2292 52.8723C57.2292 52.6059 57.1305 52.4711 56.9333 52.4711C56.8445 52.4711 56.7722 52.5073 56.7261 52.5796C56.6768 52.652 56.6538 52.7506 56.6538 52.8723V52.8756Z" fill="white"/>
<path d="M59.1924 53.4574V52.3132H59.3962V53.2766H59.9124V53.4574H59.1924Z" fill="white"/>
<path d="M61.5928 52.8756C61.5928 52.7144 61.6388 52.5764 61.7276 52.4646C61.8164 52.3528 61.9347 52.2969 62.086 52.2969C62.2504 52.2969 62.3753 52.3462 62.4608 52.4481C62.5496 52.55 62.5923 52.6914 62.5923 52.8756C62.5923 53.0597 62.5463 53.2043 62.4575 53.3128C62.3654 53.4213 62.2372 53.474 62.0728 53.474C61.9183 53.474 61.8032 53.4213 61.721 53.3128C61.6388 53.2043 61.5993 53.0597 61.5993 52.8723M61.8032 52.8756C61.8032 53.0104 61.8262 53.1123 61.8722 53.1846C61.9183 53.257 61.984 53.2931 62.0695 53.2931C62.1714 53.2931 62.2471 53.257 62.303 53.1846C62.3556 53.1123 62.3819 53.0104 62.3819 52.8723C62.3819 52.6059 62.2832 52.4711 62.086 52.4711C61.9972 52.4711 61.9249 52.5073 61.8788 52.5796C61.8295 52.652 61.8065 52.7506 61.8065 52.8723L61.8032 52.8756Z" fill="white"/>
<path d="M65.4065 53.4574H65.2092L65.0908 52.8426L64.8607 53.4706H64.7883L64.5582 52.8426L64.4365 53.4574H64.2393L64.4694 52.3132H64.5779L64.8245 53.0826L65.0678 52.3132H65.173L65.4065 53.4574Z" fill="white"/>
<path d="M67.452 53.4577H67.1035V52.3167C67.258 52.3102 67.3666 52.3069 67.4257 52.3069C67.5441 52.3069 67.6362 52.3332 67.7019 52.3825C67.7677 52.4318 67.8006 52.5042 67.8006 52.5995C67.8006 52.6949 67.7512 52.7606 67.6559 52.8132C67.7973 52.8625 67.8696 52.9645 67.8696 53.119C67.8696 53.2242 67.8301 53.3064 67.7512 53.3656C67.6723 53.4281 67.5704 53.4577 67.4487 53.4577M67.3074 52.4779V52.7508C67.337 52.7508 67.3698 52.7508 67.406 52.7508C67.5375 52.7508 67.6033 52.7014 67.6033 52.6028C67.6033 52.514 67.5441 52.4713 67.4224 52.4713C67.3896 52.4713 67.3534 52.4713 67.3074 52.4746V52.4779ZM67.3074 52.9086V53.2867C67.3468 53.29 67.383 53.2933 67.406 53.2933C67.4981 53.2933 67.5605 53.2768 67.6033 53.2472C67.6427 53.2176 67.6658 53.165 67.6658 53.096C67.6658 53.0302 67.646 52.9842 67.6099 52.9546C67.5704 52.925 67.5046 52.9086 67.4126 52.9086C67.3929 52.9086 67.36 52.9086 67.3107 52.9086H67.3074Z" fill="white"/>
<path d="M69.8357 52.3132H69.6318V53.4541H69.8357V52.3132Z" fill="white"/>
<path d="M72.3082 53.4576L72.226 53.2275H71.8347L71.7558 53.4576H71.5322L71.986 52.3003H72.0747L72.535 53.4576H72.3115H72.3082ZM72.0287 52.6488L71.8906 53.0697H72.1635L72.0254 52.6488H72.0287Z" fill="white"/>
<path d="M53.6456 50.6563V50.5116C53.5995 50.561 53.5206 50.607 53.4121 50.6432C53.3036 50.6793 53.1885 50.6991 53.0735 50.6991C52.7414 50.6991 52.4816 50.5938 52.2909 50.3834C52.1002 50.173 52.0049 49.8804 52.0049 49.5055C52.0049 49.1307 52.1134 48.8249 52.3337 48.5882C52.5507 48.3515 52.8269 48.2331 53.1557 48.2331C53.3365 48.2331 53.5009 48.2693 53.6488 48.3449V47.3914L54.2045 47.2566V50.6563H53.6488H53.6456ZM53.6456 48.848C53.5272 48.7526 53.4023 48.7066 53.274 48.7066C53.0504 48.7066 52.8795 48.7756 52.7611 48.9104C52.6427 49.0452 52.5803 49.2392 52.5803 49.4924C52.5803 49.9856 52.8203 50.2355 53.297 50.2355C53.3496 50.2355 53.4154 50.219 53.4943 50.1861C53.5732 50.1533 53.6225 50.1237 53.6456 50.0908V48.848Z" fill="white"/>
<path d="M56.9074 49.637H55.2076C55.2174 49.8277 55.2832 49.9723 55.4016 50.0776C55.5199 50.1828 55.6843 50.2354 55.8849 50.2354C56.1381 50.2354 56.3321 50.1696 56.4636 50.0381L56.6806 50.4622C56.4866 50.6201 56.194 50.699 55.806 50.699C55.4443 50.699 55.155 50.5938 54.9445 50.38C54.7341 50.1663 54.6289 49.8704 54.6289 49.489C54.6289 49.1076 54.744 48.8117 54.9774 48.5783C55.2076 48.3448 55.4871 48.2297 55.8126 48.2297C56.1578 48.2297 56.434 48.3317 56.6444 48.5388C56.8548 48.7459 56.9568 49.0057 56.9568 49.3246C56.9568 49.3937 56.9403 49.4956 56.9107 49.6337M55.2273 49.2194H56.3945C56.3551 48.8709 56.1644 48.6966 55.8159 48.6966C55.5002 48.6966 55.3029 48.8709 55.224 49.2194H55.2273Z" fill="white"/>
<path d="M57.5225 47.3914L58.0781 47.2566V49.9297C58.0781 50.2223 58.1669 50.3966 58.3412 50.4525C58.2557 50.6169 58.1077 50.6958 57.9006 50.6958C57.6474 50.6958 57.5225 50.5215 57.5225 50.173V47.3881V47.3914Z" fill="white"/>
<path d="M60.7779 49.4593V50.6561H60.1992V47.4044C60.5839 47.3879 60.8108 47.3813 60.8732 47.3813C61.3862 47.3813 61.7643 47.4603 62.001 47.6181C62.2377 47.7759 62.3561 48.0225 62.3561 48.3579C62.3561 49.1042 61.9155 49.4758 61.0376 49.4758C60.9719 49.4758 60.8864 49.4692 60.7746 49.4593M60.7779 47.9041V48.9464C60.8765 48.9563 60.9522 48.9628 61.0081 48.9628C61.2711 48.9628 61.4651 48.9201 61.5867 48.8313C61.7084 48.7426 61.7676 48.6012 61.7676 48.4006C61.7676 48.062 61.4947 47.8943 60.9522 47.8943C60.893 47.8943 60.8338 47.8976 60.7779 47.9041Z" fill="white"/>
<path d="M64.3968 50.6595V50.459C64.3179 50.5247 64.2094 50.5839 64.0713 50.6299C63.9332 50.676 63.8083 50.7023 63.6899 50.7023C63.1375 50.7023 62.8613 50.4096 62.8613 49.8244V48.2791H63.417V49.7816C63.417 50.0874 63.5551 50.2387 63.828 50.2387C63.9529 50.2387 64.0713 50.2058 64.1798 50.14C64.2883 50.0743 64.3606 49.9986 64.3968 49.9132V48.2791H64.9525V50.6595H64.3968Z" fill="white"/>
<path d="M67.7024 49.637H66.0025C66.0124 49.8277 66.0781 49.9723 66.1965 50.0776C66.3149 50.1828 66.4793 50.2354 66.6798 50.2354C66.933 50.2354 67.127 50.1696 67.2585 50.0381L67.4755 50.4622C67.2782 50.6201 66.9889 50.699 66.6009 50.699C66.2392 50.699 65.9499 50.5938 65.7395 50.38C65.529 50.1663 65.4238 49.8704 65.4238 49.489C65.4238 49.1076 65.5389 48.8117 65.7723 48.5783C66.0025 48.3448 66.282 48.2297 66.6075 48.2297C66.9527 48.2297 67.2289 48.3317 67.4393 48.5388C67.6498 48.7459 67.7517 49.0057 67.7517 49.3246C67.7517 49.3937 67.7352 49.4956 67.7057 49.6337M66.0255 49.2194H67.1927C67.1533 48.8709 66.9626 48.6966 66.6141 48.6966C66.2984 48.6966 66.1011 48.8709 66.0222 49.2194H66.0255Z" fill="white"/>
<path d="M68.616 50.5247L68.4911 50.6989H68.1787V47.388L68.7344 47.2532V48.3645C68.8823 48.2757 69.0434 48.2297 69.2177 48.2297C69.5662 48.2297 69.8457 48.3382 70.0594 48.5585C70.2731 48.7788 70.3783 49.0582 70.3783 49.4035C70.3783 49.8013 70.2698 50.117 70.0561 50.3471C69.8424 50.5773 69.5498 50.6956 69.1815 50.6956C68.9612 50.6956 68.7705 50.6365 68.6127 50.5214M68.7311 48.8445V50.0874C68.8133 50.1827 68.9218 50.232 69.0632 50.232C69.3328 50.232 69.5202 50.1696 69.632 50.0413C69.7438 49.9131 69.7997 49.7093 69.7997 49.4298C69.7997 48.9465 69.5695 48.7064 69.1059 48.7064C68.9415 48.7064 68.8166 48.7525 68.7311 48.8478V48.8445Z" fill="white"/>
<path d="M70.9902 47.3914L71.5459 47.2566V49.9297C71.5459 50.2223 71.6347 50.3966 71.8089 50.4525C71.7234 50.6169 71.5755 50.6958 71.3683 50.6958C71.1152 50.6958 70.9902 50.5215 70.9902 50.173V47.3881V47.3914Z" fill="white"/>
<path d="M72.1074 49.4626C72.1074 49.1009 72.2126 48.805 72.4231 48.5749C72.6335 48.348 72.9097 48.2329 73.2516 48.2329C73.6133 48.2329 73.8928 48.3414 74.0933 48.5617C74.2939 48.782 74.3925 49.0812 74.3925 49.4626C74.3925 49.844 74.2906 50.1432 74.0868 50.3668C73.8829 50.5904 73.6034 50.7021 73.2516 50.7021C72.8998 50.7021 72.6105 50.5904 72.4099 50.3635C72.2093 50.1366 72.1107 49.8374 72.1107 49.4626M72.6861 49.4626C72.6861 49.9854 72.8735 50.2484 73.2516 50.2484C73.4259 50.2484 73.5607 50.1794 73.6626 50.0446C73.7645 49.9098 73.8139 49.7158 73.8139 49.4626C73.8139 48.9464 73.6264 48.6866 73.2483 48.6866C73.0741 48.6866 72.936 48.7557 72.8341 48.8905C72.7321 49.0253 72.6795 49.216 72.6795 49.4626H72.6861Z" fill="white"/>
</g>
<path d="M203.654 1.95686C206.58 1.95686 208.888 2.73607 210.578 4.29076C212.268 5.84546 213.115 7.97802 213.115 10.6885V23.6107H209.33V20.7026H209.158C207.524 23.0999 205.344 24.2967 202.62 24.2967C200.296 24.2967 198.355 23.6107 196.793 22.2424C195.23 20.8741 194.447 19.1629 194.447 17.1049C194.447 14.9387 195.272 13.2125 196.92 11.9263C198.569 10.6437 200.768 9.99876 203.523 9.99876C205.872 9.99876 207.809 10.4275 209.327 11.2813V10.3828C209.327 9.0145 208.783 7.85127 207.693 6.8931C206.603 5.93866 205.329 5.46144 203.864 5.46144C201.657 5.46144 199.907 6.38978 198.618 8.24273L195.133 6.0617C197.055 3.32141 199.892 1.95312 203.65 1.95312M198.535 17.1906C198.535 18.2159 198.974 19.0734 199.847 19.7594C200.72 20.4454 201.746 20.7884 202.923 20.7884C204.587 20.7884 206.071 20.1732 207.374 18.9466C208.678 17.72 209.33 16.2809 209.33 14.6255C208.098 13.6562 206.378 13.1715 204.171 13.1715C202.563 13.1715 201.226 13.5555 200.15 14.3273C199.075 15.099 198.539 16.0535 198.539 17.1943L198.535 17.1906Z" fill="#4581F5"/>
<path d="M228.555 24.293C227.007 24.293 225.595 23.9649 224.317 23.3087C223.043 22.6526 222.058 21.7839 221.372 20.6989H221.2L221.372 23.607V32.8494H217.415V2.63541H221.2V5.54719H221.372C222.061 4.46226 223.043 3.59357 224.317 2.9374C225.595 2.28122 227.004 1.95312 228.555 1.95312C231.335 1.95312 233.688 3.03806 235.611 5.20419C237.589 7.40014 238.578 10.0398 238.578 13.1231C238.578 16.2063 237.589 18.8721 235.611 21.0382C233.688 23.2081 231.339 24.2893 228.555 24.2893M227.91 20.6989C229.803 20.6989 231.395 19.9868 232.684 18.5589C233.973 17.1608 234.621 15.3488 234.621 13.1231C234.621 10.8973 233.977 9.11515 232.684 7.68722C231.395 6.25929 229.803 5.54719 227.91 5.54719C226.018 5.54719 224.384 6.25929 223.096 7.68722C221.833 9.11515 221.203 10.9234 221.203 13.1231C221.203 15.3227 221.833 17.1757 223.096 18.5999C224.384 19.998 225.992 20.6952 227.91 20.6952V20.6989Z" fill="#4581F5"/>
<path d="M252.728 24.293C251.18 24.293 249.768 23.9649 248.49 23.3087C247.216 22.6526 246.23 21.7839 245.545 20.6989H245.372L245.545 23.607V32.8494H241.588V2.63541H245.372V5.54719H245.545C246.234 4.46226 247.216 3.59357 248.49 2.9374C249.768 2.28122 251.177 1.95312 252.728 1.95312C255.508 1.95312 257.861 3.03806 259.783 5.20419C261.762 7.40014 262.751 10.0398 262.751 13.1231C262.751 16.2063 261.762 18.8721 259.783 21.0382C257.861 23.2081 255.512 24.2893 252.728 24.2893M252.083 20.6989C253.976 20.6989 255.568 19.9868 256.857 18.5589C258.146 17.1608 258.794 15.3488 258.794 13.1231C258.794 10.8973 258.15 9.11515 256.857 7.68722C255.568 6.25929 253.976 5.54719 252.083 5.54719C250.191 5.54719 248.557 6.25929 247.268 7.68722C246.006 9.11515 245.376 10.9234 245.376 13.1231C245.376 15.3227 246.006 17.1757 247.268 18.5999C248.557 19.998 250.165 20.6952 252.083 20.6952V20.6989Z" fill="#4581F5"/>
<path d="M171.836 72.7719C165.062 72.7719 159.392 70.5051 154.832 65.9678C150.313 61.4305 148.058 55.771 148.058 48.9855C148.058 42.2 150.317 36.5628 154.832 32.0665C159.351 27.4882 165.017 25.1953 171.836 25.1953C178.656 25.1953 184.344 27.6746 188.649 32.6369L184.43 36.7082C181.148 32.7637 176.951 30.7914 171.836 30.7914C166.722 30.7914 162.525 32.4878 159.115 35.8806C155.75 39.2323 154.064 43.5981 154.064 48.9817C154.064 54.3654 155.747 58.7349 159.115 62.0829C162.525 65.4757 166.766 67.172 171.836 67.172C177.164 67.172 181.788 64.9463 185.708 60.4947L189.991 64.6293C187.817 67.2168 185.153 69.2188 181.998 70.6393C178.847 72.0598 175.456 72.7719 171.836 72.7719Z" fill="#4581F5"/>
<path d="M198.685 56.1737C198.685 59.5255 199.666 62.2359 201.626 64.3163C203.586 66.393 206.014 67.4331 208.914 67.4331C211.814 67.4331 214.242 66.393 216.202 64.3163C218.162 62.2397 219.143 59.5255 219.143 56.1737C219.143 52.822 218.162 50.1749 216.202 48.0946C214.201 45.9732 211.769 44.9143 208.914 44.9143C206.059 44.9143 203.631 45.9732 201.626 48.0946C199.666 50.1712 198.685 52.8667 198.685 56.1737ZM192.802 56.1737C192.802 51.3829 194.316 47.416 197.339 44.2805C200.408 41.1413 204.264 39.5754 208.91 39.5754C213.556 39.5754 217.39 41.145 220.417 44.2805C223.486 47.4197 225.019 51.3829 225.019 56.1737C225.019 60.9646 223.486 64.9725 220.417 68.067C217.39 71.2062 213.556 72.772 208.91 72.772C204.264 72.772 200.408 71.2024 197.339 68.067C194.316 64.9277 192.802 60.9646 192.802 56.1737Z" fill="#4581F5"/>
<path d="M229.751 40.5893H235.375V44.9141H235.63C236.525 43.3893 237.901 42.1142 239.752 41.1001C241.606 40.0823 243.532 39.5715 245.537 39.5715C249.374 39.5715 252.323 40.6639 254.391 42.8487C256.46 45.0335 257.49 48.1391 257.49 52.1657V71.7578H251.607V52.5497C251.48 47.4606 248.902 44.9179 243.873 44.9179C241.528 44.9179 239.568 45.8611 237.994 47.7477C236.417 49.6342 235.63 51.8935 235.63 54.5219V71.7578H229.747V40.5893H229.751Z" fill="#4581F5"/>
<path d="M275.202 72.265C272.646 72.265 270.525 71.4821 268.843 69.9125C267.16 68.3428 266.295 66.1581 266.254 63.3619V45.9321H260.757V40.5895H266.254V31.0488H272.133V40.5895H279.803V45.9321H272.133V61.453C272.133 63.5296 272.537 64.9389 273.347 65.6808C274.156 66.4228 275.074 66.7956 276.097 66.7956C276.566 66.7956 277.023 66.7434 277.472 66.6353C277.918 66.5309 278.334 66.3929 278.72 66.2214L280.575 71.4373C279.039 71.9891 277.251 72.265 275.205 72.265" fill="#4581F5"/>
<path d="M292.142 40.5893V71.7578H286.259V40.5893H292.142ZM293.356 29.8407C293.356 30.9853 292.951 31.9621 292.142 32.7674C291.332 33.5727 290.351 33.9754 289.2 33.9754C288.05 33.9754 287.068 33.5727 286.259 32.7674C285.45 31.9621 285.045 30.9853 285.045 29.8407C285.045 28.6961 285.45 27.7193 286.259 26.914C287.068 26.1087 288.05 25.7061 289.2 25.7061C290.351 25.7061 291.332 26.1087 292.142 26.914C292.951 27.7193 293.356 28.6961 293.356 29.8407Z" fill="#4581F5"/>
<path d="M313.365 86.5107C311.619 86.5107 309.978 86.2871 308.441 85.8434C306.909 85.396 305.511 84.7734 304.256 83.9681C302.997 83.1628 301.921 82.2083 301.03 81.1047C300.134 80.0012 299.452 78.7709 298.984 77.4175L304.544 75.1283C305.185 76.9514 306.29 78.4129 307.868 79.5165C309.445 80.6201 311.278 81.1718 313.365 81.1718C316.561 81.1718 319.053 80.2174 320.844 78.3085C322.635 76.3997 323.531 73.7712 323.531 70.4232V67.4331H323.276C322.167 69.0885 320.664 70.3897 318.768 71.3441C316.872 72.2985 314.815 72.7758 312.6 72.7758C308.509 72.7758 304.994 71.1875 302.053 68.0073C299.156 64.7413 297.706 60.8005 297.706 56.1775C297.706 51.5544 299.156 47.6322 302.053 44.411C304.994 41.1898 308.509 39.5754 312.6 39.5754C314.815 39.5754 316.872 40.0526 318.768 41.0071C320.664 41.9615 322.167 43.2664 323.276 44.918H323.531V40.5933H329.155V70.4232C329.155 75.4266 327.727 79.3487 324.872 82.1897C321.976 85.0716 318.139 86.5145 313.365 86.5145M313.556 67.4294C316.452 67.4294 318.821 66.3892 320.653 64.3126C322.571 62.2359 323.531 59.5217 323.531 56.17C323.531 52.8183 322.571 50.2122 320.653 48.0908C318.779 45.9694 316.411 44.9106 313.556 44.9106C310.701 44.9106 308.378 45.9694 306.459 48.0908C304.541 50.2122 303.581 52.904 303.581 56.17C303.581 59.436 304.541 62.1725 306.459 64.2492C308.378 66.3706 310.742 67.4294 313.556 67.4294Z" fill="#4581F5"/>
<path d="M340.085 56.1737C340.085 59.5255 341.067 62.2359 343.027 64.3163C344.986 66.393 347.414 67.4331 350.314 67.4331C353.215 67.4331 355.643 66.393 357.602 64.3163C359.562 62.2397 360.544 59.5255 360.544 56.1737C360.544 52.822 359.562 50.1749 357.602 48.0946C355.602 45.9732 353.17 44.9143 350.314 44.9143C347.459 44.9143 345.031 45.9732 343.027 48.0946C341.067 50.1712 340.085 52.8667 340.085 56.1737ZM334.206 56.1737C334.206 51.3829 335.72 47.416 338.744 44.2805C341.812 41.1413 345.668 39.5754 350.314 39.5754C354.961 39.5754 358.794 41.145 361.822 44.2805C364.89 47.4197 366.423 51.3829 366.423 56.1737C366.423 60.9646 364.89 64.9725 361.822 68.067C358.794 71.2062 354.961 72.772 350.314 72.772C345.668 72.772 341.812 71.2024 338.744 68.067C335.72 64.9277 334.206 60.9646 334.206 56.1737Z" fill="#4581F5"/>
<path d="M131.376 107.935V95.7234H133.644V107.935H131.376ZM136.947 107.935V95.7234H138.813L146.471 105.126H145.547V95.7234H147.797V107.935H145.931L138.273 98.5319H139.197V107.935H136.947ZM153.145 101.341H159.233V103.259H153.145V101.341ZM153.337 107.935H151.069V95.7234H159.984V97.6248H153.337V107.935ZM159.922 107.935L165.417 95.7234H167.65L173.162 107.935H170.79L166.062 96.927H166.969L162.259 107.935H159.922ZM162.451 105.109L163.062 103.329H169.656L170.266 105.109H162.451ZM174.715 107.935V95.7234H176.582L184.24 105.126H183.315V95.7234H185.566V107.935H183.699L176.041 98.5319H176.965V107.935H174.715ZM194.49 108.109C193.559 108.109 192.693 107.958 191.89 107.655C191.1 107.341 190.408 106.905 189.814 106.347C189.233 105.777 188.779 105.109 188.454 104.341C188.128 103.573 187.965 102.736 187.965 101.829C187.965 100.922 188.128 100.085 188.454 99.3169C188.779 98.5494 189.239 97.8865 189.832 97.3283C190.425 96.7584 191.117 96.3223 191.908 96.0199C192.699 95.7059 193.565 95.5489 194.507 95.5489C195.507 95.5489 196.42 95.7234 197.246 96.0722C198.072 96.4095 198.769 96.9154 199.339 97.5899L197.874 98.968C197.432 98.4912 196.938 98.1365 196.391 97.9039C195.845 97.6597 195.251 97.5376 194.612 97.5376C193.972 97.5376 193.385 97.6423 192.85 97.8516C192.327 98.0609 191.867 98.3575 191.472 98.7413C191.088 99.1251 190.786 99.5786 190.565 100.102C190.355 100.625 190.251 101.201 190.251 101.829C190.251 102.457 190.355 103.033 190.565 103.556C190.786 104.079 191.088 104.533 191.472 104.917C191.867 105.3 192.327 105.597 192.85 105.806C193.385 106.016 193.972 106.12 194.612 106.12C195.251 106.12 195.845 106.004 196.391 105.771C196.938 105.527 197.432 105.161 197.874 104.672L199.339 106.068C198.769 106.731 198.072 107.237 197.246 107.586C196.42 107.935 195.501 108.109 194.49 108.109ZM201.512 107.935V95.7234H203.78V107.935H201.512ZM205.356 107.935L210.851 95.7234H213.084L218.596 107.935H216.224L211.496 96.927H212.403L207.693 107.935H205.356ZM207.885 105.109L208.496 103.329H215.09L215.7 105.109H207.885ZM227.971 107.935V103.102L228.477 104.498L223.174 95.7234H225.598L229.855 102.788H228.494L232.786 95.7234H235.018L229.715 104.498L230.239 103.102V107.935H227.971ZM239.598 107.935L245.093 95.7234H247.326L252.838 107.935H250.466L245.738 96.927H246.645L241.935 107.935H239.598ZM242.127 105.109L242.738 103.329H249.332L249.942 105.109H242.127ZM254.391 107.935V95.7234H259.729C261.055 95.7234 262.218 95.9792 263.218 96.4909C264.218 97.0026 264.997 97.712 265.556 98.6192C266.114 99.5263 266.393 100.596 266.393 101.829C266.393 103.05 266.114 104.12 265.556 105.039C264.997 105.946 264.218 106.655 263.218 107.167C262.218 107.679 261.055 107.935 259.729 107.935H254.391ZM256.659 106.016H259.624C260.543 106.016 261.334 105.841 261.997 105.492C262.671 105.143 263.189 104.655 263.55 104.027C263.922 103.399 264.108 102.666 264.108 101.829C264.108 100.98 263.922 100.247 263.55 99.6309C263.189 99.0029 262.671 98.5145 261.997 98.1656C261.334 97.8167 260.543 97.6423 259.624 97.6423H256.659V106.016ZM274.525 108.109C273.572 108.109 272.693 107.952 271.891 107.638C271.089 107.324 270.391 106.888 269.798 106.33C269.205 105.76 268.745 105.097 268.42 104.341C268.094 103.573 267.931 102.736 267.931 101.829C267.931 100.922 268.094 100.09 268.42 99.3344C268.745 98.5668 269.205 97.9039 269.798 97.3457C270.391 96.7758 271.089 96.3339 271.891 96.0199C272.693 95.7059 273.566 95.5489 274.508 95.5489C275.461 95.5489 276.334 95.7059 277.124 96.0199C277.927 96.3339 278.625 96.7758 279.218 97.3457C279.811 97.9039 280.27 98.5668 280.596 99.3344C280.922 100.09 281.084 100.922 281.084 101.829C281.084 102.736 280.922 103.573 280.596 104.341C280.27 105.109 279.811 105.771 279.218 106.33C278.625 106.888 277.927 107.324 277.124 107.638C276.334 107.952 275.467 108.109 274.525 108.109ZM274.508 106.12C275.124 106.12 275.694 106.016 276.217 105.806C276.741 105.597 277.194 105.3 277.578 104.917C277.962 104.521 278.258 104.068 278.468 103.556C278.689 103.033 278.799 102.457 278.799 101.829C278.799 101.201 278.689 100.631 278.468 100.119C278.258 99.5961 277.962 99.1425 277.578 98.7587C277.194 98.3633 276.741 98.0609 276.217 97.8516C275.694 97.6423 275.124 97.5376 274.508 97.5376C273.891 97.5376 273.321 97.6423 272.798 97.8516C272.286 98.0609 271.833 98.3633 271.437 98.7587C271.054 99.1425 270.751 99.5961 270.53 100.119C270.321 100.631 270.216 101.201 270.216 101.829C270.216 102.445 270.321 103.015 270.53 103.539C270.751 104.062 271.054 104.521 271.437 104.917C271.821 105.3 272.275 105.597 272.798 105.806C273.321 106.016 273.891 106.12 274.508 106.12ZM283.488 107.935V95.7234H285.756V106.016H292.141V107.935H283.488ZM296.024 100.8H302.095V102.666H296.024V100.8ZM296.199 106.033H303.089V107.935H293.931V95.7234H302.845V97.6248H296.199V106.033ZM309.403 108.109C308.449 108.109 307.536 107.975 306.664 107.708C305.792 107.429 305.1 107.074 304.588 106.644L305.373 104.882C305.862 105.266 306.467 105.585 307.188 105.841C307.909 106.097 308.647 106.225 309.403 106.225C310.043 106.225 310.56 106.155 310.956 106.016C311.351 105.876 311.642 105.69 311.828 105.457C312.014 105.213 312.107 104.94 312.107 104.638C312.107 104.265 311.973 103.969 311.706 103.748C311.438 103.515 311.089 103.335 310.659 103.207C310.24 103.068 309.769 102.94 309.246 102.823C308.734 102.707 308.217 102.573 307.693 102.422C307.182 102.259 306.711 102.056 306.28 101.812C305.862 101.556 305.519 101.218 305.251 100.8C304.984 100.381 304.85 99.8461 304.85 99.1948C304.85 98.5319 305.024 97.9272 305.373 97.3806C305.734 96.8224 306.275 96.3804 306.996 96.0548C307.728 95.7175 308.653 95.5489 309.769 95.5489C310.502 95.5489 311.229 95.6419 311.95 95.828C312.671 96.0141 313.299 96.2816 313.834 96.6305L313.119 98.3924C312.572 98.0667 312.008 97.8283 311.427 97.6771C310.845 97.5143 310.287 97.4329 309.752 97.4329C309.124 97.4329 308.612 97.5085 308.217 97.6597C307.833 97.8109 307.548 98.0086 307.362 98.2528C307.188 98.497 307.1 98.7762 307.1 99.0902C307.1 99.4623 307.228 99.7647 307.484 99.9973C307.752 100.218 308.095 100.393 308.513 100.521C308.944 100.649 309.42 100.776 309.944 100.904C310.467 101.021 310.985 101.154 311.496 101.306C312.02 101.457 312.491 101.655 312.909 101.899C313.34 102.143 313.683 102.474 313.939 102.893C314.206 103.312 314.34 103.841 314.34 104.481C314.34 105.132 314.16 105.737 313.799 106.295C313.45 106.841 312.909 107.283 312.177 107.621C311.444 107.946 310.519 108.109 309.403 108.109ZM322.241 108.109C321.31 108.109 320.444 107.958 319.641 107.655C318.851 107.341 318.159 106.905 317.565 106.347C316.984 105.777 316.53 105.109 316.205 104.341C315.879 103.573 315.716 102.736 315.716 101.829C315.716 100.922 315.879 100.085 316.205 99.3169C316.53 98.5494 316.99 97.8865 317.583 97.3283C318.176 96.7584 318.868 96.3223 319.659 96.0199C320.45 95.7059 321.316 95.5489 322.258 95.5489C323.258 95.5489 324.171 95.7234 324.997 96.0722C325.823 96.4095 326.52 96.9154 327.09 97.5899L325.625 98.968C325.183 98.4912 324.689 98.1365 324.142 97.9039C323.595 97.6597 323.002 97.5376 322.363 97.5376C321.723 97.5376 321.136 97.6423 320.601 97.8516C320.078 98.0609 319.618 98.3575 319.223 98.7413C318.839 99.1251 318.537 99.5786 318.316 100.102C318.106 100.625 318.002 101.201 318.002 101.829C318.002 102.457 318.106 103.033 318.316 103.556C318.537 104.079 318.839 104.533 319.223 104.917C319.618 105.3 320.078 105.597 320.601 105.806C321.136 106.016 321.723 106.12 322.363 106.12C323.002 106.12 323.595 106.004 324.142 105.771C324.689 105.527 325.183 105.161 325.625 104.672L327.09 106.068C326.52 106.731 325.823 107.237 324.997 107.586C324.171 107.935 323.252 108.109 322.241 108.109ZM331.357 100.8H337.427V102.666H331.357V100.8ZM331.531 106.033H338.422V107.935H329.263V95.7234H338.177V97.6248H331.531V106.033ZM340.95 107.935V95.7234H342.816L350.474 105.126H349.55V95.7234H351.8V107.935H349.934L342.275 98.5319H343.2V107.935H340.95ZM360.724 108.109C359.794 108.109 358.928 107.958 358.125 107.655C357.334 107.341 356.642 106.905 356.049 106.347C355.468 105.777 355.014 105.109 354.689 104.341C354.363 103.573 354.2 102.736 354.2 101.829C354.2 100.922 354.363 100.085 354.689 99.3169C355.014 98.5494 355.474 97.8865 356.067 97.3283C356.66 96.7584 357.352 96.3223 358.143 96.0199C358.933 95.7059 359.8 95.5489 360.742 95.5489C361.742 95.5489 362.655 95.7234 363.481 96.0722C364.306 96.4095 365.004 96.9154 365.574 97.5899L364.109 98.968C363.667 98.4912 363.172 98.1365 362.626 97.9039C362.079 97.6597 361.486 97.5376 360.846 97.5376C360.207 97.5376 359.62 97.6423 359.085 97.8516C358.561 98.0609 358.102 98.3575 357.706 98.7413C357.323 99.1251 357.02 99.5786 356.799 100.102C356.59 100.625 356.485 101.201 356.485 101.829C356.485 102.457 356.59 103.033 356.799 103.556C357.02 104.079 357.323 104.533 357.706 104.917C358.102 105.3 358.561 105.597 359.085 105.806C359.62 106.016 360.207 106.12 360.846 106.12C361.486 106.12 362.079 106.004 362.626 105.771C363.172 105.527 363.667 105.161 364.109 104.672L365.574 106.068C365.004 106.731 364.306 107.237 363.481 107.586C362.655 107.935 361.736 108.109 360.724 108.109ZM367.747 107.935V95.7234H370.015V107.935H367.747ZM371.591 107.935L377.086 95.7234H379.319L384.831 107.935H382.459L377.731 96.927H378.638L373.928 107.935H371.591ZM374.12 105.109L374.731 103.329H381.325L381.935 105.109H374.12Z" fill="#4581F5"/>
<defs>
<radialGradient id="paint0_radial_642_1561" cx="0" cy="0" r="1" gradientUnits="userSpaceOnUse" gradientTransform="translate(63.4087 58.4441) scale(60.8731 60.8731)">
<stop offset="0.035" stop-color="#6599FE"/>
<stop offset="1" stop-color="#4581F5"/>
</radialGradient>
<clipPath id="clip0_642_1561">
<rect width="22.4138" height="26.0634" fill="white" transform="translate(52.0049 27.4138)"/>
</clipPath>
</defs>
</svg>
