<svg width="29" height="28" viewBox="0 0 29 28" fill="none" xmlns="http://www.w3.org/2000/svg">
<path d="M14.1221 19.3566V18.3566C13.863 18.3566 13.614 18.4572 13.4275 18.6372L14.1221 19.3566ZM8.06996 25.2H7.06996C7.06996 25.6013 7.30982 25.9637 7.67918 26.1205C8.04855 26.2773 8.47587 26.1982 8.76455 25.9194L8.06996 25.2ZM8.06996 19.3566H9.06996C9.06996 18.8043 8.62224 18.3566 8.06996 18.3566V19.3566ZM8.70039 7.40005C8.14811 7.40005 7.70039 7.84776 7.70039 8.40005C7.70039 8.95233 8.14811 9.40005 8.70039 9.40005V7.40005ZM18.8504 9.40005C19.4027 9.40005 19.8504 8.95233 19.8504 8.40005C19.8504 7.84776 19.4027 7.40005 18.8504 7.40005V9.40005ZM8.70039 13C8.14811 13 7.70039 13.4478 7.70039 14C7.70039 14.5523 8.14811 15 8.70039 15V13ZM14.5004 15C15.0527 15 15.5004 14.5523 15.5004 14C15.5004 13.4478 15.0527 13 14.5004 13V15ZM13.4275 18.6372L7.37536 24.4806L8.76455 25.9194L14.8167 20.076L13.4275 18.6372ZM9.06996 25.2V19.3566H7.06996V25.2H9.06996ZM8.06996 18.3566H5.80039V20.3566H8.06996V18.3566ZM3.90039 16.5566V5.60005H1.90039V16.5566H3.90039ZM5.80039 3.80005H23.2004V1.80005H5.80039V3.80005ZM25.1004 5.60005V16.5566H27.1004V5.60005H25.1004ZM23.2004 18.3566H14.1221V20.3566H23.2004V18.3566ZM25.1004 16.5566C25.1004 17.5179 24.2831 18.3566 23.2004 18.3566V20.3566C25.3209 20.3566 27.1004 18.688 27.1004 16.5566H25.1004ZM23.2004 3.80005C24.2831 3.80005 25.1004 4.63872 25.1004 5.60005H27.1004C27.1004 3.46858 25.3209 1.80005 23.2004 1.80005V3.80005ZM3.90039 5.60005C3.90039 4.63872 4.71768 3.80005 5.80039 3.80005V1.80005C3.67985 1.80005 1.90039 3.46858 1.90039 5.60005H3.90039ZM5.80039 18.3566C4.71768 18.3566 3.90039 17.5179 3.90039 16.5566H1.90039C1.90039 18.688 3.67985 20.3566 5.80039 20.3566V18.3566ZM8.70039 9.40005H18.8504V7.40005H8.70039V9.40005ZM8.70039 15H14.5004V13H8.70039V15Z" fill="#2B71FF"/>
</svg>
