<svg width="149" height="93" viewBox="0 0 149 93" fill="none" xmlns="http://www.w3.org/2000/svg">
<path d="M5.74394 92.9048C85.6529 92.9428 165.543 92.9618 245.49 92.9998C254.163 93.0188 264.858 91.8978 268.183 84.7351C271.282 78.0663 265.103 70.3146 257.413 68.0917C249.76 65.8308 241.389 67.4647 233.529 69.1176C236.722 47.9144 223.08 25.5712 201.425 16.4706C179.752 7.36988 151.73 12.2147 135.348 27.8511C123.652 4.65296 89.0541 -6.70859 63.1862 4.14002C37.2805 14.9886 24.885 45.9955 37.2616 68.9087C28.7964 62.4299 14.7383 62.9429 6.76437 69.9156C-1.20951 76.9454 -2.85349 92.9048 5.74394 92.8858V92.9048Z" fill="white"/>
</svg>
