<svg width="79" height="93" viewBox="0 0 79 93" fill="none" xmlns="http://www.w3.org/2000/svg">
<path d="M-184.256 92.9048C-104.347 92.9428 -24.4571 92.9618 55.4896 92.9998C64.1626 93.0188 74.8575 91.8978 78.1831 84.7351C81.282 78.0663 75.1031 70.3146 67.4127 68.0917C59.76 65.8308 51.3893 67.4647 43.5288 69.1176C46.7221 47.9144 33.0796 25.5712 11.4254 16.4706C-10.2477 7.36988 -38.2696 12.2147 -54.652 27.8511C-66.3483 4.65296 -100.946 -6.70859 -126.814 4.14002C-152.719 14.9886 -165.115 45.9955 -152.738 68.9087C-161.204 62.4299 -175.262 62.9429 -183.236 69.9156C-191.21 76.9454 -192.853 92.9048 -184.256 92.8858V92.9048Z" fill="white"/>
</svg>
