<svg width="29" height="28" viewBox="0 0 29 28" fill="none" xmlns="http://www.w3.org/2000/svg">
<path d="M24.9679 21.8994C24.9679 21.8994 23.5678 23.2271 23.2247 23.6163C22.6658 24.1922 22.0073 24.4641 21.144 24.4641C21.061 24.4641 20.9725 24.4641 20.8895 24.4588C19.2459 24.3575 17.7186 23.739 16.5731 23.2111C13.441 21.7501 10.6907 19.6759 8.40521 17.0472C6.51819 14.8557 5.25648 12.8296 4.42088 10.6541C3.90623 9.32639 3.71808 8.29197 3.80109 7.3162C3.85643 6.69235 4.10545 6.17514 4.56476 5.73258L6.45178 3.91434C6.72294 3.66907 7.01069 3.53577 7.29292 3.53577C7.64155 3.53577 7.92377 3.73839 8.10085 3.90901C8.10639 3.91434 8.11192 3.91968 8.11746 3.92501C8.45502 4.22894 8.77598 4.54353 9.11354 4.87945C9.28509 5.05007 9.46217 5.2207 9.63925 5.39666L11.15 6.85231C11.7366 7.41751 11.7366 7.94005 11.15 8.50525C10.9895 8.65988 10.8346 8.81451 10.6741 8.96381C10.2092 9.42236 10.5744 9.07052 10.0929 9.48642C10.0819 9.49708 10.0708 9.50241 10.0653 9.51308C9.58937 9.97164 9.67791 10.4195 9.77752 10.7235C9.78306 10.7395 9.78859 10.7554 9.79412 10.7714C10.187 11.6886 10.7404 12.5524 11.5815 13.5814L11.5871 13.5868C13.1144 15.3997 14.7247 16.8127 16.5011 17.8951C16.728 18.0337 16.9604 18.1457 17.1817 18.2523C17.381 18.3483 17.5691 18.439 17.7296 18.5349C17.7517 18.5456 17.7739 18.5616 17.796 18.5723C17.9841 18.6629 18.1612 18.7056 18.3438 18.7056C18.8032 18.7056 19.0909 18.4283 19.185 18.3376L20.2697 17.2925C20.4578 17.1112 20.7567 16.8926 21.1053 16.8926C21.4484 16.8926 21.7306 17.1005 21.9022 17.2818C21.9077 17.2872 21.9077 17.2872 21.9132 17.2925L24.9623 20.2305C25.5323 20.7743 24.9679 21.8994 24.9679 21.8994Z" stroke="#2B71FF" stroke-width="2" stroke-linecap="round" stroke-linejoin="round"/>
</svg>
